<?xml version="1.0" standalone="no"?>
<!DOCTYPE svg PUBLIC "-//W3C//DTD SVG 1.1//EN" "http://www.w3.org/Graphics/SVG/1.1/DTD/svg11.dtd" >
<svg xmlns="http://www.w3.org/2000/svg">
<metadata></metadata>
<defs>
<font id="heinemannbold_italic" horiz-adv-x="1495" >
<font-face units-per-em="2048" ascent="1475" descent="-573" />
<missing-glyph horiz-adv-x="563" />
<glyph unicode="&#xfb01;" horiz-adv-x="1372" d="M88 909l16 80q15 66 76 66h168l33 157q78 398 455 398q78 0 131 -17q24 -9 29 -23t-3 -40l-26 -103q-12 -45 -49 -45q-15 0 -40.5 4.5t-50.5 4.5q-69 0 -112.5 -50t-65.5 -155l-26 -131h206q63 0 48 -66l-17 -80q-12 -65 -74 -65h-206l-160 -778q-15 -66 -74 -66h-156 q-64 0 -49 66l160 778h-164q-61 0 -49 65zM848 66l188 923q12 66 76 66h156q59 0 47 -66l-189 -923q-15 -66 -75 -66h-156q-62 0 -47 66zM1104 1419q1 66 50 113t114 47q66 0 110.5 -47t42.5 -113q-3 -66 -51.5 -112.5t-114.5 -46.5q-64 0 -108.5 46.5t-42.5 112.5z" />
<glyph unicode="&#xfb02;" horiz-adv-x="1480" d="M88 909l16 80q15 66 76 66h168l33 157q81 398 455 398q80 0 133 -17q23 -9 27.5 -23t-3.5 -40l-26 -103q-12 -45 -47 -45q-14 0 -40 4.5t-53 4.5q-69 0 -112 -49.5t-66 -155.5l-26 -131h206q63 0 48 -66l-17 -80q-12 -65 -74 -65h-206l-158 -778q-15 -66 -76 -66h-156 q-62 0 -47 66l158 778h-164q-61 0 -49 65zM924 274q0 86 30 232l209 1012q12 67 74 67h156q61 0 49 -67l-219 -1065q-21 -95 -21 -138q0 -102 88 -102q24 0 47 3t33 3q44 0 33 -53l-23 -107q-5 -23 -16 -35.5t-39 -19.5q-55 -18 -141 -18q-260 0 -260 288z" />
<glyph horiz-adv-x="0" />
<glyph horiz-adv-x="682" />
<glyph unicode=" "  horiz-adv-x="563" />
<glyph unicode="&#x09;" horiz-adv-x="563" />
<glyph unicode="&#xa0;" horiz-adv-x="563" />
<glyph unicode="!" horiz-adv-x="739" d="M125 139q1 67 51.5 116.5t116.5 49.5q68 0 115 -49t45 -117q-1 -67 -52.5 -115.5t-119.5 -48.5q-67 0 -113 48t-43 116zM254 520l127 766q18 116 20 125q12 62 76 62h174q61 0 49 -62l-30 -125l-187 -766q-14 -65 -75 -65h-105q-61 0 -49 65z" />
<glyph unicode="&#x22;" horiz-adv-x="1007" d="M240 1016l43 270q3 17 7 41.5t8 51t5 32.5q12 62 74 62h139q63 0 51 -62q-3 -21 -30 -125l-68 -270q-15 -64 -76 -64h-104q-61 0 -49 64zM645 1016l41 270q3 22 11.5 69.5t9.5 55.5q15 62 75 62h140q64 0 49 -62q-2 -11 -31 -125l-66 -270q-15 -64 -77 -64h-105 q-59 0 -47 64z" />
<glyph unicode="#" horiz-adv-x="1568" d="M123 485l12 60q14 73 82 73h227l82 234h-200q-65 0 -50 74l11 57q15 74 82 74h231l131 370q7 26 23.5 36t46.5 10h100q22 0 33.5 -12.5t7.5 -33.5q-10 -35 -16 -49l-113 -321h248l133 370q7 26 23.5 36t46.5 10h98q49 0 43 -46q-10 -35 -16 -49l-113 -321h203 q34 0 45.5 -17.5t3.5 -56.5l-10 -57q-15 -74 -80 -74h-234l-84 -234h207q63 0 49 -73l-12 -60q-14 -73 -78 -73h-237l-129 -367q-9 -26 -24.5 -35.5t-45.5 -9.5h-100q-50 0 -41 45l14 49l113 318h-250l-129 -367q-9 -26 -24.5 -35.5t-45.5 -9.5h-98q-49 0 -43 45 q10 35 16 49l111 318h-199q-34 0 -46 17.5t-5 55.5zM657 618h250l82 234h-248z" />
<glyph unicode="$" horiz-adv-x="1171" d="M74.5 71.5q-6.5 19.5 5.5 51.5l43 129q16 49 59 49q15 0 29.5 -5.5t36.5 -16.5t37 -17q98 -37 182 -37q108 0 178 52.5t70 148.5q0 24 -6 46.5t-15 40.5t-26 37t-30.5 31.5t-38.5 30.5t-41 28t-45.5 29t-45.5 29q-49 33 -84 63t-70 73.5t-53 99t-18 121.5 q0 183 113.5 295t306.5 137l28 131q12 68 76 68h108q63 0 48 -68l-27 -129q126 -14 199 -49q32 -15 37 -32t-11 -52l-51 -125q-18 -43 -55 -43q-15 0 -31 5.5t-40.5 16t-47.5 17.5q-61 20 -141 20q-94 0 -151.5 -48t-57.5 -122q0 -26 11 -50.5t23.5 -42.5t42 -42.5t47 -36.5 t59 -40t58.5 -40q51 -34 88.5 -66.5t74 -78t56 -102t19.5 -121.5q0 -109 -35.5 -195t-97.5 -141.5t-138.5 -88.5t-166.5 -46l-25 -123q-12 -66 -74 -66h-108q-64 0 -49 66l22 117q-155 14 -241 59q-30 13 -36.5 32.5z" />
<glyph unicode="%" horiz-adv-x="1890" d="M217 963q0 76 10 146.5t35 142.5t63.5 125t101 86.5t142.5 33.5q277 0 277 -330q0 -101 -20 -192.5t-60 -168.5t-109.5 -123t-160.5 -46q-78 0 -134 26t-86.5 72.5t-44.5 102.5t-14 125zM420 952q0 -70 21 -106.5t59 -36.5q45 0 78.5 54t49 136.5t15.5 180.5 q0 72 -20.5 108.5t-55.5 36.5q-46 0 -80.5 -56.5t-50.5 -140t-16 -176.5zM461 -16q0 18 14 43l848 1446q13 25 31.5 35t48.5 10h65q41 0 41 -33q0 -18 -14 -41l-848 -1448q-23 -43 -80 -43h-65q-41 0 -41 31zM1128 301q0 75 9.5 145.5t35 142.5t63.5 125t101 86.5t142 33.5 q278 0 278 -328q0 -80 -12 -155t-39 -144t-66.5 -120t-99.5 -81.5t-133 -30.5q-78 0 -134 26t-86.5 72.5t-44.5 102.5t-14 125zM1329 289q0 -70 22 -107t60 -37q45 0 78.5 54.5t49 137.5t15.5 181q0 71 -21 107.5t-56 36.5q-46 0 -80.5 -56t-51 -139.5t-16.5 -177.5z" />
<glyph unicode="&#x26;" horiz-adv-x="1511" d="M98 354q1 83 31.5 153.5t88.5 126.5t119 96.5t144 82.5q-82 150 -82 297q0 170 120 278.5t306 108.5q164 0 265.5 -75.5t101.5 -217.5q0 -66 -20 -124t-51 -100.5t-80.5 -82.5t-95 -68t-107.5 -59l184 -272q63 117 72 229q3 34 23.5 51t51.5 17h121q36 0 45 -18.5 t4 -65.5q-23 -231 -174 -422l150 -217q18 -25 6.5 -48.5t-45.5 -23.5h-201q-33 0 -52 9.5t-36 35.5l-35 53q-188 -123 -407 -123q-214 0 -330.5 98t-116.5 281zM395 385q0 -98 61 -143t158 -45q122 0 222 77l-246 369q-92 -53 -143.5 -114.5t-51.5 -143.5zM659 1122 q0 -75 70 -192q109 57 165 109.5t56 119.5t-35.5 101t-97.5 34q-73 0 -115.5 -49t-42.5 -123z" />
<glyph unicode="'" horiz-adv-x="602" d="M240 1016l43 270q3 17 7 41.5t8 51t5 32.5q12 62 74 62h139q63 0 51 -62q-3 -21 -30 -125l-68 -270q-15 -64 -76 -64h-104q-61 0 -49 64z" />
<glyph unicode="(" horiz-adv-x="788" d="M182 399q0 328 117.5 594t357.5 518q63 66 127 66h105q37 0 37 -31q0 -19 -21 -47q-450 -518 -450 -1114q0 -305 102 -621q7 -24 4 -38q-3 -37 -53 -37h-105q-53 0 -81 67q-140 329 -140 643z" />
<glyph unicode=")" horiz-adv-x="788" d="M-98 -283q0 24 20 47q453 521 453 1117q0 293 -103 618q-6 21 -6 39q6 39 56 39h102q29 0 48.5 -17.5t35.5 -52.5q137 -327 137 -643q0 -330 -117 -595t-358 -515q-62 -65 -127 -65h-102q-39 0 -39 28z" />
<glyph unicode="*" horiz-adv-x="1007" d="M178 1122q3 12 12 27l41 80q25 43 60 43q18 0 31 -8l202 -99l15 203q5 38 8 51q9 54 67 54h93q56 0 47 -54q-4 -17 -17 -51l-67 -203l243 99q16 8 35 8q36 0 39 -43l12 -80q0 -19 -2 -27q-6 -41 -63 -51l-250 -47l131 -178q14 -24 8 -43q-3 -27 -37 -45l-79 -51 q-19 -13 -41 -13q-32 0 -45 33l-70 213l-158 -213q-26 -33 -57 -33q-18 0 -37 13l-59 51q-23 17 -19 45q7 23 29 43l203 178l-230 47q-51 10 -45 51z" />
<glyph unicode="+" horiz-adv-x="1226" d="M55 463v106q0 68 62 68h336v336q0 61 65 61h107q67 0 67 -61v-336h336q62 0 62 -68v-106q0 -66 -62 -66h-336v-336q0 -61 -67 -61h-107q-65 0 -65 61v336h-336q-62 0 -62 66z" />
<glyph unicode="," horiz-adv-x="604" d="M86 141q5 68 54 115t118 47q30 0 57.5 -10t51.5 -31.5t37 -59t10 -87.5q-7 -102 -79.5 -199t-168.5 -145q-26 -15 -43 -15q-23 0 -23 21q0 16 19 35q84 101 104 170q-64 6 -103.5 50.5t-33.5 108.5z" />
<glyph unicode="-" horiz-adv-x="759" d="M106 498l23 106q12 66 76 66h444q59 0 47 -66l-22 -106q-14 -68 -74 -68h-444q-64 0 -50 68z" />
<glyph unicode="." horiz-adv-x="604" d="M86 139q3 68 52.5 117t115.5 49q69 0 116 -49t44 -117q-1 -67 -51.5 -115.5t-118.5 -48.5q-67 0 -113.5 48t-44.5 116z" />
<glyph unicode="/" horiz-adv-x="694" d="M-98 10q2 15 22 51l744 1387q25 49 71 49h115q43 0 35 -35q-2 -12 -23 -51l-745 -1386q-26 -50 -72 -50h-112q-43 0 -35 35z" />
<glyph unicode="0" horiz-adv-x="1280" d="M139 535q0 96 8.5 188t29 189t52 181t80.5 159.5t111 129t147 84.5t185 31q242 0 354.5 -144t112.5 -425q0 -146 -19 -278.5t-64 -257.5t-113 -216t-173 -146t-236 -55q-106 0 -188.5 30t-135.5 81t-87.5 124t-49 152.5t-14.5 172.5zM422 524q0 -319 192 -319 q74 0 136 62.5t102 166.5t62 235.5t22 272.5q0 162 -51 243t-140 81q-76 0 -139 -64.5t-102 -171t-60.5 -237.5t-21.5 -269z" />
<glyph unicode="1" horiz-adv-x="667" d="M92 66l275 1339q15 68 75 68h168q62 0 47 -68l-274 -1339q-12 -66 -74 -66h-168q-61 0 -49 66z" />
<glyph unicode="2" horiz-adv-x="1136" d="M0 68l18 96q9 46 26.5 76.5t57.5 62.5q34 28 118.5 96.5t122 99t91 77.5t90.5 83q118 116 178 207t60 193q0 186 -217 186q-73 0 -142.5 -15.5t-118.5 -31.5t-71 -16q-35 0 -29 43l21 145q4 34 16 48.5t43 25.5q139 53 342 53q219 0 343 -99t124 -294q0 -257 -262 -512 q-118 -118 -405 -350h544q34 0 46 -16.5t5 -53.5l-20 -104q-14 -68 -80 -68h-850q-33 0 -45 16t-6 52z" />
<glyph unicode="3" horiz-adv-x="1128" d="M-17.5 47q-5.5 15 3.5 47l37 131q8 41 49 41q23 0 63.5 -15t100.5 -29.5t129 -14.5q158 0 250 65.5t92 188.5q0 81 -63.5 129.5t-188.5 48.5l-103 -2q-35 0 -47 14.5t-6 48.5l20 97q13 65 82 65l86 -4q61 0 117 12.5t104.5 37.5t77.5 69.5t29 101.5q0 89 -59.5 133.5 t-161.5 44.5q-70 0 -133.5 -14.5t-106.5 -29.5t-65 -15q-40 0 -37 43l14 129q4 32 16.5 47t43.5 27q130 53 329 53q132 0 233 -37.5t163.5 -120.5t62.5 -202q0 -152 -99.5 -249t-254.5 -130q117 -30 178 -114t61 -200q0 -152 -85 -259.5t-227 -158.5t-327 -51 q-248 0 -348 45q-24 12 -29.5 27z" />
<glyph unicode="4" horiz-adv-x="1251" d="M18 365l23 114q10 52 39 88l686 838q33 41 57 54.5t66 13.5h180q23 0 33.5 -9t7.5 -24q-5 -20 -31 -49l-719 -850h369l49 243q15 68 78 68h156q62 0 47 -68l-49 -243h127q66 0 51 -70l-21 -102q-15 -70 -80 -70h-129l-47 -233q-12 -66 -73 -66h-158q-61 0 -49 66l47 233 h-606q-36 0 -48.5 15.5t-5.5 50.5z" />
<glyph unicode="5" horiz-adv-x="1161" d="M26 48q-6 14 3 48l37 129q11 43 49 43q23 0 62.5 -15t99.5 -30.5t131 -15.5q152 0 252 77t100 214q0 124 -75 177.5t-214 53.5q-65 0 -139.5 -14.5t-95.5 -14.5q-62 0 -50 70l140 633q15 70 82 70h733q63 0 51 -70l-23 -105q-12 -69 -79 -69h-533l-68 -301q61 12 150 12 q85 0 158 -23t132.5 -70.5t93.5 -128.5t34 -188q0 -110 -35.5 -201.5t-97.5 -156t-148 -109.5t-186.5 -66.5t-212.5 -21.5q-214 0 -318 48q-27 11 -33 25z" />
<glyph unicode="6" horiz-adv-x="1232" d="M121 506q0 204 52.5 382.5t150 314.5t248 215t335.5 79q193 0 277 -35q25 -11 30.5 -26t-4.5 -47l-34 -125q-11 -41 -50 -41q-18 0 -89 19.5t-150 19.5q-183 0 -296 -129.5t-155 -346.5q132 144 328 144q163 0 259.5 -102.5t96.5 -305.5q0 -108 -36 -206.5t-101.5 -174.5 t-166 -121t-222.5 -45q-227 0 -350 140t-123 391zM389 410q0 -108 56 -166t145 -58q114 0 182 92.5t68 217.5q0 101 -51.5 159t-129.5 58q-123 0 -196.5 -90t-73.5 -213z" />
<glyph unicode="7" horiz-adv-x="1058" d="M63 39q9 24 17 35l749 1155h-596q-68 0 -53 69l21 105q15 70 82 70h837q66 0 51 -70l-14 -78q-11 -49 -39 -92l-723 -1167q-26 -42 -52 -54t-71 -12h-166q-26 0 -36 10t-7 29z" />
<glyph unicode="8" horiz-adv-x="1251" d="M125 367q0 282 362 403q-99 66 -155 156t-56 190q0 101 41.5 176.5t113 119t157 64.5t184.5 21q95 0 177 -20t147.5 -60.5t103 -108.5t37.5 -157q0 -136 -83 -225.5t-228 -149.5q128 -69 191 -158.5t63 -211.5q0 -108 -45 -192t-122.5 -135.5t-176 -77.5t-211.5 -26 q-138 0 -249 41.5t-181 132t-70 218.5zM401 397q0 -92 68 -147t168 -55q114 0 189 55.5t75 152.5q0 81 -61 150.5t-166 114.5q-53 -17 -98.5 -40t-86.5 -56t-64.5 -78t-23.5 -97zM549 1110q0 -128 190 -248q115 51 171.5 106.5t56.5 143.5q0 82 -58 126t-137 44 q-93 0 -158 -44.5t-65 -127.5z" />
<glyph unicode="9" horiz-adv-x="1294" d="M207 946q0 152 58.5 275.5t176 199.5t275.5 76q200 0 284 -135l9 43q12 68 75 68h168q59 0 47 -68l-276 -1339q-12 -66 -74 -66h-168q-61 0 -49 66l121 585h-6q-96 -112 -264 -112q-169 0 -273 111.5t-104 295.5zM483 967q0 -104 51.5 -156.5t139.5 -52.5q116 0 186 94.5 t70 226.5q0 93 -47.5 148t-139.5 55q-80 0 -141.5 -50t-90 -120.5t-28.5 -144.5z" />
<glyph unicode=":" horiz-adv-x="604" d="M86 139q1 67 51.5 116.5t116.5 49.5q68 0 115 -49t45 -117q-1 -67 -52.5 -115.5t-119.5 -48.5q-67 0 -113 48t-43 116zM244 915q3 67 52.5 115.5t115.5 48.5q69 0 115.5 -48t43.5 -116q-1 -67 -51.5 -116t-118.5 -49q-67 0 -113 48.5t-44 116.5z" />
<glyph unicode=";" horiz-adv-x="604" d="M86 141q3 68 53 115t119 47q65 0 113 -46.5t41 -141.5q-7 -102 -79 -199t-167 -145q-26 -15 -45 -15q-23 0 -23 21q0 13 19 35q88 106 104 170q-64 6 -102.5 50.5t-32.5 108.5zM244 915q1 67 51.5 115.5t116.5 48.5q69 0 115 -48t44 -116q-1 -67 -52.5 -116t-119.5 -49 q-67 0 -112.5 48.5t-42.5 116.5z" />
<glyph unicode="&#x3c;" horiz-adv-x="1325" d="M178 504v53q0 43 14 59.5t68 40.5l864 379q47 19 68 19q35 0 35 -56v-63q0 -56 -13.5 -74t-70.5 -43l-678 -293l678 -290q57 -23 70.5 -41.5t13.5 -75.5v-64q0 -55 -35 -55q-23 0 -68 18l-864 379q-55 24 -68.5 41t-13.5 66z" />
<glyph unicode="=" horiz-adv-x="1263" d="M145 227v92q0 66 62 66h934q61 0 61 -66v-92q0 -67 -61 -67h-934q-62 0 -62 67zM145 717v92q0 65 62 65h934q61 0 61 -65v-92q0 -68 -61 -68h-934q-62 0 -62 68z" />
<glyph unicode="&#x3e;" horiz-adv-x="1325" d="M164 55v64q0 57 13.5 75.5t70.5 41.5l678 290l-678 293q-57 23 -70.5 41.5t-13.5 75.5v63q0 56 35 56q19 0 67 -19l864 -379q54 -24 68 -40.5t14 -59.5v-53q0 -49 -13.5 -66t-68.5 -41l-864 -379q-45 -18 -67 -18q-35 0 -35 55z" />
<glyph unicode="?" horiz-adv-x="1073" d="M279 1260l20 126q4 32 16 46.5t41 25.5q133 42 328 39q179 -5 289 -96t110 -250q0 -63 -23.5 -121.5t-56 -101.5t-87 -89t-97.5 -74.5t-106 -66.5q-31 -19 -45.5 -40t-20.5 -52l-18 -92q-9 -57 -70 -57h-135q-56 0 -43 65l31 144q14 68 71 112q17 13 62.5 45.5t69.5 50 t60.5 50t55.5 57.5t34 58.5t15 66.5q0 71 -43.5 111t-132.5 43q-68 2 -129 -10t-102.5 -23.5t-65.5 -9.5q-34 0 -28 43zM281 139q3 68 52.5 117t115.5 49q69 0 115.5 -49t43.5 -117q-1 -67 -51.5 -115.5t-118.5 -48.5q-67 0 -113 48t-44 116z" />
<glyph unicode="@" horiz-adv-x="1732" d="M152 733q0 159 56 299t156.5 242.5t247 161.5t318.5 59q109 0 212.5 -27.5t191 -81t153.5 -128t103.5 -175.5t37.5 -215q0 -226 -140 -381t-345 -155q-120 0 -135 106h-7q-38 -56 -93 -81t-111 -25q-117 0 -197 86t-80 221q0 81 28.5 163.5t79 151.5t128 112.5 t166.5 43.5q130 0 196 -117h8l9 31q6 30 19 44.5t38 14.5h45q36 0 46 -20t-1 -55l-106 -418q-26 -105 43 -105q78 0 141.5 55t96 134.5t32.5 161.5q0 233 -157.5 371.5t-401.5 138.5q-171 0 -312 -79t-222 -220.5t-81 -317.5q0 -278 167 -440t466 -162q269 0 451 141 q2 2 10 8.5t12 9t11 7.5t12.5 6t11.5 1t12 -4t11 -11l26 -35q15 -20 15.5 -33t-17.5 -33q-99 -105 -249.5 -157t-315.5 -52q-354 0 -570 206t-216 552zM698 659q0 -69 35.5 -111t95.5 -42q65 0 116 47t76 110.5t26 127.5q0 59 -36.5 101t-88.5 42q-96 0 -160 -87t-64 -188z " />
<glyph unicode="A" d="M-94 37q0 8 14 31l785 1337q40 68 100 68h217q57 0 70 -68l241 -1339q2 -10 2 -29q-9 -37 -57 -37h-172q-67 0 -76 63l-41 277h-610l-156 -277q-34 -63 -98 -63h-180q-23 0 -33 9q-7 6 -7 18q0 4 1 10zM510 575h448l-92 615h-8z" />
<glyph unicode="B" horiz-adv-x="1316" d="M25 66l274 1339q12 68 76 68h391q217 0 338 -87t121 -256q0 -154 -96 -249t-252 -123q260 -58 260 -301q0 -93 -34 -170t-92.5 -129t-137 -88.5t-166 -53t-181.5 -16.5h-452q-52 0 -52 43q0 10 3 23zM348 225h135q180 0 267.5 59t87.5 183q0 100 -74.5 141t-204.5 41 h-125zM479 866h158q128 0 211.5 53t83.5 160q0 90 -63.5 129t-194.5 39h-117z" />
<glyph unicode="C" horiz-adv-x="1355" d="M109 643q0 80 13.5 160t44.5 165t78 161t119.5 144t163 117t214 78t266.5 29q201 0 327 -49q25 -8 31 -24q2 -6 3 -16q0 -14 -5 -34l-33 -125q-9 -43 -45 -43q-20 0 -61.5 12t-104 24.5t-133.5 12.5q-137 0 -248 -49t-181.5 -133t-108 -192.5t-37.5 -231.5 q0 -206 114 -322t295 -116q72 0 137.5 14.5t108.5 28.5t61 14q38 0 38 -36q0 -4 -1 -9l-18 -127q-6 -40 -16.5 -53.5t-49.5 -26.5q-127 -41 -313 -41q-194 0 -341 75t-232.5 227.5t-85.5 365.5z" />
<glyph unicode="D" horiz-adv-x="1523" d="M25 66l274 1339q12 68 76 68h305q118 0 221 -17.5t199.5 -60t164.5 -108.5t109 -170.5t41 -237.5q0 -175 -43 -318t-124 -246.5t-197 -174.5t-261.5 -105.5t-318.5 -34.5h-397q-52 0 -52 43q0 10 3 23zM350 238h164q270 0 433 165.5t163 442.5q0 108 -34 185t-98.5 119.5 t-146.5 61.5t-190 19h-88z" />
<glyph unicode="E" horiz-adv-x="1161" d="M25 68l272 1335q15 70 84 70h760q54 0 54 -46q0 -11 -3 -24l-23 -105q-12 -69 -77 -69h-539l-70 -346h484q33 0 45 -16.5t6 -53.5l-23 -102q-12 -70 -80 -70h-483l-82 -399h539q34 0 46 -16.5t5 -53.5l-22 -104q-12 -68 -78 -68h-760q-57 0 -57 47q0 10 2 21z" />
<glyph unicode="F" horiz-adv-x="1081" d="M25 68l272 1335q15 70 84 70h715q54 0 54 -46q0 -11 -3 -24l-23 -105q-12 -69 -77 -69h-494l-70 -346h447q34 0 46 -16.5t5 -53.5l-20 -102q-15 -70 -80 -70h-449l-117 -573q-14 -68 -79 -68h-156q-57 0 -57 47q0 10 2 21z" />
<glyph unicode="G" horiz-adv-x="1540" d="M109 643q0 80 13.5 160t44.5 165t78 161t119.5 144t163 117t214 78t266.5 29q218 0 342 -51q25 -10 30.5 -25t-2.5 -49l-35 -129q-9 -43 -45 -43q-20 0 -63 13t-108 26.5t-138 13.5q-137 0 -248.5 -48.5t-182 -132t-108.5 -192t-38 -231.5q0 -141 55.5 -241t148.5 -147.5 t213 -47.5q115 0 191 27l70 346h-238q-35 0 -48 16t-7 51l24 111q12 70 82 70h457q54 0 54 -46q0 -11 -3 -24l-131 -641q-7 -37 -26 -57.5t-54 -32.5q-171 -58 -412 -58q-146 0 -268.5 42t-215 123t-144 210t-51.5 293z" />
<glyph unicode="H" horiz-adv-x="1499" d="M25 68l272 1335q15 70 84 70h156q54 0 54 -46q0 -11 -3 -24l-105 -516h596l105 516q15 70 82 70h157q55 0 55 -47q0 -10 -3 -23l-275 -1335q-12 -68 -78 -68h-157q-58 0 -58 49q0 9 2 19l119 573h-596l-117 -573q-14 -68 -79 -68h-156q-57 0 -57 47q0 10 2 21z" />
<glyph unicode="I" horiz-adv-x="874" d="M-37 66l21 100q15 67 75 67h127l207 1006h-127q-51 0 -51 46q0 9 2 20l21 100q15 68 75 68h543q50 0 50 -44q0 -11 -3 -24l-20 -100q-12 -66 -74 -66h-125l-207 -1006h125q50 0 50 -43q0 -11 -3 -24l-20 -100q-12 -66 -74 -66h-543q-51 0 -51 46q0 9 2 20z" />
<glyph unicode="J" horiz-adv-x="931" d="M-127 63l23 117q10 56 53 56q10 0 43 -8.5t65 -8.5q110 0 172 65.5t95 223.5l149 731h-184q-35 0 -48 16.5t-5 51.5l18 96q15 70 84 70h590q54 0 54 -46q0 -11 -3 -24l-18 -96q-14 -68 -80 -68h-119l-164 -797q-49 -240 -171.5 -353.5t-356.5 -113.5q-125 0 -170 23 q-29 13 -29 45q0 9 2 20z" />
<glyph unicode="K" horiz-adv-x="1361" d="M25 68l272 1335q15 70 84 70h156q54 0 54 -46q0 -11 -3 -24l-113 -553l567 565q35 37 58 47.5t69 10.5h224q21 -1 31 -9q8 -6 7 -16q0 -4 -1 -8q-2 -18 -33 -49l-652 -623l435 -688q15 -29 12 -47q-8 -33 -47 -33h-201q-46 0 -64.5 10t-37.5 45l-396 656l-131 -643 q-14 -68 -79 -68h-156q-57 0 -57 47q0 10 2 21z" />
<glyph unicode="L" horiz-adv-x="1085" d="M25 68l272 1335q15 70 84 70h156q54 0 54 -46q0 -11 -3 -24l-238 -1161h522q54 0 55 -48q0 -10 -3 -22l-21 -104q-14 -68 -80 -68h-743q-57 0 -57 47q0 10 2 21z" />
<glyph unicode="M" horiz-adv-x="1933" d="M25 68l272 1335q15 70 84 70h321q66 0 72 -70l125 -1006l537 1006q37 70 100 70h317q59 0 59 -48q0 -10 -3 -22l-275 -1335q-12 -68 -82 -68h-145q-55 0 -55 48q0 9 2 20l223 1083l-584 -1083q-33 -68 -102 -68h-150q-69 0 -75 68l-138 1083l-223 -1083q-12 -68 -78 -68 h-147q-57 0 -57 47q0 10 2 21z" />
<glyph unicode="N" horiz-adv-x="1529" d="M25 68l272 1335q15 70 84 70h248q64 0 82 -70l317 -1034l211 1034q15 70 82 70h131q56 0 56 -47q0 -10 -3 -23l-272 -1333q-14 -70 -82 -70h-229q-68 0 -88 68l-328 1056l-217 -1056q-12 -68 -78 -68h-131q-57 0 -57 47q0 10 2 21z" />
<glyph unicode="O" horiz-adv-x="1638" d="M109 588q0 142 34 275t102.5 248.5t165 201.5t230.5 135t289 49q283 0 441.5 -159.5t158.5 -454.5q0 -145 -32.5 -278.5t-99.5 -248t-162 -199.5t-228 -133.5t-289 -48.5q-285 0 -447.5 159.5t-162.5 453.5zM416 610q0 -191 84.5 -293t234.5 -102q117 0 212.5 58.5 t154.5 153t91 207t32 228.5q0 194 -80.5 294.5t-237.5 100.5q-94 0 -175.5 -38.5t-138.5 -103t-97.5 -148.5t-60 -175t-19.5 -182z" />
<glyph unicode="P" horiz-adv-x="1249" d="M25 68l272 1335q15 70 84 70h305q87 0 160.5 -10.5t144.5 -38.5t120.5 -72t79.5 -115t30 -164q0 -129 -49 -230t-135 -164.5t-200 -96.5t-249 -33h-174l-99 -481q-14 -68 -79 -68h-156q-57 0 -57 47q0 10 2 21zM461 784h110q348 0 351 256q0 59 -20.5 99t-59.5 60.5 t-83.5 29t-103.5 8.5h-100z" />
<glyph unicode="Q" horiz-adv-x="1636" d="M109 588q0 142 34 275t102.5 248.5t165 201.5t230.5 135t289 49q283 0 441.5 -159.5t158.5 -454.5q0 -240 -90 -443.5t-258 -324.5l192 -256q18 -26 12 -43q-3 -31 -43 -31h-200q-40 0 -56.5 8t-37.5 37l-113 172q-115 -27 -217 -27q-285 0 -447.5 159.5t-162.5 453.5z M416 610q0 -191 84.5 -293t234.5 -102q22 0 58 4l-66 100q-17 25 -14 43q6 31 45 31h155q39 0 55.5 -8.5t37.5 -36.5l14 -20q98 92 151.5 237t53.5 297q0 194 -80.5 294.5t-237.5 100.5q-94 0 -175.5 -38.5t-138.5 -103t-97.5 -148.5t-60 -175t-19.5 -182z" />
<glyph unicode="R" horiz-adv-x="1290" d="M25 68l272 1335q15 70 84 70h344q87 0 158.5 -9t142.5 -34t119.5 -65t78.5 -107.5t31 -157.5v-8q1 -72 -17 -132q-18 -64 -49.5 -111.5t-75.5 -86.5t-90.5 -64t-100.5 -43l198 -575q8 -31 4 -45q-6 -35 -53 -35h-158q-46 0 -65.5 11t-28.5 46l-174 559h-217l-113 -548 q-14 -68 -79 -68h-156q-57 0 -57 47q0 10 2 21zM475 850h170q311 0 311 217q0 97 -64.5 133.5t-184.5 36.5h-152z" />
<glyph unicode="S" horiz-adv-x="1142" d="M17 72q-2 6 -2 14q0 16 8 37l43 129q16 49 59 49q15 0 29 -5.5t35.5 -16.5t37.5 -17q98 -37 183 -37q108 0 177.5 52.5t69.5 148.5q0 28 -6 52t-22 46.5t-29.5 38.5t-42 37t-44 31.5t-52 34t-51.5 32.5q-49 33 -84 63t-70 73.5t-53.5 99t-18.5 121.5q0 212 150 327 t397 115q70 0 159 -15t146 -42q32 -15 37 -32q1 -4 1 -10q0 -16 -11 -42l-51 -125q-18 -43 -56 -43q-15 0 -31 5.5t-40 16t-47 17.5q-61 20 -142 20q-94 0 -151.5 -48t-57.5 -122q0 -26 11 -50.5t24 -42.5t42 -42t47 -37t59 -40.5t59 -39.5q51 -34 88.5 -66.5t74 -78 t56 -102t19.5 -121.5q0 -104 -33.5 -188t-88 -138t-129.5 -90t-154 -51t-165 -15q-216 0 -344 64q-30 13 -36 33z" />
<glyph unicode="T" horiz-adv-x="1249" d="M168 1284l25 121q15 68 75 68h1012q50 0 50 -44q0 -11 -3 -24l-24 -121q-12 -65 -76 -65h-361l-235 -1153q-12 -66 -74 -66h-166q-52 0 -52 43q0 10 3 23l236 1153h-361q-31 -1 -43 15q-8 10 -8 29q0 9 2 21z" />
<glyph unicode="U" horiz-adv-x="1488" d="M109 434q0 78 22 193l160 778q12 68 78 68h163q51 0 51 -44q0 -11 -3 -24l-156 -766q-18 -95 -18 -156q0 -247 243 -247q150 0 242 96.5t133 298.5l158 774q15 68 78 68h165q51 0 51 -44q0 -11 -3 -24l-170 -827q-63 -309 -227.5 -456t-454.5 -147q-243 0 -377.5 120.5 t-134.5 338.5z" />
<glyph unicode="V" horiz-adv-x="1449" d="M180 1405v31q6 37 56 37h170q35 0 51.5 -16t19.5 -50l148 -1102h10l582 1102q19 35 42 50.5t58 15.5h190q42 0 42 -27q0 -5 -1 -10q0 -5 -14 -33l-748 -1335q-36 -68 -98 -68h-235q-58 0 -70 68z" />
<glyph unicode="W" horiz-adv-x="2115" d="M193 1399v37q6 37 51 37h166q32 0 46.5 -16t16.5 -50l66 -1102h6l475 1102q29 66 90 66h188q61 0 64 -66l49 -1102h8l488 1102q32 66 90 66h178q38 0 38 -28q0 -4 -1 -9q-4 -19 -14 -37l-619 -1331q-30 -68 -88 -68h-240q-60 0 -63 68l-60 970h-8l-432 -970 q-28 -68 -90 -68h-236q-55 0 -61 68z" />
<glyph unicode="X" horiz-adv-x="1402" d="M-94 35q6 18 20 35l631 696l-315 635q-9 18 -6 35q5 37 53 37h190q38 0 53.5 -12.5t28.5 -47.5l193 -434l368 430q21 25 33 36t31.5 19.5t44.5 8.5h199q21 -1 32 -9q9 -7 9 -19q0 -3 -1 -7q-6 -18 -22 -37l-576 -633l347 -696q9 -20 6 -37q-6 -35 -54 -35h-190 q-37 0 -52 11.5t-30 45.5l-223 500l-426 -496q-29 -34 -49.5 -47.5t-57.5 -13.5h-198q-20 0 -31 8q-9 7 -9 20q0 3 1 7z" />
<glyph unicode="Y" horiz-adv-x="1429" d="M172 1436q6 37 53 37h178q39 0 54 -12t28 -46l226 -573l463 573q28 34 47 46t57 12h205q20 0 31 -9q9 -8 9 -21q0 -3 -1 -7q-7 -18 -23 -37l-686 -815l-106 -516q-12 -68 -78 -68h-156q-57 0 -57 47q0 10 2 21l106 526l-348 805q-6 17 -6 27q0 6 2 10z" />
<glyph unicode="Z" horiz-adv-x="1202" d="M-68 70l21 110q9 40 22 62.5t45 56.5l842 920h-606q-57 0 -57 50q0 9 2 19l24 115q15 70 82 70h907q55 0 55 -47q0 -10 -3 -23l-23 -113q-7 -37 -20 -59.5t-45 -59.5l-844 -919h645q35 0 48 -16.5t5 -51.5l-22 -114q-14 -70 -82 -70h-944q-54 0 -54 48q0 10 2 22z" />
<glyph unicode="[" horiz-adv-x="776" d="M18 -242l359 1749q15 70 84 70h393q66 0 51 -70l-20 -100q-14 -68 -80 -68h-178l-289 -1411h178q66 0 51 -69l-20 -101q-14 -67 -80 -67h-393q-35 0 -48.5 16t-7.5 51z" />
<glyph unicode="\" horiz-adv-x="694" d="M193 1462q8 35 51 35h114q46 0 52 -49l176 -1387q4 -35 2 -51q-8 -35 -51 -35h-115q-45 0 -51 50l-176 1386q-4 35 -2 51z" />
<glyph unicode="]" horiz-adv-x="753" d="M-63 -242l18 101q15 69 78 69h178l291 1411h-178q-66 0 -54 68l23 100q12 70 80 70h393q67 0 55 -70l-358 -1749q-14 -67 -84 -67h-393q-63 0 -49 67z" />
<glyph unicode="^" horiz-adv-x="1261" d="M121 686q2 9 7 18.5t17.5 26.5t16.5 23l469 655q44 64 102 64h115q63 0 76 -64l202 -655q2 -7 7 -25t5 -22.5t-1 -20.5q-6 -43 -56 -43h-110q-32 0 -49.5 14.5t-26.5 49.5l-145 495l-349 -495q-25 -35 -47.5 -49.5t-54.5 -14.5h-139q-49 0 -39 43z" />
<glyph unicode="_" horiz-adv-x="845" d="M-131 -344l4 22q15 66 76 66h846q62 0 47 -66l-4 -22q-14 -68 -76 -68h-844q-63 0 -49 68z" />
<glyph unicode="`" horiz-adv-x="622" d="M131 1509q0 37 43 37h139q40 0 63.5 -14.5t47.5 -48.5l137 -217q12 -15 12 -35q0 -33 -49 -33h-67q-37 0 -58 9.5t-51 41.5l-192 211q-25 25 -25 49z" />
<glyph unicode="a" horiz-adv-x="1347" d="M94 436q0 127 38.5 243t108 205t174.5 142t230 53q245 0 346 -153h10l13 63q12 66 76 66h155q49 0 49 -46q0 -9 -2 -20l-190 -923q-12 -66 -74 -66h-145q-51 0 -51 46q0 9 2 20l14 63h-10q-128 -154 -326 -154q-200 0 -309 128.5t-109 332.5zM385 459v-8q0 -115 57 -183 q59 -71 172 -71q59 0 110 25t86.5 66t61 94t38 109t12.5 111q0 114 -58 185t-166 71q-73 0 -133.5 -35t-98.5 -92.5t-59 -127.5t-22 -144z" />
<glyph unicode="b" horiz-adv-x="1331" d="M41 66l299 1452q12 67 76 67h155q49 0 49 -46q0 -9 -2 -21l-120 -592h8q61 74 138 113.5t187 39.5q191 0 298.5 -125.5t107.5 -335.5q0 -171 -65.5 -317t-191.5 -237t-288 -91q-237 0 -348 168h-8l-17 -75q-15 -66 -75 -66h-154q-51 0 -51 46q0 9 2 20zM416 451 q0 -111 59.5 -183.5t165.5 -72.5q73 0 132.5 35t96.5 93t57 128.5t21 146.5v8q0 114 -57 182q-59 70 -172 70q-71 0 -130.5 -37.5t-96 -98t-56.5 -131t-20 -140.5z" />
<glyph unicode="c" horiz-adv-x="1028" d="M80 449q0 284 185 457t499 173q53 0 126.5 -10t117.5 -29q25 -11 31 -28q2 -7 2 -15q0 -12 -5 -28l-28 -101q-11 -41 -52 -41q-11 0 -72 17.5t-122 17.5q-94 0 -170 -32.5t-123.5 -88.5t-72.5 -126.5t-25 -149.5q0 -125 72 -198.5t214 -73.5q59 0 123 16t74 16 q20 0 27.5 -8.5t3.5 -32.5l-19 -116q-3 -23 -16.5 -36t-44.5 -24q-90 -33 -242 -33q-75 0 -144.5 18t-131.5 56t-108 93t-72.5 134t-26.5 173z" />
<glyph unicode="d" horiz-adv-x="1329" d="M80 436q0 127 39 243t108 205t173.5 142t226.5 53q237 0 344 -151h8l121 590q12 67 76 67h155q49 0 49 -46q0 -9 -2 -21l-297 -1452q-15 -66 -73 -66h-134q-52 0 -52 43q0 10 3 23l11 51h-11q-65 -73 -137 -107.5t-184 -34.5q-134 0 -231.5 61t-145 164t-47.5 236z M371 457v-8q0 -113 57 -181q59 -70 172 -71q95 0 167.5 65t106 155.5t33.5 184.5q0 111 -57.5 183.5t-163.5 72.5q-99 0 -172 -60.5t-107.5 -150t-35.5 -190.5z" />
<glyph unicode="e" horiz-adv-x="1189" d="M80 453q0 178 75 320.5t212 224t311 81.5q242 0 354 -146q83 -108 83 -281q0 -62 -11 -132q-9 -69 -92 -69h-652v-7q0 -128 67 -196q69 -70 206 -70q73 0 137 14t104 27.5t56 13.5q34 0 31 -40l-13 -103q-3 -28 -17.5 -43t-49.5 -27q-124 -45 -297 -45 q-131 0 -230.5 39.5t-158 108t-87 151.5t-28.5 179zM385 629h481q2 20 2 39q0 84 -40 139q-49 67 -156 67q-103 0 -181 -67.5t-106 -177.5z" />
<glyph unicode="f" horiz-adv-x="821" d="M88 909l16 80q15 66 76 66h168l33 157q78 398 455 398q78 0 131 -17q24 -9 29 -23q2 -5 2 -13q0 -11 -5 -27l-26 -103q-12 -45 -49 -45q-15 0 -40.5 4.5t-50.5 4.5q-69 0 -112.5 -50t-65.5 -155l-26 -131h206q51 0 51 -43q0 -10 -3 -23l-17 -80q-12 -65 -74 -65h-206 l-160 -778q-15 -66 -74 -66h-156q-52 0 -52 43q0 10 3 23l160 778h-164q-51 0 -51 45q0 9 2 20z" />
<glyph unicode="g" horiz-adv-x="1353" d="M80 -467q-3 7 -3 16q0 15 7 37l31 99q15 45 55 45q17 0 54.5 -18t100 -36t140.5 -18q145 0 224.5 77.5t117.5 254.5l29 139q-64 -65 -138 -97t-172 -32q-201 0 -311.5 125t-110.5 324q0 124 39.5 238.5t109.5 201t174.5 138.5t227.5 52q240 0 344 -161h7l16 71 q12 66 76 66h145q49 0 49 -46q0 -9 -2 -20l-207 -1005q-61 -291 -205.5 -416t-433.5 -125q-81 0 -170 15.5t-147 39.5q-40 17 -47 35zM395 475q0 -125 59 -190.5t164 -65.5q134 0 224 113t90 276q0 125 -60 191.5t-159 66.5q-97 0 -171.5 -57t-110.5 -144.5t-36 -189.5z" />
<glyph unicode="h" horiz-adv-x="1300" d="M41 66l299 1452q12 67 76 67h155q49 0 49 -46q0 -9 -2 -21l-124 -607h8q78 88 162 128t194 40q167 0 242.5 -95.5t75.5 -258.5q0 -82 -27 -225l-90 -434q-12 -66 -74 -66h-156q-51 0 -51 46q0 9 2 20l94 454q19 93 19 154q0 172 -158 172q-118 0 -208 -104.5t-124 -272.5 l-84 -403q-12 -66 -73 -66h-156q-51 0 -51 46q0 9 2 20z" />
<glyph unicode="i" horiz-adv-x="565" d="M43 66l188 923q15 66 76 66h156q50 0 50 -43q0 -10 -3 -23l-188 -923q-15 -66 -74 -66h-156q-52 0 -52 43q0 10 3 23zM301 1419q1 66 49 113t113 47q67 0 111 -47q43 -45 42 -107v-6q-1 -66 -50 -112.5t-115 -46.5q-65 0 -109 46q-41 44 -41 105v8z" />
<glyph unicode="j" horiz-adv-x="563" d="M-299 -483l31 100q9 30 22 42.5t39 12.5q6 0 22.5 -2t30.5 -2q64 0 99.5 56.5t60.5 173.5l223 1091q15 66 76 66h156q50 0 50 -43q0 -10 -3 -23l-223 -1091q-23 -113 -57 -194.5t-86.5 -141.5t-127.5 -89.5t-176 -29.5q-65 0 -104 10q-25 6 -33 21q-4 7 -4 17.5t4 25.5z M299 1419q1 66 49 113t113 47q66 0 111 -47q42 -45 42 -107v-6q-1 -66 -50 -112.5t-115 -46.5q-65 0 -109 46q-41 44 -41 105v8z" />
<glyph unicode="k" horiz-adv-x="1146" d="M43 66l297 1452q15 67 76 67h155q50 0 50 -43q0 -11 -3 -24l-186 -908l422 400q30 28 47.5 36.5t56.5 8.5h209q22 1 32 -9q8 -7 8 -18q0 -3 -1 -6q-3 -17 -20 -31l-481 -434l319 -487q12 -19 12 -39q-3 -31 -49 -31h-192q-40 0 -55 8.5t-29 34.5l-295 481l-94 -458 q-12 -66 -74 -66h-156q-52 0 -52 43q0 10 3 23z" />
<glyph unicode="l" horiz-adv-x="638" d="M100 274q0 81 31 232l207 1012q15 67 74 67h155q52 0 52 -44q0 -10 -3 -23l-217 -1065q-20 -90 -20 -138q0 -102 88 -102q22 0 45 3t35 3q23 0 30 -12.5t1 -40.5l-21 -107q-7 -24 -17.5 -36t-37.5 -19q-55 -18 -144 -18q-258 0 -258 288z" />
<glyph unicode="m" horiz-adv-x="1927" d="M43 66l188 923q15 66 74 66h148q52 0 52 -43q0 -10 -3 -23l-17 -80h7q143 170 344 170q120 0 185.5 -58.5t86.5 -152.5h8q74 96 169.5 153.5t230.5 57.5q149 0 217.5 -91t68.5 -247q0 -93 -30 -239l-89 -436q-15 -66 -75 -66h-156q-50 0 -50 43q0 10 3 23l92 452 q23 121 23 166q0 162 -129 162q-64 0 -116.5 -31t-88.5 -85.5t-61 -119t-40 -141.5l-81 -403q-15 -66 -76 -66h-156q-50 0 -50 43q0 10 3 23l92 452q23 121 23 166q0 162 -129 162q-116 0 -193 -101.5t-110 -265.5l-86 -413q-12 -66 -76 -66h-156q-49 0 -49 46q0 9 2 20z " />
<glyph unicode="n" horiz-adv-x="1302" d="M43 66l188 923q15 66 74 66h148q52 0 52 -43q0 -10 -3 -23l-15 -78h11q78 86 165.5 127t196.5 41q167 0 242.5 -95.5t75.5 -258.5q0 -82 -27 -225l-90 -434q-12 -66 -74 -66h-156q-51 0 -51 46q0 9 2 20l95 454q18 88 18 154q0 172 -158 172q-119 0 -208.5 -104.5 t-125.5 -272.5l-81 -403q-12 -66 -76 -66h-156q-49 0 -49 46q0 9 2 20z" />
<glyph unicode="o" horiz-adv-x="1327" d="M80 442q0 131 46.5 247.5t129 203t205 136.5t266.5 50q225 0 365.5 -123t140.5 -340q0 -145 -51 -266.5t-138.5 -203t-206 -126.5t-253.5 -45q-81 0 -154 17.5t-137.5 54.5t-111.5 91t-74 132t-27 172zM373 467q0 -114 62.5 -194t178.5 -80q143 0 234.5 117t91.5 278 q0 47 -13.5 93t-41 87.5t-77 67.5t-112.5 26q-75 0 -138 -35.5t-102.5 -92.5t-61 -126.5t-21.5 -140.5z" />
<glyph unicode="p" horiz-adv-x="1333" d="M-68 -465l297 1454q15 66 74 66h148q52 0 52 -43q0 -10 -3 -23l-15 -80h7q49 77 134 123.5t203 46.5q190 0 300 -129.5t110 -331.5q0 -127 -39 -243t-109 -205t-174.5 -142t-226.5 -53q-238 0 -346 164h-10l-123 -604q-12 -65 -74 -65h-155q-52 0 -52 46q0 8 2 19z M412 453q0 -111 59.5 -183.5t167.5 -72.5q73 0 132.5 35t96.5 92.5t57 128t21 145.5v8q0 113 -56 182q-59 70 -173 70q-72 0 -132 -37.5t-96.5 -97.5t-56.5 -130.5t-20 -139.5z" />
<glyph unicode="q" horiz-adv-x="1325" d="M80 436q0 127 39 243t108 205t173.5 142t226.5 53q114 0 202.5 -41t141.5 -118h14l14 69q12 66 76 66h148q49 0 49 -46q0 -9 -2 -20l-256 -1247l129 84q27 18 47 18q24 0 39 -30l43 -82q5 -14 5 -26q0 -4 -1 -9q-6 -30 -45 -53l-275 -156q-35 -18 -77 -18h-138 q-32 0 -43.5 15.5t-5.5 49.5l115 557q-65 -60 -137 -88.5t-168 -28.5q-134 0 -231 61t-144 164t-47 236zM371 457v-8q0 -113 57 -181q60 -71 174 -71q72 0 132 37.5t96.5 97.5t56.5 130.5t20 139.5q0 111 -57.5 183.5t-163.5 72.5q-99 0 -172 -60.5t-107.5 -150 t-35.5 -190.5z" />
<glyph unicode="r" horiz-adv-x="833" d="M43 66l188 923q15 66 74 66h148q52 0 52 -43q0 -10 -3 -23l-17 -80h9q67 91 138 131.5t169 40.5q64 0 94 -10q17 -7 24 -20q4 -7 4 -18q0 -10 -3 -23l-27 -125q-11 -56 -64 -56q-10 0 -42.5 5.5t-63.5 5.5q-124 0 -204 -100t-113 -263l-84 -411q-12 -66 -76 -66h-156 q-49 0 -49 46q0 9 2 20z" />
<glyph unicode="s" horiz-adv-x="935" d="M23 102l28 97q16 47 60 47q14 0 44.5 -16t80 -32t108.5 -16q172 0 172 109q0 25 -11 46.5t-35 41t-45 33t-59 35t-59 34.5q-77 48 -122.5 112t-45.5 161q0 152 112 238.5t298 86.5q164 0 278 -49q27 -14 33 -26q2 -4 2 -10q0 -11 -6 -29l-39 -97q-17 -41 -53 -41 q-17 0 -46 11.5t-72.5 23.5t-96.5 12q-69 0 -105 -27.5t-36 -72.5q0 -23 11 -43t35 -39.5t46 -33.5t59 -35.5t59 -36.5q79 -50 124.5 -111.5t45.5 -150.5q0 -90 -34 -158.5t-95 -109.5t-138 -61t-169 -20q-202 0 -303 56q-32 16 -32 45q0 12 6 26z" />
<glyph unicode="t" horiz-adv-x="827" d="M98 909l17 80q15 66 75 66h144l55 268q14 68 76 68h156q50 0 50 -45q0 -10 -3 -23l-56 -268h193q51 0 51 -46q0 -9 -2 -20l-16 -80q-14 -65 -76 -65h-193l-90 -445q-12 -53 -12 -92t12 -63q23 -49 92 -49q29 0 61 4t42 4q36 0 26 -45l-20 -105q-6 -28 -16 -40t-35 -19 q-70 -19 -150 -19q-103 0 -169.5 33.5t-93.5 93.5q-26 58 -30 140q0 11 -1 22q0 72 20 156l86 424h-144q-51 0 -51 45q0 9 2 20z" />
<glyph unicode="u" horiz-adv-x="1302" d="M113 328q0 90 26 227l90 434q12 66 74 66h156q51 0 51 -46q0 -9 -2 -20l-94 -454q-19 -93 -19 -154q0 -172 158 -172q119 0 209.5 104.5t124.5 272.5l82 403q12 66 75 66h156q49 0 49 -46q0 -9 -2 -20l-188 -923q-15 -66 -74 -66h-147q-53 0 -53 44q0 10 3 22l15 77h-10 q-78 -87 -164.5 -127.5t-194.5 -40.5q-161 0 -241 98t-80 255z" />
<glyph unicode="v" horiz-adv-x="1134" d="M186 1055h158q35 0 52 -15t22 -49l78 -719h12l375 719q17 34 40 49t58 15h162q42 0 42 -27q0 -5 -1 -10q-1 -6 -8 -19.5t-9 -17.5l-526 -913q-41 -68 -96 -68h-193q-58 0 -67 68l-152 913q-4 26 -4 34q0 40 57 40z" />
<glyph unicode="w" horiz-adv-x="1736" d="M129 975q-2 12 -1.5 22.5t1.5 20.5q6 37 55 37h152q36 0 53 -15t17 -49l30 -717h6l336 717q18 34 39.5 49t56.5 15h175q35 0 51 -15t18 -49l39 -717h8l326 717q27 64 96 64h156q25 1 35 -9q6 -6 6 -17q0 -5 -2 -11q-1 -7 -8 -23t-9 -20l-460 -907q-35 -68 -97 -68h-176 q-61 0 -67 68l-56 704l-344 -704q-35 -68 -96 -68h-184q-65 0 -68 68z" />
<glyph unicode="x" horiz-adv-x="1120" d="M-51 33q4 21 22 37l437 471l-226 444q-11 21 -6 35q6 35 53 35h168q37 0 51.5 -11.5t30.5 -48.5l115 -260l215 260q31 37 51 48.5t58 11.5h169q21 -1 33 -9q9 -7 9 -19q0 -3 -1 -7q-5 -14 -22 -35l-397 -432l245 -483q9 -26 7 -37q-6 -33 -56 -33h-164q-38 0 -53 11.5 t-29 47.5l-135 301l-248 -301q-30 -35 -52.5 -47t-59.5 -12h-176q-22 0 -32 8q-8 6 -8 18q0 3 1 7z" />
<glyph unicode="y" horiz-adv-x="1136" d="M14 -518q3 14 19 37l276 444l-180 1018q-4 16 -4 29q3 45 57 45h160q35 0 52 -15t22 -49l84 -706h12l375 706q17 34 40 49t58 15h158q41 0 41 -29q0 -11 -17 -45l-854 -1473q-19 -33 -41.5 -48t-56.5 -15h-158q-25 0 -35 9q-9 7 -9 20q0 4 1 8z" />
<glyph unicode="z" horiz-adv-x="1030" d="M-39 66l16 84q11 53 46 88l624 596h-436q-50 0 -50 44q0 10 3 23l16 88q15 66 78 66h729q49 0 49 -46q0 -9 -2 -20l-16 -84q-12 -57 -51 -96l-627 -588h498q51 0 51 -47q0 -9 -2 -20l-19 -88q-15 -66 -75 -66h-783q-52 0 -52 43q0 10 3 23z" />
<glyph unicode="{" horiz-adv-x="872" d="M127 588l18 92q5 26 25.5 46.5t52.5 27.5q69 15 106.5 68t59.5 159l53 254q36 174 142 258t268 84h96q66 0 51 -70l-18 -90q-14 -69 -76 -69h-31q-71 0 -109.5 -45.5t-59.5 -147.5l-46 -215q-51 -251 -235 -301l-2 -8q165 -50 113 -301l-46 -215q-20 -102 1 -147.5 t92 -45.5h30q62 0 47 -69l-18 -91q-8 -37 -26.5 -53t-53.5 -16h-96q-162 0 -233 84t-35 258l51 254q23 102 6 156t-80 71q-29 7 -40.5 27t-6.5 45z" />
<glyph unicode="|" horiz-adv-x="460" d="M168 -242v1751q0 68 63 68h146q63 0 63 -68v-1751q0 -65 -63 -65h-146q-63 0 -63 65z" />
<glyph unicode="}" horiz-adv-x="872" d="M-63 -238l18 91q12 69 74 69h28q71 0 111.5 45.5t60.5 147.5l45 215q52 251 238 301l2 8q-166 50 -115 301l45 215q20 101 -1.5 147t-92.5 46h-28q-32 0 -43.5 16t-4.5 53l19 90q15 70 80 70h98q162 0 233 -84t35 -258l-53 -254q-23 -102 -6 -157t80 -70q58 -14 47 -74 l-19 -92q-5 -25 -25 -45t-52 -27q-69 -17 -106.5 -69.5t-59.5 -157.5l-51 -254q-36 -174 -142 -258t-268 -84h-98q-33 0 -44.5 16.5t-4.5 52.5z" />
<glyph unicode="~" horiz-adv-x="1193" d="M145 500q0 32 23 71q79 131 235 131q56 0 120 -21t111 -46.5t102.5 -46.5t97.5 -21q77 0 124 84q20 33 48 33q30 0 45 -31l28 -51q13 -26 13 -49q0 -28 -23 -72q-82 -131 -235 -131q-56 0 -120 21t-111 46.5t-102.5 46.5t-97.5 21q-77 0 -127 -84q-19 -32 -45 -32 q-29 0 -47 30l-26 52q-13 26 -13 49z" />
<glyph unicode="&#xa1;" horiz-adv-x="739" d="M76 -356q2 6 8.5 32.5t12 51t9.5 41.5l189 766q14 65 76 65h104q61 0 49 -65l-129 -766q-7 -73 -20 -125q-12 -62 -74 -62h-174q-63 0 -51 62zM326 915q1 67 51.5 115.5t118.5 48.5q67 0 113 -48t44 -116q-3 -68 -52.5 -116.5t-115.5 -48.5q-69 0 -115.5 48.5 t-43.5 116.5z" />
<glyph unicode="&#xa2;" horiz-adv-x="1040" d="M88 449q0 256 152 424t417 200l27 129q12 66 76 66h110q57 0 45 -66l-26 -131q79 -10 127 -31q25 -11 31 -28t-3 -43l-28 -101q-11 -41 -51 -41q-11 0 -72.5 17.5t-122.5 17.5q-94 0 -170 -32.5t-123.5 -88.5t-72.5 -126.5t-25 -149.5q0 -125 72.5 -198.5t214.5 -73.5 q59 0 122.5 16t73.5 16q20 0 27.5 -8.5t3.5 -32.5l-19 -116q-3 -23 -16.5 -36t-44.5 -24q-60 -21 -147 -28l-25 -119q-15 -66 -74 -66h-110q-62 0 -47 66l26 131q-153 36 -250.5 152.5t-97.5 304.5z" />
<glyph unicode="&#xa3;" horiz-adv-x="1431" d="M145 68l25 116q12 70 82 70h119l82 393h-127q-62 0 -50 68l19 86q15 67 76 67h127l28 144q46 222 218 352.5t432 130.5q115 0 188 -16q68 -15 51 -80l-31 -115q-14 -49 -57 -49q-15 0 -69.5 11t-110.5 11q-147 0 -228.5 -79t-115.5 -236l-15 -74h271q62 0 47 -67l-19 -86 q-12 -68 -73 -68h-271l-81 -393h436q66 0 51 -70l-23 -116q-14 -68 -79 -68h-846q-68 0 -56 68z" />
<glyph unicode="&#xa5;" horiz-adv-x="1431" d="M113 328l14 71q15 66 76 66h350l27 129l-15 39h-327q-62 0 -48 67l15 70q12 68 74 68h204l-231 561q-9 26 -4 37q6 37 51 37h201q40 0 55.5 -12t26.5 -46l198 -555l428 555q29 35 47.5 46.5t57.5 11.5h205q20 0 30.5 -9.5t7.5 -27.5q-8 -20 -22 -37l-463 -561h199 q61 0 49 -68l-14 -70q-14 -67 -78 -67h-320l-39 -49l-24 -119h348q64 0 49 -66l-14 -71q-12 -66 -76 -66h-348l-41 -194q-12 -68 -78 -68h-156q-69 0 -55 68l39 194h-350q-61 0 -49 66z" />
<glyph unicode="&#xa6;" horiz-adv-x="460" d="M168 -242v658q0 67 63 67h146q63 0 63 -67v-658q0 -67 -63 -67h-146q-63 0 -63 67zM168 852v657q0 68 63 68h146q63 0 63 -68v-657q0 -68 -63 -68h-146q-63 0 -63 68z" />
<glyph unicode="&#xa7;" horiz-adv-x="1220" d="M72 -135l39 110q13 41 47 41q19 0 52 -19t86.5 -38.5t123.5 -19.5q84 0 146.5 32.5t76.5 102.5q6 28 -1.5 51.5t-20 40t-46.5 38t-59 34t-80 38.5q-131 61 -184 134.5t-27 201.5q38 181 224 283q-63 46 -86.5 110.5t-4.5 157.5q22 110 96 186t177 111t227 35 q167 0 272 -47q23 -11 27.5 -27t-4.5 -37l-49 -112q-14 -33 -43 -33q-21 0 -50 13.5t-75 27.5t-109 14q-76 0 -129 -30t-63 -80q-6 -33 3 -58.5t44.5 -51t63 -39.5t95.5 -46q11 -5 17 -8q129 -62 176.5 -143t24.5 -199q-21 -92 -80.5 -165t-136.5 -114q118 -97 84 -268 q-15 -75 -54.5 -135.5t-92.5 -100t-119.5 -66.5t-134.5 -38.5t-140 -11.5q-177 0 -289 59q-37 22 -24 66zM477 655q-7 -37 2 -65.5t39.5 -53t63.5 -42t92 -43.5q46 23 80.5 62t44.5 87q14 69 -29 111.5t-149 91.5q-54 -22 -94.5 -63.5t-49.5 -84.5z" />
<glyph unicode="&#xa8;" horiz-adv-x="622" d="M98 1370q1 60 45 103t103 43q60 0 100.5 -43t38.5 -103q-3 -59 -47 -101t-102 -42t-99 42t-39 101zM510 1370q1 60 44.5 103t100.5 43q60 0 101 -43t39 -103q-2 -59 -46 -101t-104 -42q-58 0 -98 42t-37 101z" />
<glyph unicode="&#xa9;" horiz-adv-x="1792" d="M92 735q0 159 60.5 300.5t164.5 242.5t248 160t305 59t305.5 -59t248 -160t164.5 -243t61 -300t-61 -299.5t-165 -242.5t-248 -159.5t-305 -58.5t-305 58.5t-248 159.5t-164.5 242.5t-60.5 299.5zM252 735q0 -169 81.5 -309t223 -219.5t313.5 -79.5q128 0 243 47 t197.5 127.5t130.5 193.5t48 240q0 169 -81.5 309.5t-224 221t-313.5 80.5t-313 -80.5t-223.5 -221t-81.5 -309.5zM434 731q0 212 131.5 331.5t356.5 119.5q104 0 176 -21q32 -8 45 -21.5t10 -41.5l-6 -70q-2 -41 -41 -41q-14 0 -69 14.5t-107 14.5q-129 0 -213 -79 t-84 -206q0 -125 88.5 -199.5t220.5 -74.5q53 0 106 14t66 14q39 0 41 -43l6 -69q3 -28 -10.5 -42t-44.5 -22q-78 -20 -182 -20q-101 0 -188.5 27.5t-155.5 81t-107 139t-39 194.5z" />
<glyph unicode="&#xaa;" horiz-adv-x="919" d="M162 1069q0 105 45 201.5t132.5 161.5t197.5 65q68 0 110 -19t72 -57h8l6 21q8 41 55 41h93q39 0 39 -33q0 -6 -5 -31l-110 -538q-9 -47 -55 -47h-91q-41 0 -41 28q0 11 3 23l4 16h-9q-93 -84 -215 -84q-119 0 -179 70t-60 182zM362 1104q0 -61 32 -98t95 -37 q44 0 88.5 27.5t75.5 74.5l37 189q-12 41 -44.5 64.5t-78.5 23.5q-89 0 -147 -74.5t-58 -169.5z" />
<glyph unicode="&#xab;" horiz-adv-x="1298" d="M168 537q0 29 33 67l293 303q31 32 57 45t61 13h129q21 0 32 -10t11 -25q0 -25 -26 -51l-346 -338l192 -316q21 -30 21 -53q0 -35 -52 -35h-124q-35 0 -57 12.5t-40 45.5l-166 288q-18 27 -18 54zM637 537q0 31 31 67l295 303q31 33 56.5 45.5t61.5 12.5h127q21 0 32 -10 t11 -25q0 -25 -26 -51l-346 -338l194 -316q21 -35 21 -53q0 -35 -54 -35h-122q-35 0 -57.5 12.5t-39.5 45.5l-166 288q-18 27 -18 54z" />
<glyph unicode="&#xac;" horiz-adv-x="1345" d="M147 692l19 92q15 70 84 70h921q67 0 52 -70l-103 -501q-14 -68 -80 -68h-100q-69 0 -55 68l69 342h-751q-70 0 -56 67z" />
<glyph unicode="&#xad;" horiz-adv-x="759" d="M106 498l23 106q12 66 76 66h444q59 0 47 -66l-22 -106q-14 -68 -74 -68h-444q-64 0 -50 68z" />
<glyph unicode="&#xae;" horiz-adv-x="1794" d="M92 735q0 159 60.5 300.5t164.5 242.5t248 160t305 59t305.5 -59t248 -160t164.5 -243t61 -300t-61 -299.5t-165 -242.5t-248 -159.5t-305 -58.5t-305 58.5t-248 159.5t-164.5 242.5t-60.5 299.5zM252 735q0 -169 81.5 -309t223 -219.5t313.5 -79.5q128 0 243 47 t197.5 127.5t130.5 193.5t48 240q0 169 -81.5 309.5t-224 221t-313.5 80.5t-313 -80.5t-223.5 -221t-81.5 -309.5zM545 377v723q0 71 67 71h262q184 0 269.5 -60.5t85.5 -188.5q0 -203 -219 -244l196 -295q19 -23 19 -39t-15.5 -27.5t-40.5 -11.5h-61q-43 0 -63 8.5 t-35 34.5l-203 318h-76v-289q0 -72 -63 -72h-56q-67 0 -67 72zM731 813h139q31 0 52 1.5t45 8t39 18t24.5 32t9.5 49.5q0 102 -170 102h-139v-211z" />
<glyph unicode="&#xaf;" horiz-adv-x="608" d="M80 1309l12 63q15 66 76 66h541q61 0 49 -66l-13 -63q-15 -66 -75 -66h-541q-61 0 -49 66z" />
<glyph unicode="&#xb0;" horiz-adv-x="831" d="M213 1198q5 126 90.5 212.5t214.5 86.5t211.5 -86.5t77.5 -212.5t-91.5 -210.5t-217.5 -84.5q-128 0 -209 85t-76 210zM356 1198q-2 -65 39.5 -109.5t106.5 -44.5q67 0 113.5 44.5t48.5 109.5q2 68 -41.5 113t-110.5 45q-66 0 -111 -45.5t-45 -112.5z" />
<glyph unicode="&#xb1;" horiz-adv-x="1228" d="M137 66v106q0 68 62 68h913q62 0 62 -68v-106q0 -66 -62 -66h-913q-62 0 -62 66zM137 774v107q0 65 64 65h334v297q0 60 67 60h107q65 0 65 -60v-297h338q59 0 59 -65v-107q0 -67 -59 -67h-338v-293q0 -64 -65 -64h-107q-67 0 -67 64v293h-334q-64 0 -64 67z" />
<glyph unicode="&#xb2;" horiz-adv-x="837" d="M141 655l15 70q4 26 16.5 44t40.5 42q17 14 76 58.5t99.5 79t89 82t74.5 96.5t26 94q0 42 -26 65t-75 23q-52 0 -114 -18.5t-80 -18.5q-22 0 -29 12t-4 37l10 86q3 24 12.5 36t32.5 21q97 33 209 33q135 0 213 -63t78 -185q0 -55 -21.5 -110.5t-53.5 -100t-81 -93.5 t-90 -83.5t-95 -77.5q-9 -7 -13 -10h270q61 0 47 -65l-8 -50q-14 -65 -76 -65h-491q-62 0 -52 61z" />
<glyph unicode="&#xb3;" horiz-adv-x="843" d="M106.5 633.5q-5.5 13.5 2.5 42.5l20 80q12 39 49 39q13 0 62 -18.5t108 -18.5q80 0 126 30t46 86q0 40 -30.5 63.5t-88.5 23.5l-71 -3q-54 0 -43 58l14 67q9 52 59 52l58 -2q64 0 114 25.5t50 76.5q0 40 -27.5 60t-75.5 20q-56 0 -109.5 -16.5t-68.5 -16.5q-42 0 -39 47 l8 74q1 26 10 37.5t31 21.5q83 35 201 35q129 0 209 -58.5t80 -170.5q0 -83 -50 -139t-135 -80q117 -57 117 -177q0 -142 -107 -216t-280 -74q-152 0 -209 28q-25 10 -30.5 23.5z" />
<glyph unicode="&#xb4;" horiz-adv-x="630" d="M272 1231q2 14 19 35l180 217q28 34 55 48.5t70 14.5h162q41 0 35 -37q-3 -23 -33 -49l-238 -211q-33 -32 -55.5 -41.5t-60.5 -9.5h-91q-25 0 -35.5 8.5t-7.5 24.5z" />
<glyph unicode="&#xb5;" horiz-adv-x="1304" d="M-14 -465l299 1454q15 66 73 66h156q64 0 49 -66l-98 -481q-19 -96 -15.5 -162t40.5 -101.5t110 -35.5q127 0 216.5 99.5t123.5 269.5l84 411q15 66 76 66h155q63 0 48 -66l-189 -923q-15 -66 -74 -66h-147q-64 0 -49 66l16 88h-12q-80 -94 -172 -136.5t-205 -42.5 q-60 0 -111 21l-96 -461q-12 -65 -71 -65h-156q-63 0 -51 65z" />
<glyph unicode="&#xb6;" horiz-adv-x="1345" d="M225 1020q0 191 153 299t417 108h544q62 0 47 -67l-315 -1538q-15 -66 -74 -66h-100q-64 0 -49 66l287 1403h-191l-287 -1403q-15 -66 -73 -66h-101q-64 0 -49 66l174 856q-82 0 -149 18t-121 57t-83.5 107t-29.5 160z" />
<glyph unicode="&#xb8;" horiz-adv-x="622" d="M-8 -406q1 1 2.5 5.5t3.5 8.5t4 7l12 25q14 32 39 32q7 0 43.5 -15t75.5 -15q108 0 127 79q6 32 -14 50t-64 18q-16 0 -35 -2t-32 -2q-25 0 -32 12.5t-3 26.5q2 15 33 53l110 127h129l-117 -121q27 8 60 8q80 0 116 -44t21 -117q-14 -69 -64.5 -115t-111.5 -64t-131 -18 q-83 0 -146 29q-29 14 -26 32z" />
<glyph unicode="&#xb9;" horiz-adv-x="718" d="M324 645l157 770q12 62 70 62h111q63 0 47 -68l-156 -768q-7 -33 -24.5 -47t-47.5 -14h-106q-65 0 -51 65z" />
<glyph unicode="&#xba;" horiz-adv-x="876" d="M168 1155q33 160 149 251t273 91q161 0 240.5 -91t46.5 -251q-32 -158 -148.5 -248t-277.5 -90q-157 0 -236 90t-47 248zM373 1155q-16 -77 10 -132.5t98 -55.5q75 0 125.5 55.5t65.5 132.5q16 80 -11 136.5t-102 56.5q-71 0 -120.5 -56.5t-65.5 -136.5z" />
<glyph unicode="&#xbb;" horiz-adv-x="1298" d="M90 172q0 24 27 51l346 338l-193 313q-20 33 -20 54q0 37 51 37h125q34 0 55.5 -13t40.5 -45l166 -289q19 -33 19 -53q0 -34 -33 -67l-293 -303q-31 -32 -57.5 -45t-61.5 -13h-129q-43 0 -43 35zM559 172q0 24 27 51l346 338l-195 313q-20 38 -20 54q0 37 53 37h123 q65 0 96 -58l166 -289q19 -33 19 -53q0 -36 -31 -67l-295 -303q-31 -33 -57 -45.5t-62 -12.5h-127q-43 0 -43 35z" />
<glyph unicode="&#xbc;" horiz-adv-x="1927" d="M371 645l157 770q12 62 72 62h109q62 0 49 -68l-158 -768q-11 -61 -70 -61h-108q-63 0 -51 65zM391 -16q0 16 15 43l847 1446q13 25 31.5 35t48.5 10h66q41 0 41 -33q0 -16 -15 -41l-847 -1448q-23 -43 -80 -43h-66q-41 0 -41 31zM932 221l10 49q6 33 39 80l362 502 q18 26 37.5 35.5t49.5 9.5h129q39 0 32 -33q-4 -20 -20 -43l-361 -487h189l24 125q15 67 74 67h84q64 0 49 -67l-24 -125h57q59 0 47 -66l-10 -47q-14 -67 -76 -67h-57l-17 -88q-15 -66 -75 -66h-84q-63 0 -48 66l17 88h-381q-61 0 -47 67z" />
<glyph unicode="&#xbd;" horiz-adv-x="1927" d="M371 645l157 770q12 62 72 62h109q62 0 49 -68l-158 -768q-11 -61 -70 -61h-108q-63 0 -51 65zM391 -16q0 16 15 43l847 1446q13 25 31.5 35t48.5 10h66q41 0 41 -33q0 -16 -15 -41l-847 -1448q-23 -43 -80 -43h-66q-41 0 -41 31zM1098 61l14 70q4 26 16.5 44t40.5 42 q17 14 76 58.5t99.5 79t89 82t74.5 96.5t26 94q0 42 -25.5 65t-74.5 23q-52 0 -114.5 -18.5t-80.5 -18.5q-22 0 -29 12t-4 37l11 86q3 24 12.5 36t32.5 21q97 33 208 33q135 0 213 -63t78 -185q0 -55 -21.5 -110.5t-53.5 -100t-81 -93.5t-90 -83.5t-95 -77.5q-9 -7 -13 -10 h270q61 0 47 -65l-8 -49q-15 -66 -76 -66h-491q-61 0 -51 61z" />
<glyph unicode="&#xbe;" horiz-adv-x="2041" d="M220.5 633.5q-5.5 12.5 2.5 42.5l21 80q9 39 49 39q13 0 61 -18.5t107 -18.5q80 0 126 30t46 86q0 40 -30.5 63.5t-88.5 23.5l-70 -3q-29 0 -39.5 13.5t-3.5 44.5l13 67q12 52 59 52l59 -2q64 0 114 25.5t50 76.5q0 40 -28 60t-74 20q-56 0 -110 -16.5t-70 -16.5 q-19 0 -29.5 12t-7.5 35l6 74q3 26 12 37.5t29 21.5q85 35 203 35q128 0 207 -58.5t79 -170.5q0 -83 -49.5 -139t-134.5 -80q119 -58 119 -177q0 -142 -108 -216t-281 -74q-152 0 -209 28q-24 11 -29.5 23.5zM549 -16q0 18 14 43l848 1446q13 25 31.5 35t48.5 10h65 q41 0 41 -33q0 -18 -14 -41l-848 -1448q-23 -43 -80 -43h-65q-41 0 -41 31zM1077 221l13 53q7 37 36 76l363 502q18 26 37 35.5t49 9.5h129q40 0 33 -33q-4 -18 -21 -43l-360 -487h176l24 125q15 67 74 67h84q64 0 49 -67l-24 -125h57q59 0 47 -66l-10 -47q-14 -67 -76 -67 h-57l-17 -88q-15 -66 -75 -66h-84q-62 0 -47 66l16 88h-369q-61 0 -47 67z" />
<glyph unicode="&#xbf;" horiz-adv-x="1073" d="M31 -96q0 52 14.5 100.5t44 90.5t61 76.5t79 70t83.5 59.5t88 55q52 32 64 93l18 92q12 57 72 57h133q56 0 43 -66l-31 -143q-10 -66 -71 -113q-17 -13 -62.5 -45.5t-69 -50t-60 -49.5t-55 -57t-33.5 -58.5t-15 -66.5q0 -148 176 -154q67 -2 128 10t103 23.5t66 9.5 q16 0 23.5 -11t3.5 -32l-19 -127q-6 -33 -17.5 -47t-41.5 -24q-133 -42 -326 -39q-179 5 -289 96t-110 250zM504 915q1 67 52.5 115.5t119.5 48.5q67 0 112.5 -48t42.5 -116q-1 -67 -51 -116t-116 -49q-69 0 -115.5 48.5t-44.5 116.5z" />
<glyph unicode="&#xc0;" d="M-94 37q0 8 14 31l785 1337q40 68 100 68h217q57 0 70 -68l241 -1339q2 -10 2 -29q-9 -37 -57 -37h-172q-67 0 -76 63l-41 277h-610l-156 -277q-34 -63 -98 -63h-180q-24 0 -33.5 9t-5.5 28zM510 575h448l-92 615h-8zM645 1925q0 37 43 37h139q40 0 63.5 -15t47.5 -49 l137 -217q12 -15 12 -34q0 -33 -49 -33h-67q-37 0 -58 9.5t-51 41.5l-192 211q-25 25 -25 49z" />
<glyph unicode="&#xc1;" d="M-94 37q0 8 14 31l785 1337q40 68 100 68h217q57 0 70 -68l241 -1339q2 -10 2 -29q-9 -37 -57 -37h-172q-67 0 -76 63l-41 277h-610l-156 -277q-34 -63 -98 -63h-180q-24 0 -33.5 9t-5.5 28zM510 575h448l-92 615h-8zM618 1647q2 13 19 34l180 217q28 34 55.5 49t69.5 15 h162q41 0 35 -37q-3 -23 -33 -49l-238 -211q-33 -32 -55.5 -41.5t-60.5 -9.5h-90q-25 0 -36 8.5t-8 24.5z" />
<glyph unicode="&#xc2;" d="M-94 37q0 8 14 31l785 1337q40 68 100 68h217q57 0 70 -68l241 -1339q2 -10 2 -29q-9 -37 -57 -37h-172q-67 0 -76 63l-41 277h-610l-156 -277q-34 -63 -98 -63h-180q-24 0 -33.5 9t-5.5 28zM510 575h448l-92 615h-8zM553 1638q0 18 16 37l191 223q52 64 125 64h94 q38 0 57 -14.5t41 -49.5l125 -221q8 -13 8 -26q0 -37 -49 -37h-84q-34 0 -53.5 11t-38.5 42l-76 123l-125 -123q-30 -30 -55 -41.5t-59 -11.5h-76q-41 0 -41 24z" />
<glyph unicode="&#xc3;" d="M-94 37q0 8 14 31l785 1337q40 68 100 68h217q57 0 70 -68l241 -1339q2 -10 2 -29q-9 -37 -57 -37h-172q-67 0 -76 63l-41 277h-610l-156 -277q-34 -63 -98 -63h-180q-24 0 -33.5 9t-5.5 28zM510 575h448l-92 615h-8zM551 1683q20 96 88.5 160t171.5 64q51 0 99.5 -20.5 t87 -41t65.5 -20.5q49 0 70 49q22 39 69 39h55q49 0 37 -53q-18 -95 -87.5 -160.5t-172.5 -65.5q-50 0 -98.5 20.5t-87.5 41t-66 20.5q-28 0 -43 -12.5t-26 -34.5q-20 -41 -70 -41h-55q-49 0 -37 55z" />
<glyph unicode="&#xc4;" d="M-94 37q0 8 14 31l785 1337q40 68 100 68h217q57 0 70 -68l241 -1339q2 -10 2 -29q-9 -37 -57 -37h-172q-67 0 -76 63l-41 277h-610l-156 -277q-34 -63 -98 -63h-180q-24 0 -33.5 9t-5.5 28zM510 575h448l-92 615h-8zM598 1786q1 60 44.5 102.5t102.5 42.5 q60 0 101 -42.5t39 -102.5q-3 -59 -47.5 -101.5t-102.5 -42.5t-98.5 42.5t-38.5 101.5zM1010 1786q1 60 44.5 102.5t100.5 42.5q60 0 100.5 -42.5t38.5 -102.5q-2 -59 -45.5 -101.5t-103.5 -42.5q-58 0 -98 42.5t-37 101.5z" />
<glyph unicode="&#xc5;" d="M-94 37q0 8 14 31l785 1337q40 68 100 68h217q57 0 70 -68l241 -1339q2 -10 2 -29q-9 -37 -57 -37h-172q-67 0 -76 63l-41 277h-610l-156 -277q-34 -63 -98 -63h-180q-24 0 -33.5 9t-5.5 28zM510 575h448l-92 615h-8zM729 1788q3 93 67 157t158 64q96 0 157 -64t58 -157 t-68 -156t-161 -63q-94 0 -154 63t-57 156zM842 1788q-2 -45 27.5 -76t74.5 -31q46 0 78.5 31.5t34.5 75.5q0 46 -30 77t-77 31q-45 0 -75.5 -31t-32.5 -77z" />
<glyph unicode="&#xc6;" horiz-adv-x="1998" d="M-94 37q3 16 18 37l1022 1331q52 68 123 68h909q67 0 52 -70l-23 -105q-12 -69 -78 -69h-518l-70 -346h463q34 0 45.5 -16.5t5.5 -53.5l-22 -102q-12 -70 -80 -70h-463l-82 -399h518q66 0 52 -70l-23 -104q-12 -68 -78 -68h-739q-69 0 -55 68l55 272h-475l-207 -277 q-25 -33 -48 -48t-58 -15h-203q-50 0 -41 37zM635 575h352l129 631h-10z" />
<glyph unicode="&#xc7;" horiz-adv-x="1388" d="M109 643q0 80 13.5 160t44.5 165t78 161t119.5 144t163 117t214 78t266.5 29q201 0 327 -49q26 -9 31.5 -24.5t-2.5 -49.5l-33 -125q-9 -43 -45 -43q-20 0 -61.5 12t-104 24.5t-133.5 12.5q-137 0 -248 -49t-181.5 -133t-108 -192.5t-37.5 -231.5q0 -206 114 -322 t295 -116q72 0 137.5 14.5t108.5 28.5t61 14q42 0 37 -45l-18 -127q-6 -40 -16.5 -53.5t-49.5 -26.5q-127 -41 -313 -41q-194 0 -341 75t-232.5 227.5t-85.5 365.5zM442 -406q9 18 11 21l12 25q14 32 39 32q7 0 43.5 -15t75.5 -15q108 0 127 79q6 32 -14 50t-64 18 q-16 0 -35.5 -2t-32.5 -2q-25 0 -32 12.5t-3 26.5q2 15 33 53l111 127h129l-117 -121q27 8 59 8q81 0 117 -44t21 -117q-20 -100 -109 -148.5t-199 -48.5q-82 0 -145 29q-30 15 -27 32z" />
<glyph unicode="&#xc8;" horiz-adv-x="1161" d="M25 68l272 1335q15 70 84 70h760q66 0 51 -70l-23 -105q-12 -69 -77 -69h-539l-70 -346h484q33 0 45 -16.5t6 -53.5l-23 -102q-12 -70 -80 -70h-483l-82 -399h539q34 0 46 -16.5t5 -53.5l-22 -104q-12 -68 -78 -68h-760q-69 0 -55 68zM543 1925q0 37 43 37h139 q40 0 63.5 -15t47.5 -49l137 -217q12 -15 12 -34q0 -33 -49 -33h-68q-37 0 -57 9.5t-51 41.5l-193 211q-24 24 -24 49z" />
<glyph unicode="&#xc9;" horiz-adv-x="1161" d="M25 68l272 1335q15 70 84 70h760q66 0 51 -70l-23 -105q-12 -69 -77 -69h-539l-70 -346h484q33 0 45 -16.5t6 -53.5l-23 -102q-12 -70 -80 -70h-483l-82 -399h539q34 0 46 -16.5t5 -53.5l-22 -104q-12 -68 -78 -68h-760q-69 0 -55 68zM584 1647q2 15 18 34l180 217 q28 34 55.5 49t69.5 15h162q41 0 35 -37q-3 -23 -33 -49l-237 -211q-33 -31 -56 -41t-61 -10h-90q-25 0 -35.5 8.5t-7.5 24.5z" />
<glyph unicode="&#xca;" horiz-adv-x="1161" d="M25 68l272 1335q15 70 84 70h760q66 0 51 -70l-23 -105q-12 -69 -77 -69h-539l-70 -346h484q33 0 45 -16.5t6 -53.5l-23 -102q-12 -70 -80 -70h-483l-82 -399h539q34 0 46 -16.5t5 -53.5l-22 -104q-12 -68 -78 -68h-760q-69 0 -55 68zM461 1638q0 18 16 37l191 223 q52 64 125 64h94q38 0 57 -14.5t41 -49.5l125 -221q8 -13 8 -26q0 -37 -49 -37h-84q-34 0 -53.5 11t-38.5 42l-76 123l-125 -123q-30 -30 -55 -41.5t-59 -11.5h-76q-41 0 -41 24z" />
<glyph unicode="&#xcb;" horiz-adv-x="1161" d="M25 68l272 1335q15 70 84 70h760q66 0 51 -70l-23 -105q-12 -69 -77 -69h-539l-70 -346h484q33 0 45 -16.5t6 -53.5l-23 -102q-12 -70 -80 -70h-483l-82 -399h539q34 0 46 -16.5t5 -53.5l-22 -104q-12 -68 -78 -68h-760q-69 0 -55 68zM446 1786q1 60 45 102.5t103 42.5 q60 0 100.5 -42.5t38.5 -102.5q-3 -59 -47 -101.5t-102 -42.5t-99 42.5t-39 101.5zM858 1786q1 60 45 102.5t101 42.5q60 0 100.5 -42.5t38.5 -102.5q-2 -59 -46 -101.5t-104 -42.5q-58 0 -98 42.5t-37 101.5z" />
<glyph unicode="&#xcc;" horiz-adv-x="798" d="M-53 66l20 100q15 67 76 67h127l207 1006h-127q-61 0 -49 66l20 100q15 68 76 68h543q62 0 47 -68l-21 -100q-12 -66 -73 -66h-125l-207 -1006h125q62 0 47 -67l-21 -100q-12 -66 -73 -66h-543q-61 0 -49 66zM344 1925q0 37 43 37h139q40 0 63.5 -15t47.5 -49l137 -217 q12 -15 12 -34q0 -33 -49 -33h-67q-37 0 -58 9.5t-51 41.5l-192 211q-25 25 -25 49z" />
<glyph unicode="&#xcd;" horiz-adv-x="798" d="M-53 66l20 100q15 67 76 67h127l207 1006h-127q-61 0 -49 66l20 100q15 68 76 68h543q62 0 47 -68l-21 -100q-12 -66 -73 -66h-125l-207 -1006h125q62 0 47 -67l-21 -100q-12 -66 -73 -66h-543q-61 0 -49 66zM338 1647q2 15 18 34l181 217q28 34 55.5 49t69.5 15h161 q41 0 35 -37q-3 -23 -33 -49l-237 -211q-33 -31 -56 -41t-61 -10h-90q-25 0 -35.5 8.5t-7.5 24.5z" />
<glyph unicode="&#xce;" horiz-adv-x="798" d="M-53 66l20 100q15 67 76 67h127l207 1006h-127q-61 0 -49 66l20 100q15 68 76 68h543q62 0 47 -68l-21 -100q-12 -66 -73 -66h-125l-207 -1006h125q62 0 47 -67l-21 -100q-12 -66 -73 -66h-543q-61 0 -49 66zM274 1638q0 17 17 37l190 223q52 64 125 64h94q38 0 57.5 -15 t41.5 -49l125 -221q8 -13 8 -26q0 -37 -49 -37h-84q-34 0 -53.5 11t-38.5 42l-76 123l-125 -123q-30 -30 -55.5 -41.5t-59.5 -11.5h-76q-41 0 -41 24z" />
<glyph unicode="&#xcf;" horiz-adv-x="798" d="M-53 66l20 100q15 67 76 67h127l207 1006h-127q-61 0 -49 66l20 100q15 68 76 68h543q62 0 47 -68l-21 -100q-12 -66 -73 -66h-125l-207 -1006h125q62 0 47 -67l-21 -100q-12 -66 -73 -66h-543q-61 0 -49 66zM270 1786q1 60 45 102.5t103 42.5q60 0 100.5 -42.5 t38.5 -102.5q-3 -59 -47 -101.5t-102 -42.5t-99 42.5t-39 101.5zM682 1786q1 60 44.5 102.5t100.5 42.5q60 0 101 -42.5t39 -102.5q-2 -59 -46 -101.5t-104 -42.5q-58 0 -98 42.5t-37 101.5z" />
<glyph unicode="&#xd0;" horiz-adv-x="1523" d="M20 739l11 41q14 70 82 70h71l115 555q12 68 76 68h305q118 0 221 -17.5t199.5 -60t164.5 -108.5t109 -170.5t41 -237.5q0 -175 -43 -318t-124 -246.5t-197 -174.5t-261.5 -105.5t-318.5 -34.5h-397q-64 0 -49 66l122 604h-71q-68 0 -56 69zM350 238h164q270 0 433 165.5 t163 442.5q0 108 -34 185t-98.5 119.5t-146.5 61.5t-190 19h-88l-78 -381h287q34 0 46 -16.5t5 -53.5l-8 -41q-15 -69 -80 -69h-287z" />
<glyph unicode="&#xd1;" horiz-adv-x="1529" d="M25 68l272 1335q15 70 84 70h248q64 0 82 -70l317 -1034l211 1034q15 70 82 70h131q68 0 53 -70l-272 -1333q-14 -70 -82 -70h-229q-68 0 -88 68l-328 1056l-217 -1056q-12 -68 -78 -68h-131q-69 0 -55 68zM592 1683q20 96 88.5 160t171.5 64q51 0 99.5 -20.5t87 -41 t65.5 -20.5q49 0 70 49q22 39 69 39h55q49 0 37 -53q-18 -95 -87.5 -160.5t-172.5 -65.5q-50 0 -98.5 20.5t-87.5 41t-66 20.5q-28 0 -43 -12.5t-26 -34.5q-20 -41 -70 -41h-55q-49 0 -37 55z" />
<glyph unicode="&#xd2;" horiz-adv-x="1638" d="M109 588q0 142 34 275t102.5 248.5t165 201.5t230.5 135t289 49q283 0 441.5 -159.5t158.5 -454.5q0 -145 -32.5 -278.5t-99.5 -248t-162 -199.5t-228 -133.5t-289 -48.5q-285 0 -447.5 159.5t-162.5 453.5zM416 610q0 -191 84.5 -293t234.5 -102q117 0 212.5 58.5 t154.5 153t91 207t32 228.5q0 194 -80.5 294.5t-237.5 100.5q-94 0 -175.5 -38.5t-138.5 -103t-97.5 -148.5t-60 -175t-19.5 -182zM717 1925q0 37 43 37h139q40 0 63.5 -15t47.5 -49l137 -217q12 -15 12 -34q0 -33 -49 -33h-68q-37 0 -57 9.5t-51 41.5l-193 211 q-24 24 -24 49z" />
<glyph unicode="&#xd3;" horiz-adv-x="1638" d="M109 588q0 142 34 275t102.5 248.5t165 201.5t230.5 135t289 49q283 0 441.5 -159.5t158.5 -454.5q0 -145 -32.5 -278.5t-99.5 -248t-162 -199.5t-228 -133.5t-289 -48.5q-285 0 -447.5 159.5t-162.5 453.5zM416 610q0 -191 84.5 -293t234.5 -102q117 0 212.5 58.5 t154.5 153t91 207t32 228.5q0 194 -80.5 294.5t-237.5 100.5q-94 0 -175.5 -38.5t-138.5 -103t-97.5 -148.5t-60 -175t-19.5 -182zM649 1647q2 13 19 34l180 217q28 34 55.5 49t69.5 15h162q40 0 34 -37q-3 -24 -32 -49l-238 -211q-33 -31 -56 -41t-61 -10h-90 q-25 0 -35.5 8.5t-7.5 24.5z" />
<glyph unicode="&#xd4;" horiz-adv-x="1638" d="M109 588q0 142 34 275t102.5 248.5t165 201.5t230.5 135t289 49q283 0 441.5 -159.5t158.5 -454.5q0 -145 -32.5 -278.5t-99.5 -248t-162 -199.5t-228 -133.5t-289 -48.5q-285 0 -447.5 159.5t-162.5 453.5zM416 610q0 -191 84.5 -293t234.5 -102q117 0 212.5 58.5 t154.5 153t91 207t32 228.5q0 194 -80.5 294.5t-237.5 100.5q-94 0 -175.5 -38.5t-138.5 -103t-97.5 -148.5t-60 -175t-19.5 -182zM635 1638q0 18 16 37l191 223q52 64 125 64h94q38 0 57 -14.5t41 -49.5l125 -221q8 -13 8 -26q0 -37 -49 -37h-84q-34 0 -53.5 11t-38.5 42 l-76 123l-125 -123q-30 -30 -55 -41.5t-59 -11.5h-76q-41 0 -41 24z" />
<glyph unicode="&#xd5;" horiz-adv-x="1638" d="M109 588q0 142 34 275t102.5 248.5t165 201.5t230.5 135t289 49q283 0 441.5 -159.5t158.5 -454.5q0 -145 -32.5 -278.5t-99.5 -248t-162 -199.5t-228 -133.5t-289 -48.5q-285 0 -447.5 159.5t-162.5 453.5zM416 610q0 -191 84.5 -293t234.5 -102q117 0 212.5 58.5 t154.5 153t91 207t32 228.5q0 194 -80.5 294.5t-237.5 100.5q-94 0 -175.5 -38.5t-138.5 -103t-97.5 -148.5t-60 -175t-19.5 -182zM594 1683q20 96 88.5 160t171.5 64q51 0 99.5 -20.5t87 -41t65.5 -20.5q49 0 70 49q22 39 69 39h55q49 0 37 -53q-18 -95 -87.5 -160.5 t-172.5 -65.5q-50 0 -98.5 20.5t-87.5 41t-66 20.5q-28 0 -43 -12.5t-26 -34.5q-20 -41 -70 -41h-55q-49 0 -37 55z" />
<glyph unicode="&#xd6;" horiz-adv-x="1638" d="M109 588q0 142 34 275t102.5 248.5t165 201.5t230.5 135t289 49q283 0 441.5 -159.5t158.5 -454.5q0 -145 -32.5 -278.5t-99.5 -248t-162 -199.5t-228 -133.5t-289 -48.5q-285 0 -447.5 159.5t-162.5 453.5zM416 610q0 -191 84.5 -293t234.5 -102q117 0 212.5 58.5 t154.5 153t91 207t32 228.5q0 194 -80.5 294.5t-237.5 100.5q-94 0 -175.5 -38.5t-138.5 -103t-97.5 -148.5t-60 -175t-19.5 -182zM645 1786q1 60 45 102.5t103 42.5q60 0 100.5 -42.5t38.5 -102.5q-3 -59 -47.5 -101.5t-102.5 -42.5t-98.5 42.5t-38.5 101.5zM1057 1786 q1 60 44.5 102.5t100.5 42.5q60 0 100.5 -42.5t38.5 -102.5q-2 -59 -45.5 -101.5t-103.5 -42.5q-58 0 -98 42.5t-37 101.5z" />
<glyph unicode="&#xd7;" horiz-adv-x="1228" d="M98 195q0 22 21 43l276 276l-276 279q-21 21 -21 41q0 24 25 49l76 75q25 25 47 25q23 0 43 -20l276 -279l279 279q20 20 41 20t49 -25l76 -75q24 -27 24 -47q0 -23 -20 -43l-279 -279l277 -276q22 -22 22 -43q0 -27 -24 -48l-76 -75q-25 -25 -49 -25q-22 0 -43 21 l-277 276l-276 -276q-21 -21 -43 -21q-25 0 -47 25l-76 75q-25 25 -25 48z" />
<glyph unicode="&#xd8;" horiz-adv-x="1638" d="M109 588q0 142 34 275t102.5 248.5t165 201.5t230.5 135t289 49q200 0 344 -84l51 66q42 54 90 12l37 -33q50 -41 6 -90l-55 -68q127 -158 127 -417q0 -145 -32.5 -278.5t-99.5 -248t-162 -199.5t-228 -133.5t-289 -48.5q-203 0 -350 84l-54 -65q-43 -52 -92 -12l-37 32 q-47 41 -4 92l56 64q-129 154 -129 418zM416 610q0 -122 33 -204l331 374l324 416q-73 61 -197 61q-94 0 -175.5 -38.5t-138.5 -103t-97.5 -148.5t-60 -175t-19.5 -182zM547 272q75 -57 188 -57q117 0 212.5 58.5t154.5 153t91 207t32 228.5q0 100 -27 193z" />
<glyph unicode="&#xd9;" horiz-adv-x="1488" d="M109 434q0 78 22 193l160 778q12 68 78 68h163q63 0 48 -68l-156 -766q-18 -95 -18 -156q0 -247 243 -247q150 0 242 96.5t133 298.5l158 774q15 68 78 68h165q63 0 48 -68l-170 -827q-63 -309 -227.5 -456t-454.5 -147q-243 0 -377.5 120.5t-134.5 338.5zM657 1925 q0 37 43 37h140q40 0 63 -15t47 -49l137 -217q13 -16 13 -34q0 -33 -49 -33h-68q-37 0 -58 9.5t-51 41.5l-192 211q-25 25 -25 49z" />
<glyph unicode="&#xda;" horiz-adv-x="1488" d="M109 434q0 78 22 193l160 778q12 68 78 68h163q63 0 48 -68l-156 -766q-18 -95 -18 -156q0 -247 243 -247q150 0 242 96.5t133 298.5l158 774q15 68 78 68h165q63 0 48 -68l-170 -827q-63 -309 -227.5 -456t-454.5 -147q-243 0 -377.5 120.5t-134.5 338.5zM649 1647 q2 13 19 34l180 217q28 34 55.5 49t69.5 15h162q40 0 34 -37q-3 -24 -32 -49l-238 -211q-33 -31 -56 -41t-61 -10h-90q-25 0 -35.5 8.5t-7.5 24.5z" />
<glyph unicode="&#xdb;" horiz-adv-x="1488" d="M109 434q0 78 22 193l160 778q12 68 78 68h163q63 0 48 -68l-156 -766q-18 -95 -18 -156q0 -247 243 -247q150 0 242 96.5t133 298.5l158 774q15 68 78 68h165q63 0 48 -68l-170 -827q-63 -309 -227.5 -456t-454.5 -147q-243 0 -377.5 120.5t-134.5 338.5zM563 1638 q0 17 17 37l190 223q52 64 125 64h94q38 0 57 -14.5t41 -49.5l125 -221q9 -15 9 -26q0 -37 -50 -37h-84q-34 0 -53.5 11t-38.5 42l-75 123l-125 -123q-30 -30 -55.5 -41.5t-59.5 -11.5h-76q-41 0 -41 24z" />
<glyph unicode="&#xdc;" horiz-adv-x="1488" d="M109 434q0 78 22 193l160 778q12 68 78 68h163q63 0 48 -68l-156 -766q-18 -95 -18 -156q0 -247 243 -247q150 0 242 96.5t133 298.5l158 774q15 68 78 68h165q63 0 48 -68l-170 -827q-63 -309 -227.5 -456t-454.5 -147q-243 0 -377.5 120.5t-134.5 338.5zM600 1786 q1 60 45 102.5t103 42.5q60 0 100.5 -42.5t38.5 -102.5q-3 -59 -47.5 -101.5t-102.5 -42.5t-98.5 42.5t-38.5 101.5zM1012 1786q1 60 44.5 102.5t100.5 42.5q60 0 100.5 -42.5t38.5 -102.5q-2 -59 -45.5 -101.5t-103.5 -42.5q-58 0 -98 42.5t-37 101.5z" />
<glyph unicode="&#xdd;" horiz-adv-x="1429" d="M172 1436q6 37 53 37h178q39 0 54 -12t28 -46l226 -573l463 573q28 34 47 46t57 12h205q20 0 31 -9.5t8 -27.5q-7 -18 -23 -37l-686 -815l-106 -516q-12 -68 -78 -68h-156q-69 0 -55 68l106 526l-348 805q-9 26 -4 37zM664 1597q3 16 18 35l180 217q28 34 55.5 49 t69.5 15h162q41 0 35 -37q-3 -23 -33 -49l-238 -211q-33 -32 -55.5 -41.5t-60.5 -9.5h-90q-25 0 -35.5 8t-7.5 24z" />
<glyph unicode="&#xde;" horiz-adv-x="1204" d="M25 68l272 1335q15 70 84 70h156q66 0 51 -70l-31 -156h84q533 0 533 -399q0 -129 -48.5 -230t-134.5 -164.5t-199.5 -96.5t-248.5 -33h-176l-52 -256q-14 -68 -79 -68h-156q-69 0 -55 68zM416 559h108q350 0 350 256q0 59 -20 99t-58.5 60.5t-83 29t-104.5 8.5h-98z" />
<glyph unicode="&#xdf;" horiz-adv-x="1386" d="M41 68l201 958q23 113 53.5 198.5t78 160t110.5 121.5t153 73.5t205 26.5q93 0 173 -24t142.5 -71t98.5 -124t36 -177q0 -151 -88 -250.5t-233 -138.5q235 -100 235 -348q0 -122 -50 -217.5t-134.5 -152.5t-187.5 -86t-218 -29h-135q-26 0 -41.5 17t-9.5 46l23 103 q12 55 75 55h107q79 0 144 30.5t107 97t42 159.5q0 101 -60 170t-178 69q-56 0 -43 64l19 86q12 61 69 61q121 0 201 65.5t80 194.5q0 91 -52.5 142t-146.5 51q-113 0 -183.5 -85.5t-101.5 -234.5l-210 -1016q-15 -66 -74 -63h-158q-61 3 -49 68z" />
<glyph unicode="&#xe0;" horiz-adv-x="1347" d="M94 436q0 127 38.5 243t108 205t174.5 142t230 53q245 0 346 -153h10l13 63q12 66 76 66h155q59 0 47 -66l-190 -923q-12 -66 -74 -66h-145q-61 0 -49 66l14 63h-10q-128 -154 -326 -154q-200 0 -309 128.5t-109 332.5zM385 459q-2 -120 57 -191t172 -71q59 0 110 25 t86.5 66t61 94t38 109t12.5 111q0 114 -58 185t-166 71q-73 0 -133.5 -35t-98.5 -92.5t-59 -127.5t-22 -144zM545 1509q0 37 43 37h139q40 0 63.5 -14.5t47.5 -48.5l137 -217q12 -15 12 -35q0 -33 -49 -33h-68q-37 0 -57 9.5t-51 41.5l-193 211q-24 24 -24 49z" />
<glyph unicode="&#xe1;" horiz-adv-x="1347" d="M94 436q0 127 38.5 243t108 205t174.5 142t230 53q245 0 346 -153h10l13 63q12 66 76 66h155q59 0 47 -66l-190 -923q-12 -66 -74 -66h-145q-61 0 -49 66l14 63h-10q-128 -154 -326 -154q-200 0 -309 128.5t-109 332.5zM385 459q-2 -120 57 -191t172 -71q59 0 110 25 t86.5 66t61 94t38 109t12.5 111q0 114 -58 185t-166 71q-73 0 -133.5 -35t-98.5 -92.5t-59 -127.5t-22 -144zM567 1231q2 14 19 35l180 217q28 34 55 48.5t70 14.5h162q40 0 34 -37q-3 -24 -32 -49l-238 -211q-33 -31 -56 -41t-61 -10h-90q-25 0 -35.5 8.5t-7.5 24.5z" />
<glyph unicode="&#xe2;" horiz-adv-x="1347" d="M94 436q0 127 38.5 243t108 205t174.5 142t230 53q245 0 346 -153h10l13 63q12 66 76 66h155q59 0 47 -66l-190 -923q-12 -66 -74 -66h-145q-61 0 -49 66l14 63h-10q-128 -154 -326 -154q-200 0 -309 128.5t-109 332.5zM385 459q-2 -120 57 -191t172 -71q59 0 110 25 t86.5 66t61 94t38 109t12.5 111q0 114 -58 185t-166 71q-73 0 -133.5 -35t-98.5 -92.5t-59 -127.5t-22 -144zM479 1223q0 17 17 37l190 223q51 63 125 63h94q38 0 57.5 -14.5t41.5 -48.5l124 -221q9 -15 9 -27q0 -37 -50 -37h-83q-34 0 -54 11.5t-39 41.5l-75 123l-125 -123 q-30 -30 -55.5 -41.5t-59.5 -11.5h-76q-41 0 -41 25z" />
<glyph unicode="&#xe3;" horiz-adv-x="1347" d="M94 436q0 127 38.5 243t108 205t174.5 142t230 53q245 0 346 -153h10l13 63q12 66 76 66h155q59 0 47 -66l-190 -923q-12 -66 -74 -66h-145q-61 0 -49 66l14 63h-10q-128 -154 -326 -154q-200 0 -309 128.5t-109 332.5zM385 459q-2 -120 57 -191t172 -71q59 0 110 25 t86.5 66t61 94t38 109t12.5 111q0 114 -58 185t-166 71q-73 0 -133.5 -35t-98.5 -92.5t-59 -127.5t-22 -144zM449 1268q20 95 88.5 159t171.5 64q51 0 99.5 -20.5t87 -41t65.5 -20.5q48 0 69 49q22 39 70 39h55q49 0 37 -53q-18 -95 -87 -160t-173 -65q-50 0 -98.5 20.5 t-87.5 40.5t-66 20q-45 0 -70 -47q-20 -41 -69 -41h-56q-48 0 -36 56z" />
<glyph unicode="&#xe4;" horiz-adv-x="1347" d="M94 436q0 127 38.5 243t108 205t174.5 142t230 53q245 0 346 -153h10l13 63q12 66 76 66h155q59 0 47 -66l-190 -923q-12 -66 -74 -66h-145q-61 0 -49 66l14 63h-10q-128 -154 -326 -154q-200 0 -309 128.5t-109 332.5zM385 459q-2 -120 57 -191t172 -71q59 0 110 25 t86.5 66t61 94t38 109t12.5 111q0 114 -58 185t-166 71q-73 0 -133.5 -35t-98.5 -92.5t-59 -127.5t-22 -144zM481 1370q1 60 45 103t103 43q60 0 100.5 -43t38.5 -103q-3 -59 -47.5 -101t-102.5 -42t-98.5 42t-38.5 101zM893 1370q1 60 44.5 103t100.5 43q60 0 101 -43 t39 -103q-2 -59 -46 -101t-104 -42q-58 0 -98 42t-37 101z" />
<glyph unicode="&#xe5;" horiz-adv-x="1347" d="M94 436q0 127 38.5 243t108 205t174.5 142t230 53q245 0 346 -153h10l13 63q12 66 76 66h155q59 0 47 -66l-190 -923q-12 -66 -74 -66h-145q-61 0 -49 66l14 63h-10q-128 -154 -326 -154q-200 0 -309 128.5t-109 332.5zM385 459q-2 -120 57 -191t172 -71q59 0 110 25 t86.5 66t61 94t38 109t12.5 111q0 114 -58 185t-166 71q-73 0 -133.5 -35t-98.5 -92.5t-59 -127.5t-22 -144zM621 1372q3 93 67 157t158 64q96 0 157 -64t58 -157t-68.5 -156t-161.5 -63q-94 0 -153.5 63t-56.5 156zM733 1372q-2 -45 28 -75.5t75 -30.5q46 0 78 31t34 75 q0 46 -29.5 77.5t-76.5 31.5q-45 0 -76 -31.5t-33 -77.5z" />
<glyph unicode="&#xe6;" horiz-adv-x="2023" d="M94 436q0 127 39.5 243t109.5 205t174.5 142t227.5 53q245 0 346 -153h10l13 63q12 66 76 66h155q27 0 41 -17q103 41 225 41q211 0 324 -111.5t113 -318.5q0 -43 -11 -129q-9 -69 -92 -69h-651q0 -273 272 -273q73 0 137 14t104 27.5t56 13.5q31 0 31 -34q0 -15 -2 -33 t-5.5 -40.5t-4.5 -35.5q-4 -34 -46 -58.5t-104.5 -36t-115 -16t-99.5 -4.5q-192 0 -315 86q-11 -61 -74 -61h-145q-52 0 -52 45q0 9 3 21l12 63h-8q-128 -154 -326 -154q-200 0 -309 128.5t-109 332.5zM385 457q0 -125 57 -192.5t168 -67.5q82 0 153 47t118 133l65 313 q-24 77 -84.5 122.5t-144.5 45.5q-103 0 -180.5 -60.5t-114.5 -150t-37 -190.5zM1219 629h481q2 12 2 39q0 95 -50 150.5t-147 55.5q-103 0 -180.5 -67.5t-105.5 -177.5z" />
<glyph unicode="&#xe7;" horiz-adv-x="1019" d="M80 449q0 284 185 457t499 173q53 0 126.5 -10t117.5 -29q25 -11 31 -28t-3 -43l-28 -101q-11 -41 -52 -41q-11 0 -72 17.5t-122 17.5q-94 0 -170 -32.5t-123.5 -88.5t-72.5 -126.5t-25 -149.5q0 -125 72 -198.5t214 -73.5q59 0 123 16t74 16q20 0 27.5 -8.5t3.5 -32.5 l-19 -116q-3 -23 -16.5 -36t-44.5 -24q-90 -33 -242 -33q-75 0 -144.5 18t-131.5 56t-108 93t-72.5 134t-26.5 173zM238 -406q1 1 2.5 5.5t3.5 8.5t4 7l12 25q14 32 39 32q7 0 43.5 -15t75.5 -15q108 0 127 79q6 32 -14 50t-64 18q-16 0 -35.5 -2t-32.5 -2q-25 0 -31.5 12.5 t-2.5 26.5q3 16 32 53l111 127h129l-117 -121q27 8 60 8q80 0 116 -44t21 -117q-14 -69 -64.5 -115t-111.5 -64t-131 -18q-83 0 -146 29q-29 14 -26 32z" />
<glyph unicode="&#xe8;" horiz-adv-x="1189" d="M80 453q0 178 75 320.5t212 224t311 81.5q242 0 354 -146t72 -413q-9 -69 -92 -69h-652q-2 -133 67 -203t206 -70q73 0 137 14t104 27.5t56 13.5q34 0 31 -40l-13 -103q-3 -28 -17.5 -43t-49.5 -27q-124 -45 -297 -45q-131 0 -230.5 39.5t-158 108t-87 151.5t-28.5 179z M385 629h481q11 111 -38 178t-156 67q-103 0 -181 -67.5t-106 -177.5zM471 1509q0 37 43 37h139q40 0 63.5 -14.5t47.5 -48.5l137 -217q12 -15 12 -35q0 -33 -49 -33h-67q-37 0 -58 9.5t-51 41.5l-192 211q-25 25 -25 49z" />
<glyph unicode="&#xe9;" horiz-adv-x="1189" d="M80 453q0 178 75 320.5t212 224t311 81.5q242 0 354 -146t72 -413q-9 -69 -92 -69h-652q-2 -133 67 -203t206 -70q73 0 137 14t104 27.5t56 13.5q34 0 31 -40l-13 -103q-3 -28 -17.5 -43t-49.5 -27q-124 -45 -297 -45q-131 0 -230.5 39.5t-158 108t-87 151.5t-28.5 179z M385 629h481q11 111 -38 178t-156 67q-103 0 -181 -67.5t-106 -177.5zM543 1231q3 16 18 35l180 217q28 34 55 48.5t70 14.5h162q41 0 35 -37q-3 -23 -33 -49l-237 -211q-33 -31 -56 -41t-61 -10h-90q-25 0 -35.5 8.5t-7.5 24.5z" />
<glyph unicode="&#xea;" horiz-adv-x="1189" d="M80 453q0 178 75 320.5t212 224t311 81.5q242 0 354 -146t72 -413q-9 -69 -92 -69h-652q-2 -133 67 -203t206 -70q73 0 137 14t104 27.5t56 13.5q34 0 31 -40l-13 -103q-3 -28 -17.5 -43t-49.5 -27q-124 -45 -297 -45q-131 0 -230.5 39.5t-158 108t-87 151.5t-28.5 179z M385 629h481q11 111 -38 178t-156 67q-103 0 -181 -67.5t-106 -177.5zM410 1223q0 18 16 37l190 223q51 63 125 63h95q38 0 57 -14.5t41 -48.5l125 -221q8 -13 8 -27q0 -37 -49 -37h-84q-34 0 -53.5 11t-38.5 42l-76 123l-125 -123q-30 -30 -55.5 -41.5t-59.5 -11.5h-75 q-41 0 -41 25z" />
<glyph unicode="&#xeb;" horiz-adv-x="1189" d="M80 453q0 178 75 320.5t212 224t311 81.5q242 0 354 -146t72 -413q-9 -69 -92 -69h-652q-2 -133 67 -203t206 -70q73 0 137 14t104 27.5t56 13.5q34 0 31 -40l-13 -103q-3 -28 -17.5 -43t-49.5 -27q-124 -45 -297 -45q-131 0 -230.5 39.5t-158 108t-87 151.5t-28.5 179z M385 629h481q11 111 -38 178t-156 67q-103 0 -181 -67.5t-106 -177.5zM387 1370q1 60 45 103t103 43q60 0 100.5 -43t38.5 -103q-3 -59 -47.5 -101t-102.5 -42t-98.5 42t-38.5 101zM799 1370q1 60 44.5 103t100.5 43q60 0 100.5 -43t38.5 -103q-2 -59 -45.5 -101t-103.5 -42 q-58 0 -98 42t-37 101z" />
<glyph unicode="&#xec;" horiz-adv-x="573" d="M39 66l190 923q12 66 76 66h156q59 0 47 -66l-191 -923q-12 -66 -73 -66h-156q-61 0 -49 66zM147 1509q0 37 43 37h140q40 0 63 -14.5t47 -48.5l138 -217q12 -15 12 -35q0 -33 -49 -33h-68q-37 0 -57 9.5t-51 41.5l-193 211q-25 25 -25 49z" />
<glyph unicode="&#xed;" horiz-adv-x="573" d="M39 66l190 923q12 66 76 66h156q59 0 47 -66l-191 -923q-12 -66 -73 -66h-156q-61 0 -49 66zM207 1231q3 16 18 35l181 217q28 34 55 48.5t69 14.5h162q41 0 35 -37q-3 -23 -33 -49l-237 -211q-33 -31 -56 -41t-61 -10h-90q-25 0 -35.5 8.5t-7.5 24.5z" />
<glyph unicode="&#xee;" horiz-adv-x="573" d="M39 66l190 923q12 66 76 66h156q59 0 47 -66l-191 -923q-12 -66 -73 -66h-156q-61 0 -49 66zM86 1223q0 18 16 37l191 223q51 63 125 63h94q38 0 57 -14.5t41 -48.5l125 -221q8 -13 8 -27q0 -37 -49 -37h-84q-34 0 -53.5 11t-38.5 42l-76 123l-125 -123 q-30 -30 -55 -41.5t-59 -11.5h-76q-41 0 -41 25z" />
<glyph unicode="&#xef;" horiz-adv-x="573" d="M39 66l190 923q12 66 76 66h156q59 0 47 -66l-191 -923q-12 -66 -73 -66h-156q-61 0 -49 66zM80 1370q1 60 44.5 103t102.5 43q60 0 101 -43t39 -103q-3 -59 -47.5 -101t-102.5 -42t-98.5 42t-38.5 101zM492 1370q1 60 44.5 103t100.5 43q60 0 100.5 -43t38.5 -103 q-2 -59 -45.5 -101t-103.5 -42q-58 0 -98 42t-37 101z" />
<glyph unicode="&#xf0;" horiz-adv-x="1308" d="M80 449q0 263 162.5 433.5t412.5 170.5q68 0 118.5 -13.5t103.5 -46.5q-74 157 -187 279l-215 -121q-24 -16 -44 -13.5t-34 31.5l-20 37q-26 51 29 84l165 94q-47 37 -110 76q-23 12 -23 41q0 23 23 39l86 59q27 17 57 17q24 0 55 -14q64 -32 140 -91l202 117 q51 26 74 -22l21 -39q27 -50 -33 -82l-145 -82q135 -146 215.5 -346.5t80.5 -429.5q0 -107 -26 -204.5t-78 -179t-124.5 -141.5t-171.5 -93.5t-214 -33.5q-242 0 -381 126t-139 348zM362 459q0 -123 67.5 -197t174.5 -74q151 0 239.5 118t88.5 292q0 113 -61.5 190.5 t-170.5 77.5q-104 0 -183.5 -65t-117 -156t-37.5 -186z" />
<glyph unicode="&#xf1;" horiz-adv-x="1312" d="M43 66l188 923q15 66 74 66h148q64 0 49 -66l-15 -78h11q78 86 165.5 127t196.5 41q167 0 242.5 -95.5t75.5 -258.5q0 -82 -27 -225l-90 -434q-12 -66 -74 -66h-156q-61 0 -49 66l95 454q18 88 18 154q0 172 -158 172q-119 0 -208.5 -104.5t-125.5 -272.5l-81 -403 q-12 -66 -76 -66h-156q-59 0 -47 66zM428 1268q20 95 88.5 159t171.5 64q51 0 99.5 -20.5t87 -41t65.5 -20.5q49 0 70 49q22 39 69 39h56q48 0 36 -53q-18 -95 -87 -160t-173 -65q-50 0 -98.5 20.5t-87.5 40.5t-66 20q-28 0 -43 -12.5t-26 -34.5q-20 -41 -70 -41h-55 q-49 0 -37 56z" />
<glyph unicode="&#xf2;" horiz-adv-x="1327" d="M80 442q0 131 46.5 247.5t129 203t205 136.5t266.5 50q225 0 365.5 -123t140.5 -340q0 -145 -51 -266.5t-138.5 -203t-206 -126.5t-253.5 -45q-81 0 -154 17.5t-137.5 54.5t-111.5 91t-74 132t-27 172zM373 467q0 -114 62.5 -194t178.5 -80q143 0 234.5 117t91.5 278 q0 47 -13.5 93t-41 87.5t-77 67.5t-112.5 26q-75 0 -138 -35.5t-102.5 -92.5t-61 -126.5t-21.5 -140.5zM541 1509q0 37 43 37h139q40 0 63.5 -14.5t47.5 -48.5l137 -217q12 -15 12 -35q0 -33 -49 -33h-68q-37 0 -57 9.5t-51 41.5l-193 211q-24 24 -24 49z" />
<glyph unicode="&#xf3;" horiz-adv-x="1327" d="M80 442q0 131 46.5 247.5t129 203t205 136.5t266.5 50q225 0 365.5 -123t140.5 -340q0 -145 -51 -266.5t-138.5 -203t-206 -126.5t-253.5 -45q-81 0 -154 17.5t-137.5 54.5t-111.5 91t-74 132t-27 172zM373 467q0 -114 62.5 -194t178.5 -80q143 0 234.5 117t91.5 278 q0 47 -13.5 93t-41 87.5t-77 67.5t-112.5 26q-75 0 -138 -35.5t-102.5 -92.5t-61 -126.5t-21.5 -140.5zM545 1231q3 16 18 35l180 217q28 34 55 48.5t70 14.5h162q41 0 35 -37q-3 -23 -33 -49l-237 -211q-33 -31 -56 -41t-61 -10h-90q-25 0 -35.5 8.5t-7.5 24.5z" />
<glyph unicode="&#xf4;" horiz-adv-x="1327" d="M80 442q0 131 46.5 247.5t129 203t205 136.5t266.5 50q225 0 365.5 -123t140.5 -340q0 -145 -51 -266.5t-138.5 -203t-206 -126.5t-253.5 -45q-81 0 -154 17.5t-137.5 54.5t-111.5 91t-74 132t-27 172zM373 467q0 -114 62.5 -194t178.5 -80q143 0 234.5 117t91.5 278 q0 47 -13.5 93t-41 87.5t-77 67.5t-112.5 26q-75 0 -138 -35.5t-102.5 -92.5t-61 -126.5t-21.5 -140.5zM442 1223q0 17 17 37l190 223q51 63 125 63h94q38 0 57.5 -14.5t41.5 -48.5l125 -221q8 -13 8 -27q0 -37 -49 -37h-84q-34 0 -54 11.5t-39 41.5l-75 123l-125 -123 q-30 -30 -55.5 -41.5t-59.5 -11.5h-76q-41 0 -41 25z" />
<glyph unicode="&#xf5;" horiz-adv-x="1327" d="M80 442q0 131 46.5 247.5t129 203t205 136.5t266.5 50q225 0 365.5 -123t140.5 -340q0 -145 -51 -266.5t-138.5 -203t-206 -126.5t-253.5 -45q-81 0 -154 17.5t-137.5 54.5t-111.5 91t-74 132t-27 172zM373 467q0 -114 62.5 -194t178.5 -80q143 0 234.5 117t91.5 278 q0 47 -13.5 93t-41 87.5t-77 67.5t-112.5 26q-75 0 -138 -35.5t-102.5 -92.5t-61 -126.5t-21.5 -140.5zM406 1268q20 95 88.5 159t171.5 64q51 0 99.5 -20.5t87 -41t65.5 -20.5q48 0 69 49q22 39 70 39h55q49 0 37 -53q-18 -95 -87 -160t-173 -65q-50 0 -98.5 20.5 t-87.5 40.5t-66 20q-45 0 -70 -47q-20 -41 -69 -41h-56q-48 0 -36 56z" />
<glyph unicode="&#xf6;" horiz-adv-x="1327" d="M80 442q0 131 46.5 247.5t129 203t205 136.5t266.5 50q225 0 365.5 -123t140.5 -340q0 -145 -51 -266.5t-138.5 -203t-206 -126.5t-253.5 -45q-81 0 -154 17.5t-137.5 54.5t-111.5 91t-74 132t-27 172zM373 467q0 -114 62.5 -194t178.5 -80q143 0 234.5 117t91.5 278 q0 47 -13.5 93t-41 87.5t-77 67.5t-112.5 26q-75 0 -138 -35.5t-102.5 -92.5t-61 -126.5t-21.5 -140.5zM436 1370q1 60 45 103t103 43q60 0 100.5 -43t38.5 -103q-3 -59 -47.5 -101t-102.5 -42t-98.5 42t-38.5 101zM848 1370q1 60 44.5 103t100.5 43q60 0 101 -43t39 -103 q-2 -59 -46 -101t-104 -42q-58 0 -98 42t-37 101z" />
<glyph unicode="&#xf7;" horiz-adv-x="1228" d="M111 473v88q0 29 18.5 47.5t48.5 18.5h901q31 0 49.5 -18.5t18.5 -47.5v-88q0 -29 -18.5 -47t-49.5 -18h-901q-31 0 -49 18t-18 47zM453 92q0 72 51 123t123 51t123 -51t51 -123q0 -71 -51 -122.5t-123 -51.5q-71 0 -122.5 52t-51.5 122zM453 942q0 72 51.5 123t122.5 51 q72 0 123 -51t51 -123q0 -71 -51 -121.5t-123 -50.5q-71 0 -122.5 51t-51.5 121z" />
<glyph unicode="&#xf8;" horiz-adv-x="1327" d="M80 442q0 131 46.5 247.5t129 203t205 136.5t266.5 50q145 0 262 -57l55 65q31 42 64 9l29 -23q36 -29 4 -67l-45 -54q137 -127 137 -336q0 -145 -51 -266.5t-138.5 -203t-206 -126.5t-253.5 -45q-142 0 -260 56l-54 -64q-28 -35 -65 -8l-29 23q-37 29 -2 67l43 51 q-137 127 -137 342zM373 467q0 -81 30 -145l422 503q-56 37 -129 37q-75 0 -138 -35.5t-102.5 -92.5t-61 -126.5t-21.5 -140.5zM487 225q53 -32 127 -32q143 0 234.5 117t91.5 278q0 68 -31 141z" />
<glyph unicode="&#xf9;" horiz-adv-x="1302" d="M113 328q0 90 26 227l90 434q12 66 74 66h156q61 0 49 -66l-94 -454q-19 -93 -19 -154q0 -172 158 -172q119 0 209.5 104.5t124.5 272.5l82 403q12 66 75 66h156q59 0 47 -66l-188 -923q-15 -66 -74 -66h-147q-65 0 -50 66l15 77h-10q-78 -87 -164.5 -127.5t-194.5 -40.5 q-161 0 -241 98t-80 255zM537 1509q0 37 43 37h139q40 0 63 -14.5t47 -48.5l138 -217q12 -15 12 -35q0 -33 -49 -33h-68q-37 0 -57 9.5t-51 41.5l-193 211q-24 24 -24 49z" />
<glyph unicode="&#xfa;" horiz-adv-x="1302" d="M113 328q0 90 26 227l90 434q12 66 74 66h156q61 0 49 -66l-94 -454q-19 -93 -19 -154q0 -172 158 -172q119 0 209.5 104.5t124.5 272.5l82 403q12 66 75 66h156q59 0 47 -66l-188 -923q-15 -66 -74 -66h-147q-65 0 -50 66l15 77h-10q-78 -87 -164.5 -127.5t-194.5 -40.5 q-161 0 -241 98t-80 255zM621 1231q3 16 18 35l180 217q28 34 55 48.5t70 14.5h162q41 0 35 -37q-3 -23 -33 -49l-238 -211q-33 -32 -55.5 -41.5t-60.5 -9.5h-90q-25 0 -35.5 8.5t-7.5 24.5z" />
<glyph unicode="&#xfb;" horiz-adv-x="1302" d="M113 328q0 90 26 227l90 434q12 66 74 66h156q61 0 49 -66l-94 -454q-19 -93 -19 -154q0 -172 158 -172q119 0 209.5 104.5t124.5 272.5l82 403q12 66 75 66h156q59 0 47 -66l-188 -923q-15 -66 -74 -66h-147q-65 0 -50 66l15 77h-10q-78 -87 -164.5 -127.5t-194.5 -40.5 q-161 0 -241 98t-80 255zM446 1223q0 17 17 37l190 223q51 63 125 63h94q38 0 57.5 -14.5t41.5 -48.5l125 -221q8 -13 8 -27q0 -37 -49 -37h-84q-34 0 -53.5 11t-38.5 42l-76 123l-125 -123q-30 -30 -55.5 -41.5t-59.5 -11.5h-76q-41 0 -41 25z" />
<glyph unicode="&#xfc;" horiz-adv-x="1302" d="M113 328q0 90 26 227l90 434q12 66 74 66h156q61 0 49 -66l-94 -454q-19 -93 -19 -154q0 -172 158 -172q119 0 209.5 104.5t124.5 272.5l82 403q12 66 75 66h156q59 0 47 -66l-188 -923q-15 -66 -74 -66h-147q-65 0 -50 66l15 77h-10q-78 -87 -164.5 -127.5t-194.5 -40.5 q-161 0 -241 98t-80 255zM422 1370q1 60 44.5 103t102.5 43q60 0 101 -43t39 -103q-3 -59 -47.5 -101t-102.5 -42t-98.5 42t-38.5 101zM834 1370q1 60 44.5 103t100.5 43q60 0 100.5 -43t38.5 -103q-2 -59 -45.5 -101t-103.5 -42q-58 0 -98 42t-37 101z" />
<glyph unicode="&#xfd;" horiz-adv-x="1136" d="M14 -518q3 14 19 37l276 444l-180 1018q-4 16 -4 29q3 45 57 45h160q35 0 52 -15t22 -49l84 -706h12l375 706q17 34 40 49t58 15h158q44 0 41 -33q0 -7 -17 -41l-854 -1473q-19 -33 -41.5 -48t-56.5 -15h-158q-25 0 -35.5 9t-7.5 28zM483 1231q2 14 19 35l180 217 q28 34 55 48.5t70 14.5h162q41 0 35 -37q-3 -23 -33 -49l-238 -211q-33 -31 -56 -41t-61 -10h-90q-25 0 -35.5 8.5t-7.5 24.5z" />
<glyph unicode="&#xfe;" horiz-adv-x="1333" d="M-68 -465l408 1983q12 67 76 67h155q59 0 47 -67l-120 -590h6q49 69 131.5 110t193.5 41q190 0 300 -129.5t110 -331.5q0 -127 -39 -243t-109 -205t-174.5 -142t-226.5 -53q-236 0 -350 168h-4l-125 -608q-14 -65 -76 -65h-155q-60 0 -48 65zM412 453q0 -111 59.5 -183.5 t167.5 -72.5q73 0 132.5 35t96.5 92.5t57 128t21 145.5q2 119 -56.5 189.5t-172.5 70.5q-72 0 -132 -37.5t-96.5 -97.5t-56.5 -130.5t-20 -139.5z" />
<glyph unicode="&#xff;" horiz-adv-x="1136" d="M14 -518q3 14 19 37l276 444l-180 1018q-4 16 -4 29q3 45 57 45h160q35 0 52 -15t22 -49l84 -706h12l375 706q17 34 40 49t58 15h158q44 0 41 -33q0 -7 -17 -41l-854 -1473q-19 -33 -41.5 -48t-56.5 -15h-158q-25 0 -35.5 9t-7.5 28zM399 1370q1 60 45 103t103 43 q60 0 100.5 -43t38.5 -103q-3 -59 -47 -101t-102 -42t-99 42t-39 101zM811 1370q1 60 44.5 103t100.5 43q60 0 101 -43t39 -103q-2 -59 -46 -101t-104 -42q-58 0 -98 42t-37 101z" />
<glyph unicode="&#x152;" horiz-adv-x="2054" d="M109 588q0 142 34 275t102.5 248.5t165 201.5t230.5 135t289 49q90 0 236 -12t190 -12h678q66 0 51 -70l-23 -105q-12 -69 -77 -69h-533l-70 -346h478q34 0 45.5 -16.5t5.5 -53.5l-23 -102q-12 -70 -80 -70h-477l-82 -399h533q34 0 46 -16.5t5 -53.5l-23 -104 q-12 -68 -77 -68h-643q-62 0 -181.5 -12.5t-189.5 -12.5q-285 0 -447.5 159.5t-162.5 453.5zM416 610q0 -191 84.5 -293t234.5 -102q138 0 228 43l194 954q-112 45 -239 45q-95 0 -177 -36.5t-141 -99.5t-101 -145.5t-62.5 -175.5t-20.5 -190z" />
<glyph unicode="&#x153;" horiz-adv-x="2045" d="M80 442q0 131 46.5 247.5t129 203t205 136.5t266.5 50q125 0 227 -42.5t168 -121.5q164 164 412 164q242 0 354 -146t72 -413q-9 -69 -92 -69h-651q-2 -133 66.5 -203t205.5 -70q73 0 137 14t104 27.5t56 13.5q34 0 31 -40l-13 -103q-3 -28 -17.5 -43t-49.5 -27 q-124 -45 -297 -45q-279 0 -404 170q-87 -82 -203 -126t-249 -44q-81 0 -154 17.5t-137.5 54.5t-111.5 91t-74 132t-27 172zM373 467q0 -114 62.5 -194t178.5 -80q143 0 234.5 117t91.5 278q0 47 -13.5 93t-41 87.5t-77 67.5t-112.5 26q-75 0 -138 -35.5t-102.5 -92.5 t-61 -126.5t-21.5 -140.5zM1241 629h481q11 111 -38 178t-156 67q-103 0 -181 -67.5t-106 -177.5z" />
<glyph unicode="&#x178;" horiz-adv-x="1429" d="M172 1436q6 37 53 37h178q39 0 54 -12t28 -46l226 -573l463 573q28 34 47 46t57 12h205q20 0 31 -9.5t8 -27.5q-7 -18 -23 -37l-686 -815l-106 -516q-12 -68 -78 -68h-156q-69 0 -55 68l106 526l-348 805q-9 26 -4 37zM586 1786q1 60 44.5 102.5t102.5 42.5 q60 0 100.5 -42.5t38.5 -102.5q-3 -59 -47 -101.5t-102 -42.5t-98.5 42.5t-38.5 101.5zM997 1786q1 60 45 102.5t101 42.5q60 0 100.5 -42.5t38.5 -102.5q-2 -59 -45.5 -101.5t-103.5 -42.5q-58 0 -98.5 42.5t-37.5 101.5z" />
<glyph unicode="&#x2c6;" horiz-adv-x="589" d="M96 1223q0 17 17 37l190 223q51 63 125 63h94q38 0 57.5 -14.5t41.5 -48.5l124 -221q9 -15 9 -27q0 -37 -49 -37h-84q-34 0 -54 11.5t-39 41.5l-75 123l-125 -123q-30 -30 -55.5 -41.5t-59.5 -11.5h-76q-41 0 -41 25z" />
<glyph unicode="&#x2dc;" horiz-adv-x="610" d="M70 1268q20 95 88.5 159t171.5 64q51 0 99.5 -20.5t87 -41t65.5 -20.5q48 0 69 49q22 39 70 39h55q49 0 37 -53q-18 -95 -87 -160t-173 -65q-50 0 -98.5 20.5t-87.5 40.5t-66 20q-45 0 -70 -47q-20 -41 -69 -41h-56q-48 0 -36 56z" />
<glyph unicode="&#x2000;" horiz-adv-x="1004" />
<glyph unicode="&#x2001;" horiz-adv-x="2009" />
<glyph unicode="&#x2002;" horiz-adv-x="1004" />
<glyph unicode="&#x2003;" horiz-adv-x="2009" />
<glyph unicode="&#x2004;" horiz-adv-x="669" />
<glyph unicode="&#x2005;" horiz-adv-x="502" />
<glyph unicode="&#x2006;" horiz-adv-x="334" />
<glyph unicode="&#x2007;" horiz-adv-x="334" />
<glyph unicode="&#x2008;" horiz-adv-x="251" />
<glyph unicode="&#x2009;" horiz-adv-x="401" />
<glyph unicode="&#x200a;" horiz-adv-x="111" />
<glyph unicode="&#x2010;" horiz-adv-x="759" d="M106 498l23 106q12 66 76 66h444q59 0 47 -66l-22 -106q-14 -68 -74 -68h-444q-64 0 -50 68z" />
<glyph unicode="&#x2011;" horiz-adv-x="759" d="M106 498l23 106q12 66 76 66h444q59 0 47 -66l-22 -106q-14 -68 -74 -68h-444q-64 0 -50 68z" />
<glyph unicode="&#x2012;" horiz-adv-x="759" d="M106 498l23 106q12 66 76 66h444q59 0 47 -66l-22 -106q-14 -68 -74 -68h-444q-64 0 -50 68z" />
<glyph unicode="&#x2013;" horiz-adv-x="1271" d="M121 465l20 106q15 68 78 68h924q62 0 47 -68l-21 -106q-15 -66 -75 -66h-924q-61 0 -49 66z" />
<glyph unicode="&#x2014;" horiz-adv-x="2320" d="M121 465l20 106q15 68 78 68h1970q62 0 47 -68l-20 -106q-12 -66 -76 -66h-1970q-61 0 -49 66z" />
<glyph unicode="&#x2018;" horiz-adv-x="604" d="M211 1112q7 102 79.5 199t168.5 145q25 14 43 14q22 0 22 -20q0 -17 -18 -35q-86 -103 -105 -170q64 -6 104 -51t34 -109q-5 -68 -54 -114.5t-118 -46.5q-30 0 -57.5 10t-51.5 31.5t-37 59t-10 87.5z" />
<glyph unicode="&#x2019;" horiz-adv-x="604" d="M260 1311q3 68 53 115t119 47q65 0 113 -47t41 -142q-7 -104 -79 -201t-167 -145q-33 -14 -45 -14q-23 0 -23 22q0 14 19 33q88 105 104 172q-63 5 -102 50.5t-33 109.5z" />
<glyph unicode="&#x201a;" horiz-adv-x="604" d="M86 141q5 68 54 115t118 47q30 0 57.5 -10t51.5 -31.5t37 -59t10 -87.5q-7 -102 -79.5 -199t-168.5 -145q-26 -15 -43 -15q-23 0 -23 21q0 16 19 35q84 101 104 170q-64 6 -103.5 50.5t-33.5 108.5z" />
<glyph unicode="&#x201c;" horiz-adv-x="1044" d="M211 1112q7 102 79.5 199t168.5 145q25 14 43 14q22 0 22 -20q0 -17 -18 -35q-86 -103 -105 -170q64 -6 104 -51t34 -109q-5 -68 -54 -114.5t-118 -46.5q-30 0 -57.5 10t-51.5 31.5t-37 59t-10 87.5zM637 1112q7 102 79.5 199t168.5 145q25 14 43 14q22 0 22 -20 q0 -17 -18 -35q-86 -103 -105 -170q64 -6 104 -51t34 -109q-5 -68 -54 -114.5t-118 -46.5q-30 0 -57.5 10t-51.5 31.5t-37 59t-10 87.5z" />
<glyph unicode="&#x201d;" horiz-adv-x="1046" d="M260 1311q3 68 53 115t119 47q65 0 113 -47t41 -142q-7 -104 -79 -201t-167 -145q-33 -14 -45 -14q-23 0 -23 22q0 14 19 33q88 105 104 172q-63 5 -102 50.5t-33 109.5zM686 1311q3 68 53 115t119 47q65 0 113 -47t41 -142q-7 -104 -79 -201t-167 -145q-33 -14 -45 -14 q-23 0 -23 22q0 14 19 33q88 105 104 172q-63 5 -102 50.5t-33 109.5z" />
<glyph unicode="&#x201e;" horiz-adv-x="1030" d="M86 141q5 68 54 115t118 47q30 0 57.5 -10t51.5 -31.5t37 -59t10 -87.5q-7 -102 -79.5 -199t-168.5 -145q-26 -15 -43 -15q-23 0 -23 21q0 16 19 35q84 101 104 170q-64 6 -103.5 50.5t-33.5 108.5zM512 141q5 68 54 115t118 47q30 0 57.5 -10t51.5 -31.5t37 -59 t10 -87.5q-7 -102 -79.5 -199t-168.5 -145q-26 -15 -43 -15q-23 0 -23 21q0 16 19 35q84 101 104 170q-64 6 -103.5 50.5t-33.5 108.5z" />
<glyph unicode="&#x2022;" horiz-adv-x="1054" d="M211 711q0 151 105 255.5t257 104.5t258.5 -104.5t106.5 -255.5q0 -149 -106.5 -253t-258.5 -104t-257 104t-105 253z" />
<glyph unicode="&#x2026;" horiz-adv-x="1964" d="M86 139q3 68 52.5 117t115.5 49q69 0 116 -49t44 -117q-1 -67 -51.5 -115.5t-118.5 -48.5q-67 0 -113.5 48t-44.5 116zM766 139q3 68 52.5 117t115.5 49q69 0 116 -49t44 -117q-1 -67 -51.5 -115.5t-118.5 -48.5q-67 0 -113.5 48t-44.5 116zM1446 139q1 67 51.5 116.5 t116.5 49.5q68 0 115 -49t45 -117q-1 -67 -52.5 -115.5t-119.5 -48.5q-67 0 -113 48t-43 116z" />
<glyph unicode="&#x202f;" horiz-adv-x="401" />
<glyph unicode="&#x2039;" horiz-adv-x="831" d="M168 537q0 29 33 67l293 303q31 32 57 45t61 13h129q21 0 32 -10t11 -25q0 -25 -26 -51l-346 -338l192 -316q21 -30 21 -53q0 -35 -52 -35h-124q-35 0 -57 12.5t-40 45.5l-166 288q-18 27 -18 54z" />
<glyph unicode="&#x203a;" horiz-adv-x="831" d="M90 172q0 24 27 51l346 338l-193 313q-20 33 -20 54q0 37 51 37h125q34 0 55.5 -13t40.5 -45l166 -289q19 -33 19 -53q0 -34 -33 -67l-293 -303q-31 -32 -57.5 -45t-61.5 -13h-129q-43 0 -43 35z" />
<glyph unicode="&#x205f;" horiz-adv-x="502" />
<glyph unicode="&#x20ac;" horiz-adv-x="1449" d="M80 510l10 57q12 70 82 70h109v6q0 77 12 156h-86q-35 0 -47 16.5t-6 52.5l10 56q11 69 82 69h100q33 83 81 154.5t120.5 137t162 111.5t210.5 73.5t260 27.5q201 0 327 -49q26 -9 31.5 -24.5t-2.5 -49.5l-33 -125q-9 -43 -45 -43q-20 0 -61.5 12t-104 24.5t-133.5 12.5 q-167 0 -291 -70t-196 -192h547q49 0 49 -30q0 -15 -11 -41l-26 -70q-12 -33 -27.5 -43t-50.5 -10h-555q-14 -69 -14 -150v-12h506q51 0 51 -33q0 -12 -11 -41l-26 -67q-13 -33 -28.5 -43.5t-49.5 -10.5h-403q46 -112 144 -171.5t226 -59.5q72 0 137.5 14.5t108.5 28.5 t61 14q42 0 37 -45l-18 -127q-6 -40 -16.5 -53.5t-49.5 -26.5q-127 -41 -313 -41q-244 0 -414 120.5t-223 346.5h-170q-35 0 -47 16t-6 52z" />
<glyph unicode="&#x2122;" horiz-adv-x="2056" d="M133 1362v49q0 62 55 62h582q55 0 55 -62v-49q0 -59 -55 -59h-195v-650q0 -59 -53 -59h-84q-55 0 -55 59v650h-195q-55 0 -55 59zM979 655v754q0 64 61 64h181q57 0 77 -64l170 -528l170 528q20 64 78 64h176q62 0 62 -64v-754q0 -32 -15 -46.5t-47 -14.5h-67 q-58 0 -58 61v584l-194 -584q-20 -61 -80 -61h-53q-60 0 -80 61l-193 584v-584q0 -61 -57 -61h-70q-61 0 -61 61z" />
<glyph unicode="&#x25fc;" horiz-adv-x="1054" d="M0 0v1055h1055v-1055h-1055z" />
</font>
</defs>
</svg>
