<?xml version="1.0" standalone="no"?>
<!DOCTYPE svg PUBLIC "-//W3C//DTD SVG 1.1//EN" "http://www.w3.org/Graphics/SVG/1.1/DTD/svg11.dtd" >
<svg xmlns="http://www.w3.org/2000/svg">
<metadata></metadata>
<defs>
<font id="heinemann_boldbold" horiz-adv-x="1304" >
<font-face units-per-em="2048" ascent="1475" descent="-573" />
<missing-glyph horiz-adv-x="563" />
<glyph unicode="&#xfb01;" horiz-adv-x="1372" d="M18 909v80q0 66 62 66h168v157q0 398 373 398q82 0 135 -17q25 -9 33 -22.5t6 -40.5l-7 -103q-2 -45 -36 -45q-14 0 -41 4.5t-54 4.5q-69 0 -102 -49.5t-33 -155.5v-131h207q62 0 62 -66v-80q0 -65 -62 -65h-207v-778q0 -66 -59 -66h-156q-63 0 -63 66v778h-164 q-62 0 -62 65zM930 1419q0 66 46 113t111 47q66 0 113 -47t47 -113t-47 -112.5t-113 -46.5q-65 0 -111 46.5t-46 112.5zM950 66v923q0 66 62 66h155q62 0 62 -66v-923q0 -66 -62 -66h-155q-62 0 -62 66z" />
<glyph unicode="&#xfb02;" horiz-adv-x="1480" d="M18 909v80q0 66 62 66h168v157q0 398 373 398q82 0 135 -17q25 -9 33 -22.5t6 -40.5l-7 -103q-2 -45 -36 -45q-14 0 -41 4.5t-54 4.5q-69 0 -102 -49.5t-33 -155.5v-131h207q62 0 62 -66v-80q0 -65 -62 -65h-207v-778q0 -66 -59 -66h-156q-63 0 -63 66v778h-164 q-62 0 -62 65zM967 451v1067q0 67 59 67h156q63 0 63 -67v-1100q0 -101 26 -153t91 -52q21 0 44 4t34 4q23 0 33 -12.5t10 -40.5v-107q0 -23 -9 -34.5t-34 -20.5q-59 -20 -146 -20q-84 0 -144.5 25t-95.5 65t-55 103.5t-26 125t-6 146.5z" />
<glyph horiz-adv-x="0" />
<glyph horiz-adv-x="682" />
<glyph unicode=" "  horiz-adv-x="563" />
<glyph unicode="&#x09;" horiz-adv-x="563" />
<glyph unicode="&#xa0;" horiz-adv-x="563" />
<glyph unicode="!" horiz-adv-x="739" d="M205 139q0 67 48.5 115.5t115.5 48.5t115 -48t48 -116q0 -69 -47.5 -116.5t-115.5 -47.5t-116 47.5t-48 116.5zM219 1411q0 62 64 62h174q61 0 61 -62q0 -47 -4 -125l-31 -766q0 -65 -61 -65h-105q-60 0 -63 65l-29 766q-6 117 -6 125z" />
<glyph unicode="&#x22;" horiz-adv-x="1007" d="M172 1411q0 62 61 62h140q63 0 63 -62q0 -8 -6 -125l-12 -270q0 -64 -62 -64h-104q-61 0 -64 64l-12 270q-4 78 -4 125zM575 1411q0 62 64 62h139q62 0 62 -62q0 -47 -4 -125l-13 -270q-3 -64 -63 -64h-105q-61 0 -61 64l-12 270q-1 14 -2.5 42t-3 50t-1.5 33z" />
<glyph unicode="#" horiz-adv-x="1568" d="M133 485v60q0 73 66 73h229l33 234h-201q-65 0 -65 74v57q0 74 65 74h232l55 370q3 26 17 36t44 10h101q22 0 35.5 -12.5t13.5 -33.5t-4 -49l-49 -321h249l56 370q3 26 17 36t44 10h98q24 0 38 -12.5t14 -33.5q0 -6 -1 -15t-3 -19.5t-3 -14.5l-47 -321h205q64 0 64 -74 v-57q0 -74 -64 -74h-233l-35 -234h207q63 0 63 -73v-60q0 -73 -63 -73h-238l-53 -367q-3 -25 -17.5 -35t-44.5 -10h-100q-49 0 -49 45q0 21 4 49l47 318h-250l-53 -367q-3 -26 -17 -35.5t-44 -9.5h-99q-51 0 -51 45q0 7 6 49l45 318h-198q-66 0 -66 73zM641 618h248l35 234 h-248z" />
<glyph unicode="$" horiz-adv-x="1171" d="M127 1085q0 163 92 263.5t248 132.5v137q0 68 63 68h109q61 0 61 -68v-127q142 -15 234 -57q35 -17 43 -32.5t2 -51.5l-27 -123q-11 -45 -47 -45q-10 0 -23 3t-22 6.5t-34.5 13.5t-41.5 16q-83 26 -166 26q-85 0 -137.5 -40t-52.5 -111q0 -24 8 -45.5t25.5 -41 t34.5 -34.5t47 -32.5t50.5 -28.5t57 -29.5t54.5 -28.5q69 -35 116 -64t93 -68.5t73 -82t43.5 -100t16.5 -127.5q0 -88 -28 -160.5t-77.5 -122t-109.5 -82.5t-132 -51v-135q0 -66 -61 -66h-109q-63 0 -63 66v114q-160 10 -285 68q-32 17 -41 34.5t-6 51.5l19 129q6 49 47 49 q11 0 24 -3.5t23.5 -8t30 -13.5t32.5 -14q110 -45 209 -45q55 0 102.5 17.5t82 60.5t34.5 105q0 35 -14 65t-35.5 53t-57 45.5t-69.5 40t-81 40.5q-3 1 -5.5 2.5t-5.5 2.5q-79 39 -134.5 75t-106.5 87t-77 117.5t-26 148.5z" />
<glyph unicode="%" horiz-adv-x="1890" d="M115 1065q0 432 329 432q330 0 330 -432q0 -428 -330 -428q-329 0 -329 428zM324 1067q0 -258 120 -258q121 0 121 258q0 260 -121 260q-120 0 -120 -260zM420 -16q0 18 14 43l848 1446q13 25 31.5 35t48.5 10h70q41 0 41 -33q0 -16 -15 -41l-848 -1448q-23 -43 -80 -43 h-69q-41 0 -41 31zM1116 403q0 431 330 431t330 -431q0 -430 -330 -430t-330 430zM1325 406q0 -261 121 -261t121 261q0 258 -121 258t-121 -258z" />
<glyph unicode="&#x26;" horiz-adv-x="1511" d="M121 393q0 64 16.5 120t43.5 98t68 80t81.5 65t93.5 55q-145 180 -145 336q0 165 113.5 257.5t295.5 92.5q180 0 287.5 -84t107.5 -250q0 -59 -18.5 -111t-44.5 -88.5t-71.5 -73.5t-82.5 -60t-94 -54l268 -303q54 117 54 254q0 34 20 51t51 17h113q36 0 50.5 -20 t14.5 -64q0 -235 -129 -430l187 -209q23 -25 15 -48.5t-42 -23.5h-198q-34 0 -54 9.5t-43 35.5l-47 55q-175 -125 -405 -125q-235 0 -370.5 112t-135.5 306zM416 414q0 -104 73 -160.5t183 -56.5q118 0 211 77l-324 377q-143 -103 -143 -237zM537 1137q0 -83 110 -219 q97 49 148 100t51 123q0 71 -42.5 112t-117.5 41q-67 0 -108 -43t-41 -114z" />
<glyph unicode="'" horiz-adv-x="604" d="M172 1411q0 62 61 62h140q63 0 63 -62q0 -8 -6 -125l-12 -270q0 -64 -62 -64h-104q-61 0 -64 64l-12 270q-4 78 -4 125z" />
<glyph unicode="(" horiz-adv-x="788" d="M188 633q0 477 289 878q49 66 109 66h92q47 0 47 -39q0 -25 -14 -47q-115 -199 -180.5 -421t-65.5 -437q0 -216 65 -438.5t181 -421.5q14 -22 14 -45q0 -39 -47 -39h-92q-63 0 -109 65q-289 397 -289 879z" />
<glyph unicode=")" horiz-adv-x="788" d="M70 -272q0 23 14 45q116 199 181 421.5t65 438.5q0 215 -65.5 437t-180.5 421q-14 22 -14 47q0 39 47 39h92q59 0 108 -66q289 -401 289 -878q0 -482 -289 -879q-46 -65 -108 -65h-92q-47 0 -47 39z" />
<glyph unicode="*" horiz-adv-x="1007" d="M94 1122q0 7 4 27l27 80q14 43 49 43q20 0 33 -8l223 -99l-27 203q-4 32 -4 51q0 54 58 54h92q57 0 57 -54q0 -19 -4 -51l-27 -203l224 99q16 8 32 8q36 0 50 -43l26 -80q6 -15 6 -27q0 -41 -55 -51l-240 -47l168 -178q19 -22 19 -43q0 -28 -29 -45l-69 -51 q-19 -13 -39 -13q-32 0 -52 33l-112 213l-115 -213q-20 -33 -51 -33q-20 0 -39 13l-70 51q-26 17 -26 45q0 22 18 43l166 178l-240 47q-53 10 -53 51z" />
<glyph unicode="+" horiz-adv-x="1226" d="M96 463v106q0 68 62 68h336v336q0 61 65 61h107q67 0 67 -61v-336h336q61 0 61 -68v-106q0 -66 -61 -66h-336v-336q0 -61 -67 -61h-107q-65 0 -65 61v336h-336q-62 0 -62 66z" />
<glyph unicode="," horiz-adv-x="604" d="M139 141q0 68 46.5 115t115.5 47q30 0 58.5 -10t53.5 -31t40.5 -59t15.5 -88q0 -102 -65.5 -199t-157.5 -145q-26 -15 -43 -15q-10 0 -17.5 5.5t-7.5 15.5q0 14 15 35q80 99 94 170q-64 6 -106 50.5t-42 108.5z" />
<glyph unicode="-" horiz-adv-x="759" d="M94 498v106q0 66 64 66h444q60 0 60 -66v-106q0 -68 -60 -68h-444q-64 0 -64 68z" />
<glyph unicode="." horiz-adv-x="602" d="M139 139q0 68 47.5 116t114.5 48q69 0 117.5 -48t48.5 -116q0 -69 -48.5 -116.5t-117.5 -47.5q-68 0 -115 47.5t-47 116.5z" />
<glyph unicode="/" horiz-adv-x="694" d="M6 10q0 15 12 51l461 1387q16 49 62 49h114q43 0 43 -35q0 -15 -12 -51l-461 -1386q-16 -50 -61 -50h-115q-43 0 -43 35z" />
<glyph unicode="0" horiz-adv-x="1280" d="M113 735q0 84 6 157.5t21.5 152.5t40.5 143.5t66 123t94.5 98.5t129.5 63.5t168 23.5q526 0 526 -762q0 -84 -6 -158t-21.5 -152.5t-40.5 -143t-66 -122.5t-95 -98t-129.5 -63t-167.5 -23t-168 23.5t-129.5 63t-94.5 97.5t-66 122t-40.5 143t-21.5 153t-6 158zM403 735 q0 -256 55 -393t181 -137q85 0 138 67t75 181t22 282q0 125 -12.5 219.5t-39.5 166t-73 108.5t-110 37q-126 0 -181 -137.5t-55 -393.5z" />
<glyph unicode="1" horiz-adv-x="667" d="M188 66v1339q0 68 62 68h168q61 0 61 -68v-1339q0 -66 -61 -66h-168q-62 0 -62 66z" />
<glyph unicode="2" horiz-adv-x="1136" d="M47 68v96q0 39 12.5 68.5t49.5 60.5q12 11 63.5 57t67 60.5t57 52.5t61 56.5t49.5 47.5t51 51.5t40 43.5q100 112 148 196t48 174q0 105 -65 159t-178 54q-75 0 -141 -15.5t-110 -31.5t-65 -16q-34 0 -37 43l-8 137q-2 32 6.5 47t36.5 27q63 26 169 43.5t190 17.5 q232 0 372 -110.5t140 -319.5q0 -225 -213 -473q-67 -79 -148.5 -157t-214.5 -195h535q34 0 49.5 -16.5t15.5 -53.5v-104q0 -68 -65 -68h-848q-68 0 -68 68z" />
<glyph unicode="3" horiz-adv-x="1128" d="M55 96l11 129q3 43 43 43q22 0 60.5 -15t98 -30.5t131.5 -15.5q61 0 116 10.5t105 34t79.5 67.5t29.5 103q0 109 -76 163t-221 54l-100 -2q-37 0 -52.5 14.5t-15.5 48.5v97q0 65 68 65l88 -4q53 0 100.5 10.5t90.5 33t68.5 64.5t25.5 99q0 99 -68 145.5t-188 46.5 q-71 0 -133.5 -14.5t-104.5 -29.5t-64 -15q-35 0 -38 41l-13 125q-1 32 8 47t37 27q63 28 160 43.5t184 15.5q82 0 155 -12.5t140.5 -41.5t116.5 -73.5t78 -113t29 -154.5q0 -133 -78 -223t-213 -121q142 -23 226.5 -109t84.5 -237q0 -95 -33.5 -170.5t-90 -124.5 t-135 -81.5t-163.5 -46.5t-180 -14q-209 0 -324 48q-28 11 -37 25.5t-6 47.5z" />
<glyph unicode="4" horiz-adv-x="1251" d="M51 365v114q0 55 23 88l514 838q26 40 46.5 54t61.5 14h181q47 0 47 -33q0 -18 -21 -49l-551 -850h375v243q0 68 61 68h158q62 0 62 -68v-243h127q65 0 65 -70v-102q0 -70 -65 -70h-127v-233q0 -66 -62 -66h-158q-61 0 -61 66v233h-608q-68 0 -68 66z" />
<glyph unicode="5" horiz-adv-x="1161" d="M117 96l10 129q3 43 41 43q22 0 62 -15.5t100 -31t131 -14.5q140 0 225.5 65.5t85.5 192.5q0 132 -89 198t-249 66q-71 0 -144 -14.5t-93 -14.5q-60 0 -60 70l8 633q0 70 68 70h733q66 0 66 -70v-105q0 -69 -66 -69h-532l-8 -303q78 16 159 16q105 0 194.5 -28t158.5 -83 t108 -144t39 -202q0 -167 -77 -284t-207.5 -171.5t-303.5 -54.5q-200 0 -315 48q-29 11 -38.5 25.5t-6.5 47.5z" />
<glyph unicode="6" horiz-adv-x="1232" d="M100 750q0 154 38.5 287t114 237t198 163.5t278.5 59.5q166 0 281 -45q28 -11 37 -26.5t6 -47.5l-11 -125q-3 -41 -38 -41q-23 0 -57.5 12.5t-83.5 25t-107 12.5q-95 0 -167 -36t-116 -101.5t-66 -150.5t-24 -188q126 144 322 144q199 0 316.5 -126t117.5 -339 q0 -137 -59.5 -247.5t-176.5 -176.5t-272 -66q-531 0 -531 775zM414 453q0 -113 59 -190t162 -77q102 0 160.5 79.5t58.5 191.5q0 111 -57.5 183.5t-155.5 72.5q-103 0 -165 -74t-62 -186z" />
<glyph unicode="7" horiz-adv-x="1058" d="M23 1298v105q0 70 67 70h838q65 0 65 -70v-78q0 -52 -18 -92l-486 -1167q-18 -42 -40.5 -54t-67.5 -12h-166q-49 0 -49 39q0 19 8 35l512 1155h-596q-67 0 -67 69z" />
<glyph unicode="8" horiz-adv-x="1251" d="M90 391q0 136 80 231.5t221 141.5v4q-119 40 -190.5 134.5t-71.5 215.5q0 99 42 174t114 118.5t159.5 65t188.5 21.5q70 0 136 -12t128.5 -40t109.5 -68.5t75 -102.5t28 -137q0 -126 -61.5 -211.5t-186.5 -141.5v-4q138 -48 217.5 -142t79.5 -230q0 -88 -28.5 -161 t-78 -122.5t-118 -84t-146.5 -50t-165 -15.5q-111 0 -205 24t-168.5 72t-117 130t-42.5 190zM389 412q0 -101 69 -159t171 -58q101 0 167.5 53t67.5 149q3 100 -63.5 160.5t-206.5 112.5q-101 -53 -153 -112t-52 -146zM408 1104q0 -42 19.5 -79t56 -67t75 -52t88.5 -44 q87 58 132.5 114t45.5 130q0 84 -59.5 130t-149.5 46q-82 0 -145 -48t-63 -130z" />
<glyph unicode="9" horiz-adv-x="1294" d="M82 1008q0 99 28 186.5t82 155.5t140 107.5t194 39.5q195 0 305 -131v39q0 68 62 68h168q61 0 61 -68v-1339q0 -66 -61 -66h-168q-62 0 -62 66v600h-8q-103 -127 -299 -127q-199 0 -320.5 131.5t-121.5 337.5zM383 1016q0 -113 56.5 -185.5t160.5 -72.5q107 0 169 70.5 t62 179.5q0 120 -59 197t-166 77q-102 0 -162.5 -78t-60.5 -188z" />
<glyph unicode=":" horiz-adv-x="604" d="M139 139q0 68 47.5 116t114.5 48q69 0 117.5 -48t48.5 -116q0 -69 -48.5 -116.5t-117.5 -47.5q-68 0 -115 47.5t-47 116.5zM139 915q0 68 47.5 116t114.5 48q69 0 117.5 -48t48.5 -116q0 -69 -48.5 -116t-117.5 -47q-68 0 -115 47t-47 116z" />
<glyph unicode=";" horiz-adv-x="604" d="M139 141q0 68 46.5 115t115.5 47q30 0 58.5 -10t53.5 -31t40.5 -59t15.5 -88q0 -102 -65.5 -199t-157.5 -145q-26 -15 -43 -15q-10 0 -17.5 5.5t-7.5 15.5q0 14 15 35q80 99 94 170q-64 6 -106 50.5t-42 108.5zM139 915q0 68 47.5 116t114.5 48q69 0 117.5 -48t48.5 -116 q0 -69 -48.5 -116t-117.5 -47q-68 0 -115 47t-47 116z" />
<glyph unicode="&#x3c;" horiz-adv-x="1325" d="M137 504v53q0 43 14.5 59.5t69.5 40.5l862 379q47 19 70 19q33 0 33 -56v-63q0 -56 -13 -74t-69 -43l-678 -293l678 -290q56 -23 69 -41.5t13 -75.5v-64q0 -55 -33 -55q-25 0 -70 18l-862 379q-55 24 -69.5 41.5t-14.5 65.5z" />
<glyph unicode="=" horiz-adv-x="1263" d="M102 227v92q0 66 62 66h934q61 0 61 -66v-92q0 -67 -61 -67h-934q-62 0 -62 67zM102 717v92q0 65 62 65h934q61 0 61 -65v-92q0 -68 -61 -68h-934q-62 0 -62 68z" />
<glyph unicode="&#x3e;" horiz-adv-x="1325" d="M137 55v64q0 57 13.5 75.5t70.5 41.5l678 290l-678 293q-57 23 -70.5 41.5t-13.5 75.5v63q0 56 35 56q20 0 68 -19l864 -379q54 -24 68 -40.5t14 -59.5v-53q0 -49 -13.5 -66t-68.5 -41l-864 -379q-45 -18 -68 -18q-35 0 -35 55z" />
<glyph unicode="?" horiz-adv-x="1073" d="M127 1362q-1 32 8 47t37 27q66 28 163 44.5t189 16.5q189 0 307.5 -91t118.5 -261q0 -69 -22 -132.5t-64 -120t-84 -98.5t-102 -92q-45 -38 -45 -96v-88q0 -61 -58 -61h-135q-55 0 -55 63v133q0 69 47 119q23 25 63.5 62.5t65 62.5t51 58t39.5 67.5t13 71.5 q0 79 -52.5 122.5t-142.5 43.5q-68 0 -128.5 -17t-102.5 -34t-66 -17q-34 0 -37 43zM340 139q0 67 48 115.5t116 48.5t116 -48.5t48 -115.5q0 -69 -48 -116.5t-116 -47.5t-116 47.5t-48 116.5z" />
<glyph unicode="@" horiz-adv-x="1732" d="M127 733q0 159 56 299t156.5 242.5t247 161.5t318.5 59q137 0 263 -43.5t223 -122.5t155 -199t58 -262q0 -226 -140.5 -381t-345.5 -155q-120 0 -135 106h-6q-38 -55 -93.5 -80.5t-111.5 -25.5q-117 0 -196.5 86t-79.5 221q0 81 28.5 163.5t78.5 151.5t127.5 112.5 t166.5 43.5q131 0 197 -117h8l8 31q6 30 19 44.5t38 14.5h45q36 0 46 -20t-1 -55l-106 -418q-26 -105 43 -105q78 0 141.5 55t96 134.5t32.5 161.5q0 233 -157.5 371.5t-401.5 138.5q-171 0 -311.5 -79t-221.5 -220.5t-81 -317.5q0 -278 167 -440t466 -162q268 0 450 141 q2 2 10 8.5t12 9t11 7.5t12.5 6t11.5 1t12 -4t11 -11l27 -35q15 -20 15.5 -33t-17.5 -33q-99 -105 -250 -157t-316 -52q-354 0 -570 206t-216 552zM674 659q0 -69 35.5 -111t95.5 -42q65 0 116 47t75.5 110.5t25.5 127.5q0 59 -36.5 101t-88.5 42q-64 0 -116.5 -43 t-79.5 -105.5t-27 -126.5z" />
<glyph unicode="A" horiz-adv-x="1513" d="M41 37q0 11 8 31l512 1337q25 68 86 68h219q57 0 82 -68l516 -1339q9 -22 9 -29q0 -37 -52 -37h-186q-67 0 -88 63l-98 277h-609l-98 -277q-21 -63 -88 -63h-164q-49 0 -49 37zM522 575h449l-219 615h-9z" />
<glyph unicode="B" horiz-adv-x="1331" d="M168 66v1339q0 68 61 68h418q113 0 203.5 -19.5t162 -62t110 -115.5t38.5 -174q0 -261 -268 -346q145 -26 225 -119t80 -234q0 -202 -141.5 -302.5t-411.5 -100.5h-416q-61 0 -61 66zM459 225h129q158 0 235.5 49.5t77.5 153.5q0 221 -321 221h-121v-424zM459 866h106 q71 0 123.5 9t96 30.5t65.5 61.5t22 98q0 182 -258 182h-155v-381z" />
<glyph unicode="C" horiz-adv-x="1310" d="M96 735q0 351 221 563q211 199 560 199q73 0 167 -14.5t156 -38.5q29 -10 38 -25t7 -49l-8 -139q-3 -43 -37 -43q-12 0 -26 4.5t-41 15t-48 17.5q-92 30 -196 30q-226 0 -361 -147q-133 -142 -133 -377q0 -237 148 -379q140 -137 356 -137q95 0 170 21q22 5 50.5 15 t47.5 15.5t33 5.5q42 0 45 -45l6 -123v-16q1 -28 -5 -38q-8 -12 -44 -25q-62 -24 -152 -37t-173 -13q-335 0 -545 189q-236 207 -236 571z" />
<glyph unicode="D" horiz-adv-x="1525" d="M168 66v1339q0 68 61 68h398q181 0 326 -44t251.5 -131.5t164.5 -227.5t58 -325q0 -365 -207 -555t-595 -190h-396q-61 0 -61 66zM459 238h178q489 0 489 499q0 237 -139 373q-127 121 -360 121h-168v-993z" />
<glyph unicode="E" horiz-adv-x="1173" d="M168 68v1335q0 70 68 70h759q66 0 66 -70v-105q0 -69 -66 -69h-536v-346h483q66 0 66 -70v-102q0 -70 -66 -70h-483v-399h536q66 0 66 -70v-104q0 -68 -66 -68h-759q-68 0 -68 68z" />
<glyph unicode="F" horiz-adv-x="1093" d="M168 68v1335q0 70 68 70h714q66 0 66 -70v-105q0 -69 -66 -69h-491v-346h446q66 0 66 -70v-102q0 -70 -66 -70h-446v-573q0 -68 -66 -68h-157q-68 0 -68 68z" />
<glyph unicode="G" horiz-adv-x="1521" d="M96 735q0 343 217 551q220 211 582 211q224 0 389 -51q36 -12 45 -25.5t6 -54.5l-14 -133q-2 -25 -11.5 -36t-31.5 -11q-16 0 -33 4.5t-49.5 16t-46.5 16.5q-106 32 -244 32q-235 0 -377 -151q-133 -148 -133 -373q0 -104 35 -200.5t98 -165.5q140 -150 357 -150 q112 0 194 23v348h-237q-35 0 -51.5 16t-16.5 51v111q0 70 68 70h456q66 0 66 -70v-651q0 -36 -14 -55.5t-47 -30.5q-162 -52 -426 -52q-360 0 -570 207q-211 208 -211 553z" />
<glyph unicode="H" horiz-adv-x="1511" d="M168 68v1335q0 70 68 70h157q66 0 66 -70v-516h594v516q0 70 69 70h156q65 0 65 -70v-1335q0 -68 -65 -68h-156q-69 0 -69 68v573h-594v-573q0 -68 -66 -68h-157q-68 0 -68 68z" />
<glyph unicode="I" horiz-adv-x="798" d="M66 66v100q0 67 63 67h125v1006h-125q-63 0 -63 66v100q0 68 63 68h541q61 0 61 -68v-100q0 -66 -61 -66h-125v-1006h125q61 0 61 -67v-100q0 -66 -61 -66h-541q-63 0 -63 66z" />
<glyph unicode="J" horiz-adv-x="917" d="M27 63v117q0 56 45 56q8 0 43 -8.5t67 -8.5q110 0 158.5 65.5t48.5 223.5v731h-184q-68 0 -68 68v96q0 70 68 70h592q65 0 65 -70v-96q0 -68 -65 -68h-119v-766q0 -245 -101.5 -371.5t-332.5 -126.5q-124 0 -174 23q-23 9 -33 24t-10 41z" />
<glyph unicode="K" horiz-adv-x="1400" d="M168 68v1335q0 70 68 70h157q66 0 66 -70v-553l481 565q26 37 47.5 47.5t67.5 10.5h213q43 0 43 -33q0 -19 -23 -49l-534 -605l583 -706q23 -31 23 -47q0 -33 -41 -33h-240q-46 0 -67 10t-47 45l-506 635v-622q0 -68 -66 -68h-157q-68 0 -68 68z" />
<glyph unicode="L" horiz-adv-x="1091" d="M168 68v1335q0 70 68 70h157q66 0 66 -70v-1161h522q66 0 66 -70v-104q0 -68 -66 -68h-745q-68 0 -68 68z" />
<glyph unicode="M" horiz-adv-x="1945" d="M168 68v1335q0 70 68 70h323q65 0 86 -70l330 -1006l330 1006q21 70 86 70h319q68 0 68 -70v-1335q0 -68 -68 -68h-147q-66 0 -66 68v1083l-360 -1083q-20 -68 -88 -68h-152q-68 0 -88 68l-360 1083v-1083q0 -68 -66 -68h-147q-68 0 -68 68z" />
<glyph unicode="N" horiz-adv-x="1548" d="M168 68v1335q0 70 68 70h253q63 0 97 -70l528 -1034v1034q0 70 68 70h131q67 0 67 -70v-1333q0 -70 -67 -70h-234q-67 0 -100 68l-547 1056v-1056q0 -68 -65 -68h-131q-68 0 -68 68z" />
<glyph unicode="O" horiz-adv-x="1603" d="M96 735q0 356 186 559t519 203q335 0 519.5 -202.5t184.5 -559.5q0 -358 -184.5 -559t-519.5 -201q-334 0 -519.5 201.5t-185.5 558.5zM395 735q0 -84 14.5 -159.5t46.5 -142t78.5 -114.5t115 -76t151.5 -28q84 0 152.5 28t115 76.5t78 115t45.5 141.5t14 159t-14 159 t-45.5 141.5t-78 115t-115 76.5t-152.5 28q-103 0 -183 -42.5t-127.5 -116t-71.5 -165t-24 -196.5z" />
<glyph unicode="P" horiz-adv-x="1247" d="M168 68v1335q0 70 68 70h327q304 0 453 -110t149 -349q0 -224 -150.5 -344.5t-400.5 -120.5h-155v-481q0 -68 -66 -68h-157q-68 0 -68 68zM459 784h133q274 0 274 228q0 225 -286 225h-121v-453z" />
<glyph unicode="Q" horiz-adv-x="1603" d="M96 735q0 356 186 559t519 203q335 0 519.5 -202.5t184.5 -559.5q0 -218 -71 -380.5t-205 -258.5l213 -239q24 -27 24 -41q0 -15 -11 -24t-28 -9h-204q-40 0 -58.5 9t-44.5 38l-133 164q-90 -19 -186 -19q-334 0 -519.5 201.5t-185.5 558.5zM395 735q0 -84 14.5 -159.5 t46.5 -142t78.5 -114.5t115 -76t151.5 -28h4l-92 115q-21 24 -21 43q0 13 10.5 20.5t26.5 7.5h170q41 0 59 -7.5t43 -35.5l48 -55q79 69 118 182.5t39 249.5q0 84 -14 159t-45.5 141.5t-78 115t-115 76.5t-152.5 28q-103 0 -183 -42.5t-127.5 -116t-71.5 -165t-24 -196.5z " />
<glyph unicode="R" horiz-adv-x="1318" d="M168 68v1335q0 70 68 70h333q142 0 248 -20.5t190 -67.5t127.5 -131t43.5 -205q0 -128 -67.5 -222.5t-182.5 -148.5l313 -598q14 -28 14 -45q0 -35 -47 -35h-184q-46 0 -67.5 11t-38.5 46l-275 559h-184v-548q0 -68 -66 -68h-157q-68 0 -68 68zM459 850h141q128 0 200 47 t72 147q0 55 -22 94t-63.5 60t-92 30t-116.5 9h-119v-387z" />
<glyph unicode="S" horiz-adv-x="1114" d="M86 1085q0 103 38 182.5t105.5 129t155.5 75t193 25.5q69 0 159 -16.5t156 -46.5q35 -17 43 -32.5t2 -51.5l-27 -123q-11 -45 -47 -45q-10 0 -23 3t-22 6.5t-34.5 13.5t-41.5 16q-83 26 -165 26q-85 0 -138 -40t-53 -111q0 -24 8 -45.5t25.5 -41t34.5 -34.5t47 -32.5 t50.5 -28.5t57 -29.5t54.5 -28.5q69 -35 116 -64t93 -68.5t73 -82t43.5 -100t16.5 -127.5q0 -92 -31.5 -167.5t-83 -125t-120.5 -83.5t-141 -48.5t-147 -14.5q-193 0 -342 70q-32 17 -41 34.5t-6 51.5l19 129q6 49 47 49q11 0 24 -3.5t23.5 -8t30 -13.5t32.5 -14 q110 -45 209 -45q55 0 102.5 17.5t82 60.5t34.5 105q0 35 -14 65t-35.5 53t-57 45.5t-69.5 40t-81 40.5q-3 1 -5.5 2.5t-5.5 2.5q-79 39 -134.5 75t-106.5 87t-77 117.5t-26 148.5z" />
<glyph unicode="T" horiz-adv-x="1236" d="M51 1284v121q0 68 62 68h1011q62 0 62 -68v-121q0 -65 -62 -65h-360v-1153q0 -66 -62 -66h-165q-64 0 -64 66v1153h-360q-62 0 -62 65z" />
<glyph unicode="U" horiz-adv-x="1499" d="M158 588v817q0 68 63 68h166q62 0 62 -68v-774q0 -395 299 -395q303 0 303 395v774q0 68 61 68h166q63 0 63 -68v-817q0 -301 -158 -457t-435 -156q-284 0 -437 159t-153 454z" />
<glyph unicode="V" horiz-adv-x="1449" d="M41 1436q0 37 49 37h174q34 0 54 -15.5t32 -50.5l373 -1102h8l359 1102q18 66 86 66h186q47 0 47 -37q0 -9 -8 -33l-473 -1335q-22 -68 -84 -68h-238q-58 0 -82 68l-477 1337q-1 4 -3.5 15t-2.5 16z" />
<glyph unicode="W" horiz-adv-x="2101" d="M41 1436q0 37 43 37h172q60 0 78 -66l289 -1102h8l248 1102q15 66 77 66h189q61 0 76 -66l276 -1102h6l264 1102q14 66 76 66h172q45 0 45 -37q0 -9 -8 -37l-346 -1331q-15 -68 -74 -68h-239q-61 0 -76 68l-260 970h-8l-234 -970q-16 -68 -76 -68h-235q-58 0 -76 68 l-381 1331q-6 18 -6 37z" />
<glyph unicode="X" horiz-adv-x="1433" d="M41 35q0 14 14 35l490 694l-447 637q-14 21 -14 35q0 37 47 37h221q37 0 54.5 -12.5t39.5 -47.5l279 -432l283 428q16 25 25.5 36t27.5 19.5t43 8.5h199q47 0 47 -35q0 -14 -15 -37l-446 -631l489 -698q15 -21 15 -37q0 -35 -47 -35h-222q-37 0 -54.5 11.5t-39.5 45.5 l-323 498l-324 -494q-16 -24 -25.5 -34.5t-27.5 -18.5t-43 -8h-199q-47 0 -47 35z" />
<glyph unicode="Y" horiz-adv-x="1431" d="M41 1436q0 37 45 37h201q39 0 55.5 -11.5t36.5 -46.5l334 -555l336 555q20 35 36.5 46.5t55.5 11.5h205q20 0 32.5 -9.5t12.5 -27.5q0 -14 -15 -37l-518 -815v-516q0 -68 -65 -68h-156q-70 0 -70 68v526l-514 805q-12 24 -12 37z" />
<glyph unicode="Z" horiz-adv-x="1189" d="M63 70v110q0 39 8 62t33 57l654 920h-606q-68 0 -68 69v115q0 70 68 70h880q66 0 66 -70v-113q0 -37 -8.5 -59.5t-34.5 -59.5l-654 -919h646q35 0 51 -16.5t16 -51.5v-114q0 -37 -16 -53.5t-51 -16.5h-918q-66 0 -66 70z" />
<glyph unicode="[" horiz-adv-x="753" d="M143 -242v1749q0 70 68 70h395q66 0 66 -70v-100q0 -68 -66 -68h-178v-1411h178q66 0 66 -69v-101q0 -67 -66 -67h-395q-35 0 -51.5 16t-16.5 51z" />
<glyph unicode="\" horiz-adv-x="694" d="M2 1462q0 35 43 35h115q45 0 61 -49l461 -1387q12 -36 12 -51q0 -35 -43 -35h-114q-46 0 -62 50l-461 1386q-12 36 -12 51z" />
<glyph unicode="]" horiz-adv-x="753" d="M82 -141q0 69 65 69h179v1411h-179q-65 0 -65 68v100q0 70 65 70h394q69 0 69 -70v-1749q0 -67 -69 -67h-394q-34 0 -49.5 16t-15.5 51v101z" />
<glyph unicode="^" horiz-adv-x="1261" d="M123 686q0 16 27 68l333 655q30 64 90 64h115q60 0 90 -64l334 -655q27 -52 27 -68q0 -43 -47 -43h-125q-32 0 -52.5 14.5t-37.5 49.5l-246 495l-246 -495q-17 -35 -37.5 -49.5t-52.5 -14.5h-125q-47 0 -47 43z" />
<glyph unicode="_" horiz-adv-x="845" d="M-63 -322q0 66 63 66h846q61 0 61 -66v-22q0 -68 -61 -68h-846q-63 0 -63 68v22z" />
<glyph unicode="`" horiz-adv-x="622" d="M43 1509q0 37 43 37h150q42 0 65 -14.5t45 -48.5l137 -217q11 -18 11 -35q0 -33 -50 -33h-77q-38 0 -59 9.5t-48 41.5l-192 211q-25 25 -25 49z" />
<glyph unicode="a" horiz-adv-x="1308" d="M84 543q0 140 54 261t161.5 198t247.5 77q211 0 332 -133h8v43q0 66 63 66h156q59 0 59 -66v-923q0 -66 -59 -66h-145q-64 0 -64 66v67h-8q-122 -158 -334 -158q-115 0 -206.5 46t-148.5 125t-86.5 180t-29.5 217zM375 532q0 -89 27 -163.5t86.5 -123t140.5 -48.5 q124 0 192 93t68 234q0 151 -70.5 242.5t-187.5 91.5q-120 0 -188 -95t-68 -231z" />
<glyph unicode="b" horiz-adv-x="1310" d="M143 66v1452q0 67 60 67h155q64 0 64 -67v-598h6q59 82 140 120.5t198 38.5q115 0 204.5 -44t144.5 -121t83.5 -177.5t28.5 -218.5q0 -108 -29.5 -205t-86 -173t-145.5 -120.5t-200 -44.5q-230 0 -346 152h-6v-61q0 -66 -64 -66h-147q-60 0 -60 66zM422 537 q0 -159 70.5 -249.5t189.5 -90.5q122 0 188 91t66 234q0 90 -26 164.5t-84.5 123t-139.5 48.5q-121 0 -192.5 -94t-71.5 -227z" />
<glyph unicode="c" horiz-adv-x="980" d="M84 524q0 247 157 401t414 154q127 0 224 -39q28 -12 37 -28t6 -43l-9 -101q-3 -41 -43 -41q-12 0 -70.5 17.5t-117.5 17.5q-138 0 -222.5 -97.5t-84.5 -240.5q0 -146 88 -240t237 -94q58 0 116.5 18.5t70.5 18.5q19 0 28.5 -9t10.5 -32l6 -104q3 -44 -49 -68 q-88 -39 -238 -39q-254 0 -407.5 154t-153.5 395z" />
<glyph unicode="d" horiz-adv-x="1310" d="M84 543q0 102 30 197t85.5 171t144.5 122t197 46q227 0 342 -151h6v590q0 67 63 67h156q59 0 59 -67v-1452q0 -66 -59 -66h-141q-64 0 -64 66v75h-12q-109 -166 -338 -166q-115 0 -206.5 46t-147.5 125t-85.5 180t-29.5 217zM375 532q0 -139 65.5 -237t184.5 -98 q121 0 192.5 93.5t71.5 233.5q0 151 -71.5 242.5t-188.5 91.5q-120 0 -187 -95t-67 -231z" />
<glyph unicode="e" horiz-adv-x="1181" d="M84 535q0 243 146 393.5t380 150.5q246 0 370 -150.5t124 -408.5q0 -69 -80 -69h-653q11 -124 98.5 -198.5t224.5 -74.5q73 0 133.5 16t97.5 32t54 16q34 0 37 -41l8 -103q1 -27 -10.5 -42t-44.5 -27q-137 -54 -310 -54q-272 0 -423.5 149.5t-151.5 410.5zM371 629h469 q-3 115 -62 181.5t-162 66.5t-168.5 -67.5t-76.5 -180.5z" />
<glyph unicode="f" horiz-adv-x="821" d="M18 909v80q0 66 62 66h168v157q0 398 373 398q82 0 135 -17q25 -9 33 -23q6 -10 6 -30v-10l-7 -103q-2 -45 -36 -45q-14 0 -41 4.5t-54 4.5q-69 0 -102 -49.5t-33 -155.5v-131h207q62 0 62 -66v-80q0 -65 -62 -65h-207v-778q0 -66 -59 -66h-156q-63 0 -63 66v778h-164 q-62 0 -62 65z" />
<glyph unicode="g" horiz-adv-x="1310" d="M84 543q0 102 29.5 196.5t85.5 171t146 122.5t202 46q227 0 342 -151h10v61q0 66 64 66h145q59 0 59 -66v-1005q0 -278 -148.5 -409.5t-447.5 -131.5q-81 0 -169.5 16t-153.5 43q-44 17 -55.5 34t-6.5 54l15 99q5 24 15.5 34.5t31.5 10.5q17 0 58.5 -19t110.5 -38 t152 -19q320 0 320 332v168h-6q-101 -158 -334 -158q-113 0 -202.5 43t-146.5 117.5t-86.5 172t-29.5 210.5zM375 537q0 -138 65 -231t185 -93q124 0 194 89.5t70 227.5q0 151 -72.5 241.5t-187.5 90.5q-120 0 -187 -94.5t-67 -230.5z" />
<glyph unicode="h" d="M143 66v1452q0 67 62 67h155q62 0 62 -67v-607h6q118 168 340 168q86 0 154 -23t112 -63t73 -96t41.5 -118t12.5 -134v-579q0 -66 -61 -66h-156q-61 0 -61 66v464q0 158 -44 237t-153 79q-127 0 -195.5 -97t-68.5 -266v-417q0 -66 -62 -66h-155q-62 0 -62 66z" />
<glyph unicode="i" horiz-adv-x="565" d="M123 1419q0 66 46.5 113t111.5 47q66 0 112.5 -47t46.5 -113t-46.5 -112.5t-112.5 -46.5q-65 0 -111.5 46.5t-46.5 112.5zM143 66v923q0 66 62 66h155q62 0 62 -66v-923q0 -66 -62 -66h-155q-62 0 -62 66z" />
<glyph unicode="j" horiz-adv-x="565" d="M-86 -483l10 100q3 30 13.5 42.5t35.5 12.5q7 0 24.5 -2t31.5 -2q65 0 89.5 57t24.5 173v1091q0 66 62 66h155q62 0 62 -66v-1091q0 -230 -79 -342.5t-275 -112.5q-68 0 -109 10q-45 11 -45 55v9zM123 1419q0 66 46.5 113t111.5 47q66 0 112.5 -47t46.5 -113 t-46.5 -112.5t-112.5 -46.5q-65 0 -111.5 46.5t-46.5 112.5z" />
<glyph unicode="k" horiz-adv-x="1157" d="M143 66v1452q0 67 62 67h155q62 0 62 -67v-906l356 398q23 28 39 36.5t55 8.5h191q45 0 45 -33q0 -14 -14 -31l-385 -416l440 -512q14 -14 14 -30q0 -33 -45 -33h-209q-41 0 -57.5 8.5t-36.5 34.5l-393 483v-460q0 -66 -62 -66h-155q-62 0 -62 66z" />
<glyph unicode="l" horiz-adv-x="657" d="M143 451v1067q0 67 60 67h155q64 0 64 -67v-1100q0 -101 26 -153t91 -52q21 0 43.5 4t33.5 4q23 0 33 -12.5t10 -40.5v-107q0 -23 -9 -34.5t-34 -20.5q-59 -20 -145 -20q-84 0 -145 25t-95.5 65t-55 103.5t-26.5 125.5t-6 146z" />
<glyph unicode="m" horiz-adv-x="1925" d="M143 66v923q0 66 60 66h147q64 0 64 -66v-80h4q107 170 309 170q258 0 340 -202h6q48 89 132 145.5t204 56.5q106 0 181 -32.5t116 -94t58.5 -136.5t17.5 -173v-577q0 -66 -60 -66h-155q-64 0 -64 66v497q0 54 -4 94.5t-15.5 77.5t-30.5 60.5t-49.5 37t-72.5 13.5 q-51 0 -91 -21t-65.5 -55.5t-42 -84t-23.5 -102.5t-7 -114v-403q0 -66 -60 -66h-155q-64 0 -64 66v497q0 54 -4 94.5t-15.5 77.5t-30.5 60.5t-49.5 37t-72.5 13.5q-229 0 -229 -361v-419q0 -66 -64 -66h-155q-60 0 -60 66z" />
<glyph unicode="n" d="M143 66v923q0 66 60 66h147q64 0 64 -66v-78h12q118 168 340 168q107 0 185.5 -35t123 -97t65.5 -137.5t21 -166.5v-577q0 -66 -61 -66h-156q-61 0 -61 66v477q0 154 -45.5 228.5t-151.5 74.5q-127 0 -195.5 -97t-68.5 -266v-417q0 -66 -64 -66h-155q-60 0 -60 66z" />
<glyph unicode="o" horiz-adv-x="1308" d="M84 526q0 130 45.5 236t123.5 174.5t181.5 105.5t220.5 37t219.5 -37t181 -105.5t124 -174.5t45.5 -236q0 -129 -45.5 -235t-124 -174t-181 -105t-219.5 -37t-220.5 37t-181.5 105.5t-123.5 174t-45.5 234.5zM375 526q0 -136 75 -234.5t205 -98.5q86 0 151 48.5t96.5 123 t31.5 161.5q0 88 -31.5 163.5t-96.5 124t-151 48.5q-87 0 -152.5 -48.5t-96.5 -124t-31 -163.5z" />
<glyph unicode="p" horiz-adv-x="1310" d="M143 -465v1454q0 66 60 66h147q64 0 64 -66v-82h6q118 172 348 172q115 0 204 -44.5t144 -123t83 -179t28 -218.5q0 -105 -30 -200.5t-85.5 -171.5t-145.5 -121.5t-200 -45.5q-222 0 -338 152h-6v-592q0 -65 -64 -65h-155q-60 0 -60 65zM422 537q0 -157 71 -248.5 t189 -91.5q121 0 187.5 93.5t66.5 231.5q0 90 -26 164.5t-84.5 123t-139.5 48.5q-121 0 -192.5 -94t-71.5 -227z" />
<glyph unicode="q" horiz-adv-x="1310" d="M84 543q0 102 30 197t85.5 171t144.5 122t197 46q227 0 342 -151h14v61q0 66 64 66h147q59 0 59 -66v-1247l113 84q24 18 43 18q26 0 47 -30l57 -82q13 -20 13 -35q0 -31 -35 -53l-242 -156q-30 -18 -73 -18h-138q-63 0 -63 65v596q-121 -156 -336 -156q-116 0 -207.5 46 t-147.5 125t-85 180t-29 217zM375 532q0 -139 65.5 -237t184.5 -98q120 0 192 93.5t72 227.5q0 158 -71 249t-189 91q-120 0 -187 -95t-67 -231z" />
<glyph unicode="r" horiz-adv-x="829" d="M143 66v923q0 66 60 66h147q64 0 64 -66v-80h8q52 90 114.5 131t155.5 41q66 0 96 -10q19 -7 28 -19.5t9 -41.5v-125q0 -56 -53 -56q-10 0 -43.5 5.5t-64.5 5.5q-84 0 -139.5 -49.5t-79 -128.5t-23.5 -185v-411q0 -66 -64 -66h-155q-60 0 -60 66z" />
<glyph unicode="s" horiz-adv-x="935" d="M88 768q0 153 112 232t292 79q140 0 256 -49q31 -12 38.5 -24.5t1.5 -40.5l-22 -101q-4 -22 -14.5 -30.5t-30.5 -8.5q-16 0 -46.5 12.5t-75.5 24.5t-97 12q-65 0 -104.5 -23.5t-39.5 -64.5q0 -44 45 -73.5t156 -75.5q8 -3 13 -5l12.5 -5t13.5 -6q134 -57 192 -130.5 t58 -185.5q0 -87 -36.5 -153t-99 -103.5t-137.5 -55.5t-161 -18q-165 0 -277 56q-42 18 -42 59q0 6 1 12l13 99q4 26 15.5 37.5t33.5 11.5q13 0 46 -17.5t86.5 -35t115.5 -17.5q72 0 119.5 26t47.5 83q0 49 -48 80t-187 86q-125 50 -187.5 123t-62.5 190z" />
<glyph unicode="t" horiz-adv-x="811" d="M20 909v80q0 66 62 66h143v268q0 68 64 68h155q60 0 60 -68v-268h192q62 0 62 -66v-80q0 -65 -62 -65h-192v-445q0 -105 33 -154.5t102 -49.5q30 0 60 4t40 4q37 0 37 -45v-105q0 -27 -7.5 -39.5t-31.5 -19.5q-67 -19 -145 -19q-203 0 -285 98.5t-82 301.5v469h-143 q-62 0 -62 65z" />
<glyph unicode="u" d="M143 430v559q0 66 60 66h155q64 0 64 -66v-481q0 -150 44 -224.5t152 -74.5q127 0 196 99.5t69 269.5v411q0 66 61 66h156q61 0 61 -66v-923q0 -66 -61 -66h-148q-61 0 -61 66v88h-12q-62 -94 -145.5 -136.5t-196.5 -42.5q-89 0 -158.5 25t-113 66.5t-72 101t-39.5 123.5 t-11 139z" />
<glyph unicode="v" horiz-adv-x="1134" d="M41 1018q0 37 49 37h168q35 0 55 -15t31 -49l227 -719h11l227 719q11 34 31 49t55 15h152q49 0 49 -37q0 -4 -2 -10t-5 -14t-4 -13l-340 -913q-24 -68 -81 -68h-193q-58 0 -82 68l-338 913q-10 30 -10 37z" />
<glyph unicode="w" horiz-adv-x="1736" d="M41 1018q0 37 47 37h160q36 0 55.5 -14.5t26.5 -49.5l178 -717h6l188 717q17 64 84 64h172q67 0 84 -64l187 -717h8l178 717q7 35 26.5 49.5t55.5 14.5h152q47 0 47 -37q0 -11 -8 -43l-275 -907q-18 -68 -82 -68h-176q-61 0 -82 68l-201 704l-198 -704q-18 -68 -82 -68 h-186q-64 0 -82 68l-275 907q-8 28 -8 43z" />
<glyph unicode="x" horiz-adv-x="1120" d="M43 33q0 16 14 37l342 471l-313 444q-14 21 -14 35q0 35 47 35h188q37 0 53 -11.5t41 -48.5l166 -260l166 260q23 37 40.5 48.5t55.5 11.5h166q47 0 47 -35q0 -14 -14 -35l-309 -432l344 -483q16 -19 16 -37q0 -33 -49 -33h-186q-38 0 -55.5 11.5t-38.5 47.5l-199 301 l-191 -301q-22 -35 -42.5 -47t-57.5 -12h-170q-47 0 -47 33z" />
<glyph unicode="y" horiz-adv-x="1134" d="M41 1018q0 37 49 37h168q35 0 55 -15t31 -49l227 -696h13l225 696q11 34 31 49t55 15h152q49 0 49 -37q0 -4 -2 -10t-5 -14t-4 -13l-550 -1473q-12 -33 -32 -48t-54 -15h-152q-49 0 -49 37q0 14 10 37l184 442l-391 1020q-10 20 -10 37z" />
<glyph unicode="z" horiz-adv-x="1030" d="M74 66v84q0 31 5 49t21 39l504 596h-436q-64 0 -64 67v88q0 66 64 66h702q62 0 62 -66v-84q0 -58 -31 -96l-506 -588h500q61 0 61 -67v-88q0 -66 -61 -66h-758q-63 0 -63 66z" />
<glyph unicode="{" horiz-adv-x="872" d="M104 588v92q0 26 16.5 46.5t47.5 27.5q66 15 92.5 68t26.5 159v254q0 173 89 257.5t251 84.5h96q35 0 50 -17t15 -53v-90q0 -37 -14.5 -53t-46.5 -16h-29q-71 0 -102 -46t-31 -147v-215q0 -251 -174 -301v-8q174 -50 174 -301v-215q0 -102 31 -147.5t102 -45.5h29 q61 0 61 -69v-91q0 -37 -15 -53t-50 -16h-96q-162 0 -251 84.5t-89 257.5v254q0 105 -26.5 157.5t-92.5 69.5q-31 7 -47.5 27t-16.5 45z" />
<glyph unicode="|" horiz-adv-x="608" d="M168 -242v1751q0 68 63 68h146q63 0 63 -68v-1751q0 -65 -63 -65h-146q-63 0 -63 65z" />
<glyph unicode="}" horiz-adv-x="872" d="M82 -147q0 69 61 69h31q71 0 101 45t30 148v215q0 251 176 301v8q-176 50 -176 301v215q0 101 -30 147t-101 46h-31q-61 0 -61 69v90q0 70 65 70h99q162 0 250 -84t88 -258v-254q0 -105 27.5 -158.5t93.5 -68.5q61 -14 61 -74v-92q0 -25 -15.5 -45t-45.5 -27 q-66 -17 -93.5 -69.5t-27.5 -157.5v-254q0 -174 -88 -258t-250 -84h-99q-34 0 -49.5 16t-15.5 53v91z" />
<glyph unicode="~" horiz-adv-x="1193" d="M123 500q0 29 22 71q82 131 236 131q56 0 120 -21t110.5 -46.5t102 -46.5t97.5 -21q77 0 127 84q20 33 45 33q28 0 47 -31l27 -51q12 -24 12 -49q0 -35 -22 -72q-79 -131 -236 -131q-56 0 -120 21t-110.5 46.5t-102 46.5t-97.5 21q-78 0 -125 -84q-19 -32 -47 -32 q-30 0 -45 30l-29 52q-12 24 -12 49z" />
<glyph unicode="&#xa1;" horiz-adv-x="739" d="M203 915q0 69 48.5 116.5t117.5 47.5q68 0 114.5 -47.5t46.5 -116.5q0 -68 -47 -115.5t-114 -47.5q-69 0 -117.5 47.5t-48.5 115.5zM217 -356q0 8 6 125l29 766q3 65 63 65h105q61 0 61 -65l31 -766q4 -78 4 -125q0 -62 -61 -62h-174q-64 0 -64 62z" />
<glyph unicode="&#xa2;" horiz-adv-x="1040" d="M104 524q0 207 114 352.5t308 186.5v139q0 66 62 66h110q60 0 60 -66v-129q80 -10 141 -33q27 -12 36 -27.5t7 -43.5l-8 -101q-3 -41 -43 -41q-12 0 -71.5 17.5t-117.5 17.5q-138 0 -222.5 -97.5t-84.5 -240.5q0 -146 88 -240t236 -94q59 0 117.5 18.5t68.5 18.5 q20 0 29 -8.5t10 -32.5l6 -104q3 -44 -49 -68q-64 -25 -143 -34v-119q0 -66 -60 -66h-110q-62 0 -62 66v129q-196 39 -309 183.5t-113 350.5z" />
<glyph unicode="&#xa3;" horiz-adv-x="1431" d="M242 68v116q0 70 69 70h119v393h-127q-61 0 -61 68v86q0 67 61 67h127v144q0 222 145 352.5t404 130.5q116 0 192 -16q71 -14 68 -80l-8 -115q-1 -26 -12.5 -37.5t-34.5 -11.5q-15 0 -72 11t-113 11q-148 0 -213 -79.5t-65 -235.5v-74h270q62 0 62 -67v-86q0 -68 -62 -68 h-270v-393h436q66 0 66 -70v-116q0 -68 -66 -68h-846q-69 0 -69 68z" />
<glyph unicode="&#xa5;" horiz-adv-x="1431" d="M61 1436q0 18 12.5 27.5t32.5 9.5h201q39 0 56.5 -12t35.5 -46l314 -555l315 555q20 35 36.5 46.5t55.5 11.5h205q20 0 32.5 -9.5t12.5 -27.5q0 -16 -14 -37l-348 -561h198q64 0 64 -68v-70q0 -67 -64 -67h-319l-29 -49v-119h348q64 0 64 -66v-71q0 -66 -64 -66h-348 v-194q0 -68 -65 -68h-156q-70 0 -70 68v194h-350q-61 0 -61 66v71q0 66 61 66h350v129l-22 39h-328q-61 0 -61 67v70q0 68 61 68h205l-348 561q-13 26 -13 37z" />
<glyph unicode="&#xa6;" horiz-adv-x="608" d="M168 -242v658q0 67 63 67h146q63 0 63 -67v-658q0 -67 -63 -67h-146q-63 0 -63 67zM168 852v657q0 68 63 68h146q63 0 63 -68v-657q0 -68 -63 -68h-146q-63 0 -63 68z" />
<glyph unicode="&#xa7;" horiz-adv-x="1220" d="M197 -135l16 110q3 23 12 32t27 9t55 -19t94.5 -38.5t126.5 -19.5q85 0 141 32.5t56 102.5q0 28 -12.5 51.5t-28.5 40t-54 38t-65.5 34t-87.5 38.5q-144 61 -212 134.5t-68 201.5q0 180 165 283q-145 93 -145 268q0 110 58.5 186t154 111t219.5 35q168 0 281 -47 q26 -11 33 -25.5t2 -38.5l-25 -112q-9 -33 -37 -33q-21 0 -53 13.5t-80.5 27.5t-110.5 14q-77 0 -123.5 -29.5t-46.5 -80.5q0 -43 35.5 -78.5t72 -54t132.5 -59.5q16 -7 25 -11q142 -61 206 -142t64 -200q0 -92 -45 -165t-115 -114q140 -99 140 -268q0 -75 -27 -135.5 t-71.5 -100t-105.5 -66.5t-126.5 -38.5t-136.5 -11.5q-180 0 -301 59q-46 22 -39 66zM440 655q0 -37 15 -65.5t50.5 -53t71.5 -42t101 -43.5q42 23 68 62t26 87q0 69 -52 111.5t-167 91.5q-48 -22 -80.5 -63.5t-32.5 -84.5z" />
<glyph unicode="&#xa8;" horiz-adv-x="622" d="M-37 1370q0 60 41 101.5t100 41.5t101.5 -41.5t42.5 -101.5q0 -58 -42.5 -99.5t-101.5 -41.5q-58 0 -99.5 41.5t-41.5 99.5zM371 1370q0 60 41 101.5t100 41.5q60 0 101.5 -41.5t41.5 -101.5q0 -59 -41.5 -100t-101.5 -41q-58 0 -99.5 41.5t-41.5 99.5z" />
<glyph unicode="&#xa9;" horiz-adv-x="1777" d="M111 735q0 159 60.5 300.5t164.5 242.5t248 160t305 59t305 -59t248 -160t164.5 -242.5t60.5 -300.5q0 -158 -60.5 -299.5t-164.5 -242.5t-248 -159.5t-305 -58.5t-305 58.5t-248 159.5t-164.5 242.5t-60.5 299.5zM270 735q0 -127 48 -240t130.5 -193.5t197.5 -127.5 t243 -47q172 0 313.5 79.5t223 219.5t81.5 309t-81.5 309.5t-223.5 221t-313 80.5t-313.5 -80.5t-224 -221t-81.5 -309.5zM453 731q0 212 131 331.5t356 119.5q104 0 176 -21q32 -8 45 -21.5t10 -41.5l-6 -70q-2 -41 -41 -41q-14 0 -69 14.5t-107 14.5q-129 0 -213 -79 t-84 -206q0 -125 89 -199.5t221 -74.5q53 0 106 14t66 14q39 0 41 -43l6 -69q3 -28 -11 -42t-45 -22q-78 -20 -182 -20q-101 0 -188 27.5t-155 81t-107 139t-39 194.5z" />
<glyph unicode="&#xaa;" horiz-adv-x="919" d="M84 1165q0 136 82 234t217 98q124 0 197 -76h8v17q0 45 49 45h94q45 0 45 -49v-553q0 -47 -45 -47h-90q-27 0 -38 10.5t-11 36.5v20h-8q-72 -82 -224 -82q-133 10 -204.5 108t-71.5 238zM283 1161q0 -83 41.5 -137.5t117.5 -54.5q45 0 84.5 27.5t59.5 74.5v189 q-22 41 -60 64.5t-82 23.5q-78 0 -119.5 -55t-41.5 -132z" />
<glyph unicode="&#xab;" horiz-adv-x="1282" d="M147 551q0 23 21 55l231 301q25 32 49 45t58 13h121q18 0 28.5 -10t10.5 -25q0 -17 -27 -56l-240 -323l240 -324q27 -39 27 -55q0 -15 -10.5 -25t-28.5 -10h-121q-34 0 -58 13t-49 45l-231 301q-21 32 -21 55zM616 551q0 28 21 55l229 301q25 32 49 45t58 13h123 q18 0 28.5 -10t10.5 -25q0 -17 -27 -56l-240 -323l240 -324q27 -39 27 -55q0 -15 -10.5 -25t-28.5 -10h-123q-34 0 -58 13t-49 45l-229 301q-21 27 -21 55z" />
<glyph unicode="&#xac;" horiz-adv-x="1345" d="M94 692v92q0 70 68 70h923q66 0 66 -70v-501q0 -68 -66 -68h-102q-68 0 -68 68v342h-753q-35 0 -51.5 16t-16.5 51z" />
<glyph unicode="&#xad;" horiz-adv-x="759" d="M94 498v106q0 66 64 66h444q60 0 60 -66v-106q0 -68 -60 -68h-444q-64 0 -64 68z" />
<glyph unicode="&#xae;" horiz-adv-x="1777" d="M111 735q0 159 60.5 300.5t164.5 242.5t248 160t305 59t305 -59t248 -160t164.5 -242.5t60.5 -300.5q0 -158 -60.5 -299.5t-164.5 -242.5t-248 -159.5t-305 -58.5t-305 58.5t-248 159.5t-164.5 242.5t-60.5 299.5zM270 735q0 -127 48 -240t130.5 -193.5t197.5 -127.5 t243 -47q172 0 313.5 79.5t223 219.5t81.5 309t-81.5 309.5t-223.5 221t-313 80.5t-313.5 -80.5t-224 -221t-81.5 -309.5zM563 377v723q0 71 68 71h262q184 0 269 -60.5t85 -188.5q0 -203 -219 -244l197 -295q18 -22 18 -39q0 -16 -15 -27.5t-40 -11.5h-62q-43 0 -63 8.5 t-35 34.5l-203 318h-75v-289q0 -72 -64 -72h-55q-68 0 -68 72zM750 813h139q31 0 52 1.5t45 8t39 18t24.5 32t9.5 49.5q0 102 -170 102h-139v-211z" />
<glyph unicode="&#xb0;" horiz-adv-x="831" d="M125 1198q0 126 83 212.5t210 86.5q130 0 214.5 -86.5t84.5 -212.5q0 -124 -84.5 -208.5t-214.5 -84.5q-128 0 -210.5 84.5t-82.5 208.5zM264 1198q0 -65 43.5 -109.5t110.5 -44.5t112 44.5t45 109.5q0 66 -45 112t-112 46t-110.5 -45.5t-43.5 -112.5z" />
<glyph unicode="&#xb1;" horiz-adv-x="1228" d="M96 66v106q0 68 62 68h913q62 0 62 -68v-106q0 -66 -62 -66h-913q-62 0 -62 66zM96 774v107q0 65 64 65h334v297q0 60 67 60h107q65 0 65 -60v-297h338q59 0 59 -65v-107q0 -67 -59 -67h-338v-293q0 -64 -65 -64h-107q-67 0 -67 64v293h-334q-64 0 -64 67z" />
<glyph unicode="&#xb2;" horiz-adv-x="837" d="M92 659v52q0 50 49 84q157 108 256 216t99 191q0 59 -35 90t-96 31q-51 0 -118 -21.5t-83 -21.5q-37 0 -37 41l-4 57q-2 33 9 51.5t40 28.5q101 39 229 39q143 0 236.5 -67t93.5 -195q0 -63 -30 -130.5t-81.5 -127.5t-105 -109.5t-113.5 -93.5h279q61 0 61 -67v-48 q0 -65 -61 -65h-526q-62 0 -62 65z" />
<glyph unicode="&#xb3;" horiz-adv-x="843" d="M90 674l4 61q3 51 49 51q10 0 61.5 -14t110.5 -14q183 0 183 104q0 50 -46.5 75.5t-121.5 25.5l-56 -2q-55 0 -55 59v45q0 63 53 63l74 -2q68 0 103.5 28.5t35.5 76.5q0 43 -36.5 65.5t-102.5 22.5q-55 0 -109 -14.5t-69 -14.5q-42 0 -45 45l-4 70q-2 28 7.5 43t33.5 22 q92 27 217 27q160 0 250 -61t90 -181q0 -153 -187 -198q197 -38 197 -213q0 -134 -107 -199t-284 -65q-126 0 -189 18q-62 13 -57 76z" />
<glyph unicode="&#xb4;" horiz-adv-x="630" d="M145 1231q0 17 11 35l137 217q22 34 45 48.5t65 14.5h150q43 0 43 -37q0 -24 -25 -49l-192 -211q-27 -32 -48 -41.5t-59 -9.5h-77q-50 0 -50 33z" />
<glyph unicode="&#xb5;" d="M143 -465v1454q0 66 60 66h155q64 0 64 -66v-481q0 -150 44 -224.5t152 -74.5q127 0 196 99.5t69 269.5v411q0 66 61 66h156q61 0 61 -66v-923q0 -66 -61 -66h-148q-61 0 -61 66v88h-12q-62 -94 -145.5 -136.5t-196.5 -42.5q-61 0 -115 21v-461q0 -65 -62 -65h-155 q-62 0 -62 65z" />
<glyph unicode="&#xb6;" horiz-adv-x="1345" d="M109 1053q0 374 493 374h539q61 0 61 -67v-1538q0 -66 -61 -66h-101q-61 0 -61 66v1403h-191v-1403q0 -66 -61 -66h-100q-62 0 -62 66v856q-456 15 -456 375z" />
<glyph unicode="&#xb8;" horiz-adv-x="622" d="M86 -406q0 9 4 21l8 25q5 18 11.5 25t19.5 7q8 0 48 -15t79 -15q109 0 109 79q0 32 -23.5 50t-67.5 18l-67 -4q-23 0 -33 12.5t-10 26.5q0 19 22 53l86 127h129l-92 -121q24 8 56 8q82 0 127 -44t45 -117q0 -69 -41 -115t-98.5 -64t-127.5 -18q-80 0 -153 29 q-31 16 -31 32z" />
<glyph unicode="&#xb9;" horiz-adv-x="718" d="M88 1235q0 26 29 49l219 172q30 21 59 21h103q61 0 61 -68v-764q0 -65 -61 -65h-107q-61 0 -61 65v580l-103 -80q-29 -19 -45 -19q-27 0 -45 27l-33 41q-16 19 -16 41z" />
<glyph unicode="&#xba;" horiz-adv-x="876" d="M84 1155q0 160 97 251t255 91q161 0 259 -91t98 -251q0 -159 -98 -248.5t-259 -89.5q-158 0 -255 90t-97 248zM289 1155q0 -77 37.5 -132.5t109.5 -55.5q74 0 113 55t39 133q0 81 -38.5 137t-113.5 56q-72 0 -109.5 -56.5t-37.5 -136.5z" />
<glyph unicode="&#xbb;" horiz-adv-x="1282" d="M147 172q0 16 27 55l240 324l-240 323q-27 39 -27 56q0 15 10.5 25t28.5 10h123q34 0 58 -13t49 -45l229 -301q21 -27 21 -55t-21 -55l-229 -301q-25 -32 -49 -45t-58 -13h-123q-18 0 -28.5 10t-10.5 25zM616 172q0 16 27 55l240 324l-240 323q-27 39 -27 56 q0 15 10.5 25t28.5 10h121q34 0 58 -13t49 -45l231 -301q21 -32 21 -55t-21 -55l-231 -301q-25 -32 -49 -45t-58 -13h-121q-18 0 -28.5 10t-10.5 25z" />
<glyph unicode="&#xbc;" horiz-adv-x="1927" d="M113 1235q0 27 28 49l219 172q30 21 60 21h102q62 0 62 -68v-764q0 -65 -62 -65h-106q-62 0 -62 65v580l-102 -80q-28 -19 -45 -19q-27 0 -45 27l-33 41q-16 19 -16 41zM362 -16q0 16 15 43l848 1446q15 26 32.5 35.5t47.5 9.5h67q41 0 41 -33q0 -18 -14 -41l-848 -1448 q-15 -24 -32.5 -33.5t-47.5 -9.5h-68q-41 0 -41 31zM995 221v49q0 32 23 80l260 502q12 26 29 35.5t47 9.5h129q41 0 41 -33q0 -17 -13 -43l-260 -487h187v125q0 67 61 67h84q62 0 62 -67v-125h57q61 0 61 -66v-47q0 -67 -61 -67h-57v-88q0 -66 -62 -66h-84q-61 0 -61 66v88 h-381q-62 0 -62 67z" />
<glyph unicode="&#xbd;" horiz-adv-x="1927" d="M113 1235q0 27 28 49l219 172q30 21 60 21h102q62 0 62 -68v-764q0 -65 -62 -65h-106q-62 0 -62 65v580l-102 -80q-28 -19 -45 -19q-27 0 -45 27l-33 41q-16 19 -16 41zM356 -16q0 16 15 43l848 1446q13 26 31 35.5t48 9.5h66q41 0 41 -33q0 -18 -14 -41l-848 -1448 q-23 -43 -80 -43h-66q-41 0 -41 31zM1130 66v51q0 48 50 84q157 108 255.5 216t98.5 191q0 59 -34.5 90t-96.5 31q-50 0 -117 -21.5t-82 -21.5q-36 0 -39 41l-2 70q0 51 47 67q101 39 230 39q143 0 237.5 -67t94.5 -195q0 -63 -30.5 -130.5t-82 -127.5t-105.5 -109.5 t-114 -93.5h280q62 0 62 -67v-47q0 -66 -62 -66h-526q-64 0 -64 66z" />
<glyph unicode="&#xbe;" horiz-adv-x="2041" d="M158 674l4 61q3 51 49 51q12 0 63.5 -14t110.5 -14q180 0 180 104q0 50 -45.5 75.5t-120.5 25.5l-57 -2q-55 0 -55 59v45q0 63 55 63l74 -2q68 0 103.5 28.5t35.5 76.5q0 43 -36.5 65.5t-102.5 22.5q-55 0 -110 -14.5t-70 -14.5q-43 0 -46 45l-4 70q-2 28 7.5 43t35.5 22 q89 27 215 27q160 0 250 -61t90 -181q0 -154 -186 -198q199 -37 199 -213q0 -134 -107 -199t-284 -65q-128 0 -191 18q-60 14 -57 76zM510 -16q0 18 14 43l848 1446q13 25 31.5 35t48.5 10h66q41 0 41 -33q0 -16 -15 -41l-848 -1448q-23 -43 -80 -43h-65q-41 0 -41 31z M1126 221v49q0 37 21 80l262 502q12 26 29 35.5t47 9.5h129q41 0 41 -33q0 -13 -15 -43l-260 -487h189v125q0 67 61 67h84q62 0 62 -67v-125h57q61 0 61 -66v-47q0 -67 -61 -67h-57v-88q0 -66 -62 -66h-84q-61 0 -61 66v88h-381q-62 0 -62 67z" />
<glyph unicode="&#xbf;" horiz-adv-x="1073" d="M125 -90q0 69 21.5 132.5t63.5 119.5t84.5 98t102.5 92q43 36 43 97v88q0 61 60 61h135q55 0 55 -63v-134q0 -69 -49 -118q-24 -25 -63 -62.5t-64 -62.5t-51.5 -58t-39.5 -67.5t-13 -71.5q0 -79 52 -122.5t144 -43.5q68 0 128.5 17t102.5 34t66 17q34 0 37 -43l6 -127 q2 -32 -6.5 -47t-36.5 -27q-67 -29 -163.5 -45t-188.5 -16q-124 0 -218.5 38t-151 118.5t-56.5 195.5zM406 915q0 69 48 116.5t117 47.5q68 0 115 -47.5t47 -116.5q0 -68 -47.5 -115.5t-114.5 -47.5q-69 0 -117 47.5t-48 115.5z" />
<glyph unicode="&#xc0;" horiz-adv-x="1513" d="M41 37q0 11 8 31l512 1337q25 68 86 68h219q57 0 82 -68l516 -1339q9 -22 9 -29q0 -37 -52 -37h-186q-67 0 -88 63l-98 277h-609l-98 -277q-21 -63 -88 -63h-164q-49 0 -49 37zM522 575h449l-219 615h-9zM563 1925q0 37 43 37h150q41 0 64.5 -15t45.5 -49l138 -217 q10 -17 10 -34q0 -33 -49 -33h-78q-38 0 -59 9.5t-48 41.5l-192 211q-25 25 -25 49z" />
<glyph unicode="&#xc1;" horiz-adv-x="1513" d="M41 37q0 11 8 31l512 1337q25 68 86 68h219q57 0 82 -68l516 -1339q9 -22 9 -29q0 -37 -52 -37h-186q-67 0 -88 63l-98 277h-609l-98 -277q-21 -63 -88 -63h-164q-49 0 -49 37zM498 1647q0 17 10 34l137 217q22 34 45.5 49t65.5 15h149q43 0 43 -37q0 -25 -24 -49 l-193 -211q-27 -32 -48 -41.5t-58 -9.5h-78q-49 0 -49 33zM522 575h449l-219 615h-9z" />
<glyph unicode="&#xc2;" horiz-adv-x="1513" d="M41 37q0 11 8 31l512 1337q25 68 86 68h219q57 0 82 -68l516 -1339q9 -22 9 -29q0 -37 -52 -37h-186q-67 0 -88 63l-98 277h-609l-98 -277q-21 -63 -88 -63h-164q-49 0 -49 37zM428 1642q0 15 12 33l144 223q21 33 46.5 48.5t65.5 15.5h125q40 0 65 -15t46 -49l141 -221 q12 -18 12 -32q0 -31 -43 -31h-81q-34 0 -57.5 11.5t-47.5 41.5l-98 123l-101 -123q-24 -30 -47 -41.5t-57 -11.5h-82q-43 0 -43 28zM522 575h449l-219 615h-9z" />
<glyph unicode="&#xc3;" horiz-adv-x="1513" d="M41 37q0 11 8 31l512 1337q25 68 86 68h219q57 0 82 -68l516 -1339q9 -22 9 -29q0 -37 -52 -37h-186q-67 0 -88 63l-98 277h-609l-98 -277q-21 -63 -88 -63h-164q-49 0 -49 37zM397 1683q0 95 55.5 159.5t159.5 64.5q50 0 103 -20.5t96 -41t70 -20.5t40 13t21 36 q11 39 62 39h55q47 0 47 -53q0 -96 -55 -161t-158 -65q-51 0 -104 20.5t-96 41t-70 20.5q-48 0 -60 -47q-14 -41 -61 -41h-56q-49 0 -49 55zM522 575h449l-219 615h-9z" />
<glyph unicode="&#xc4;" horiz-adv-x="1513" d="M41 37q0 11 8 31l512 1337q25 68 86 68h219q57 0 82 -68l516 -1339q9 -22 9 -29q0 -37 -52 -37h-186q-67 0 -88 63l-98 277h-609l-98 -277q-21 -63 -88 -63h-164q-49 0 -49 37zM410 1786q0 60 41 101.5t100 41.5t101 -41.5t42 -101.5q0 -58 -42 -99.5t-101 -41.5 t-100 41.5t-41 99.5zM522 575h449l-219 615h-9zM817 1786q0 60 41 101.5t100 41.5q60 0 102 -41.5t42 -101.5q0 -59 -42 -100t-102 -41q-58 0 -99.5 41.5t-41.5 99.5z" />
<glyph unicode="&#xc5;" horiz-adv-x="1513" d="M41 37q0 11 8 31l512 1337q25 68 86 68h219q57 0 82 -68l516 -1339q9 -22 9 -29q0 -37 -52 -37h-186q-67 0 -88 63l-98 277h-609l-98 -277q-21 -63 -88 -63h-164q-49 0 -49 37zM522 575h449l-219 615h-9zM537 1788q0 93 61.5 157t155.5 64q96 0 158.5 -64t62.5 -157 t-62.5 -156t-158.5 -63q-94 0 -155.5 63t-61.5 156zM649 1788q0 -45 30 -76t75 -31q47 0 77.5 31t30.5 76q0 46 -30.5 77t-77.5 31q-45 0 -75 -31t-30 -77z" />
<glyph unicode="&#xc6;" horiz-adv-x="1974" d="M41 37q0 14 10 37l727 1331q36 68 109 68h909q66 0 66 -70v-105q0 -69 -66 -69h-518v-346h463q34 0 49.5 -16.5t15.5 -53.5v-102q0 -70 -65 -70h-463v-399h518q66 0 66 -70v-104q0 -68 -66 -68h-739q-70 0 -70 68v272h-475l-150 -277q-19 -33 -39 -48t-55 -15h-178 q-49 0 -49 37zM637 575h350v631h-10z" />
<glyph unicode="&#xc7;" horiz-adv-x="1310" d="M96 735q0 351 221 563q211 199 560 199q73 0 167 -14.5t156 -38.5q29 -10 38 -25t7 -49l-8 -139q-3 -43 -37 -43q-12 0 -26 4.5t-41 15t-48 17.5q-92 30 -196 30q-226 0 -361 -147q-133 -142 -133 -377q0 -237 148 -379q140 -137 356 -137q95 0 170 21q22 5 50.5 15 t47.5 15.5t33 5.5q42 0 45 -45l6 -123q2 -41 -5.5 -53.5t-43.5 -25.5q-62 -24 -152 -37t-173 -13q-335 0 -545 189q-236 207 -236 571zM631 -406q0 9 4 21l8 25q5 18 11.5 25t19.5 7q8 0 48 -15t79 -15q108 0 108 79q0 68 -90 68l-67 -4q-23 0 -33 12.5t-10 26.5q0 19 22 53 l86 127h129l-92 -121q24 8 55 8q82 0 127 -44t45 -117q0 -69 -41 -115t-98.5 -64t-126.5 -18q-81 0 -153 29q-31 16 -31 32z" />
<glyph unicode="&#xc8;" horiz-adv-x="1173" d="M168 68v1335q0 70 68 70h759q66 0 66 -70v-105q0 -69 -66 -69h-536v-346h483q66 0 66 -70v-102q0 -70 -66 -70h-483v-399h536q66 0 66 -70v-104q0 -68 -66 -68h-759q-68 0 -68 68zM393 1925q0 37 43 37h150q41 0 64.5 -15t45.5 -49l138 -217q10 -17 10 -34q0 -33 -49 -33 h-78q-38 0 -59 9.5t-48 41.5l-192 211q-25 25 -25 49z" />
<glyph unicode="&#xc9;" horiz-adv-x="1173" d="M168 68v1335q0 70 68 70h759q66 0 66 -70v-105q0 -69 -66 -69h-536v-346h483q66 0 66 -70v-102q0 -70 -66 -70h-483v-399h536q66 0 66 -70v-104q0 -68 -66 -68h-759q-68 0 -68 68zM328 1647q0 17 10 34l137 217q22 34 45.5 49t65.5 15h149q43 0 43 -37q0 -25 -24 -49 l-193 -211q-27 -32 -48 -41.5t-58 -9.5h-78q-49 0 -49 33z" />
<glyph unicode="&#xca;" horiz-adv-x="1173" d="M168 68v1335q0 70 68 70h759q66 0 66 -70v-105q0 -69 -66 -69h-536v-346h483q66 0 66 -70v-102q0 -70 -66 -70h-483v-399h536q66 0 66 -70v-104q0 -68 -66 -68h-759q-68 0 -68 68zM258 1642q0 15 12 33l144 223q21 33 46.5 48.5t65.5 15.5h125q40 0 65 -15t46 -49 l141 -221q12 -18 12 -32q0 -31 -43 -31h-81q-34 0 -57.5 11.5t-47.5 41.5l-98 123l-101 -123q-24 -30 -47 -41.5t-57 -11.5h-82q-43 0 -43 28z" />
<glyph unicode="&#xcb;" horiz-adv-x="1173" d="M168 68v1335q0 70 68 70h759q66 0 66 -70v-105q0 -69 -66 -69h-536v-346h483q66 0 66 -70v-102q0 -70 -66 -70h-483v-399h536q66 0 66 -70v-104q0 -68 -66 -68h-759q-68 0 -68 68zM240 1786q0 60 41 101.5t100 41.5t101 -41.5t42 -101.5q0 -58 -42 -99.5t-101 -41.5 t-100 41.5t-41 99.5zM647 1786q0 60 41 101.5t100 41.5q60 0 102 -41.5t42 -101.5q0 -59 -42 -100t-102 -41q-58 0 -99.5 41.5t-41.5 99.5z" />
<glyph unicode="&#xcc;" horiz-adv-x="798" d="M66 66v100q0 67 63 67h125v1006h-125q-63 0 -63 66v100q0 68 63 68h541q61 0 61 -68v-100q0 -66 -61 -66h-125v-1006h125q61 0 61 -67v-100q0 -66 -61 -66h-541q-63 0 -63 66zM205 1925q0 37 43 37h149q42 0 65.5 -15t45.5 -49l137 -217q10 -17 10 -34q0 -33 -49 -33h-78 q-37 0 -58 9.5t-48 41.5l-193 211q-24 24 -24 49z" />
<glyph unicode="&#xcd;" horiz-adv-x="798" d="M66 66v100q0 67 63 67h125v1006h-125q-63 0 -63 66v100q0 68 63 68h541q61 0 61 -68v-100q0 -66 -61 -66h-125v-1006h125q61 0 61 -67v-100q0 -66 -61 -66h-541q-63 0 -63 66zM141 1647q0 16 11 34l137 217q22 34 45.5 49t64.5 15h150q43 0 43 -37q0 -24 -25 -49 l-192 -211q-27 -32 -48 -41.5t-59 -9.5h-78q-49 0 -49 33z" />
<glyph unicode="&#xce;" horiz-adv-x="798" d="M66 66v100q0 67 63 67h125v1006h-125q-63 0 -63 66v100q0 68 63 68h541q61 0 61 -68v-100q0 -66 -61 -66h-125v-1006h125q61 0 61 -67v-100q0 -66 -61 -66h-541q-63 0 -63 66zM70 1642q0 15 12 33l143 223q40 64 113 64h125q40 0 64.5 -15t45.5 -49l142 -221 q12 -18 12 -32q0 -31 -43 -31h-82q-34 0 -57 11.5t-47 41.5l-99 123l-100 -123q-24 -30 -47 -41.5t-57 -11.5h-82q-43 0 -43 28z" />
<glyph unicode="&#xcf;" horiz-adv-x="798" d="M51 1786q0 60 41.5 101.5t100.5 41.5t101 -41.5t42 -101.5q0 -58 -42 -99.5t-101 -41.5t-100.5 41.5t-41.5 99.5zM66 66v100q0 67 63 67h125v1006h-125q-63 0 -63 66v100q0 68 63 68h541q61 0 61 -68v-100q0 -66 -61 -66h-125v-1006h125q61 0 61 -67v-100q0 -66 -61 -66 h-541q-63 0 -63 66zM459 1786q0 60 41 101.5t100 41.5q60 0 101.5 -41.5t41.5 -101.5q0 -59 -41.5 -100t-101.5 -41q-58 0 -99.5 41.5t-41.5 99.5z" />
<glyph unicode="&#xd0;" horiz-adv-x="1525" d="M27 739v41q0 37 16 53.5t51 16.5h74v555q0 68 61 68h398q181 0 326 -44t251.5 -131.5t164.5 -227.5t58 -325q0 -365 -207 -555t-595 -190h-396q-61 0 -61 66v604h-74q-67 0 -67 69zM459 238h178q489 0 489 499q0 237 -139 373q-127 121 -360 121h-168v-381h284 q66 0 66 -70v-41q0 -69 -66 -69h-284v-432z" />
<glyph unicode="&#xd1;" horiz-adv-x="1548" d="M168 68v1335q0 70 68 70h253q63 0 97 -70l528 -1034v1034q0 70 68 70h131q67 0 67 -70v-1333q0 -70 -67 -70h-234q-67 0 -100 68l-547 1056v-1056q0 -68 -65 -68h-131q-68 0 -68 68zM416 1683q0 95 55.5 159.5t159.5 64.5q50 0 102.5 -20.5t95.5 -41t70 -20.5q45 0 62 49 q11 39 61 39h55q47 0 47 -53q0 -96 -55 -161t-158 -65q-51 0 -104 20.5t-96 41t-70 20.5q-47 0 -59 -47q-14 -41 -62 -41h-55q-49 0 -49 55z" />
<glyph unicode="&#xd2;" horiz-adv-x="1603" d="M96 735q0 356 186 559t519 203q335 0 519.5 -202.5t184.5 -559.5q0 -358 -184.5 -559t-519.5 -201q-334 0 -519.5 201.5t-185.5 558.5zM395 735q0 -84 14.5 -159.5t46.5 -142t78.5 -114.5t115 -76t151.5 -28q84 0 152.5 28t115 76.5t78 115t45.5 141.5t14 159t-14 159 t-45.5 141.5t-78 115t-115 76.5t-152.5 28q-103 0 -183 -42.5t-127.5 -116t-71.5 -165t-24 -196.5zM608 1925q0 37 43 37h150q41 0 64.5 -15t45.5 -49l138 -217q10 -17 10 -34q0 -33 -49 -33h-78q-38 0 -59 9.5t-48 41.5l-192 211q-25 25 -25 49z" />
<glyph unicode="&#xd3;" horiz-adv-x="1603" d="M96 735q0 356 186 559t519 203q335 0 519.5 -202.5t184.5 -559.5q0 -358 -184.5 -559t-519.5 -201q-334 0 -519.5 201.5t-185.5 558.5zM395 735q0 -84 14.5 -159.5t46.5 -142t78.5 -114.5t115 -76t151.5 -28q84 0 152.5 28t115 76.5t78 115t45.5 141.5t14 159t-14 159 t-45.5 141.5t-78 115t-115 76.5t-152.5 28q-103 0 -183 -42.5t-127.5 -116t-71.5 -165t-24 -196.5zM543 1647q0 17 10 34l137 217q22 34 45.5 49t65.5 15h149q43 0 43 -37q0 -25 -24 -49l-193 -211q-27 -32 -48 -41.5t-58 -9.5h-78q-49 0 -49 33z" />
<glyph unicode="&#xd4;" horiz-adv-x="1603" d="M96 735q0 356 186 559t519 203q335 0 519.5 -202.5t184.5 -559.5q0 -358 -184.5 -559t-519.5 -201q-334 0 -519.5 201.5t-185.5 558.5zM395 735q0 -84 14.5 -159.5t46.5 -142t78.5 -114.5t115 -76t151.5 -28q84 0 152.5 28t115 76.5t78 115t45.5 141.5t14 159t-14 159 t-45.5 141.5t-78 115t-115 76.5t-152.5 28q-103 0 -183 -42.5t-127.5 -116t-71.5 -165t-24 -196.5zM473 1642q0 15 12 33l144 223q21 33 46.5 48.5t65.5 15.5h125q40 0 65 -15t46 -49l141 -221q12 -18 12 -32q0 -31 -43 -31h-81q-34 0 -57.5 11.5t-47.5 41.5l-98 123 l-101 -123q-24 -30 -47 -41.5t-57 -11.5h-82q-43 0 -43 28z" />
<glyph unicode="&#xd5;" horiz-adv-x="1603" d="M96 735q0 356 186 559t519 203q335 0 519.5 -202.5t184.5 -559.5q0 -358 -184.5 -559t-519.5 -201q-334 0 -519.5 201.5t-185.5 558.5zM395 735q0 -84 14.5 -159.5t46.5 -142t78.5 -114.5t115 -76t151.5 -28q84 0 152.5 28t115 76.5t78 115t45.5 141.5t14 159t-14 159 t-45.5 141.5t-78 115t-115 76.5t-152.5 28q-103 0 -183 -42.5t-127.5 -116t-71.5 -165t-24 -196.5zM444 1683q0 95 55.5 159.5t159.5 64.5q50 0 103 -20.5t96 -41t70 -20.5t40 13t21 36q11 39 62 39h55q47 0 47 -53q0 -96 -55 -161t-158 -65q-51 0 -104 20.5t-96 41 t-70 20.5q-48 0 -60 -47q-14 -41 -61 -41h-55q-50 0 -50 55z" />
<glyph unicode="&#xd6;" horiz-adv-x="1603" d="M96 735q0 356 186 559t519 203q335 0 519.5 -202.5t184.5 -559.5q0 -358 -184.5 -559t-519.5 -201q-334 0 -519.5 201.5t-185.5 558.5zM395 735q0 -84 14.5 -159.5t46.5 -142t78.5 -114.5t115 -76t151.5 -28q84 0 152.5 28t115 76.5t78 115t45.5 141.5t14 159t-14 159 t-45.5 141.5t-78 115t-115 76.5t-152.5 28q-103 0 -183 -42.5t-127.5 -116t-71.5 -165t-24 -196.5zM455 1786q0 60 41 101.5t100 41.5t101 -41.5t42 -101.5q0 -58 -42 -99.5t-101 -41.5q-58 0 -99.5 41.5t-41.5 99.5zM862 1786q0 60 41.5 101.5t100.5 41.5q60 0 101.5 -41.5 t41.5 -101.5q0 -59 -41.5 -100t-101.5 -41q-59 0 -100.5 41.5t-41.5 99.5z" />
<glyph unicode="&#xd7;" horiz-adv-x="1228" d="M141 195q0 20 23 43l276 276l-278 279q-21 21 -21 41q0 21 25 49l76 75q25 25 47 25q23 0 43 -20l278 -279l277 279q20 20 43 20q22 0 47 -25l76 -75q24 -24 24 -47t-20 -43l-277 -279l277 -276q20 -20 20 -43q0 -27 -24 -48l-76 -75q-25 -25 -47 -25t-43 21l-277 276 l-276 -276q-21 -21 -45 -21q-22 0 -47 25l-76 75q-25 25 -25 48z" />
<glyph unicode="&#xd8;" horiz-adv-x="1603" d="M96 735q0 356 186 559t519 203q248 0 422 -117l82 99q44 52 90 12l39 -33q48 -39 6 -90l-92 -111q157 -195 157 -522q0 -358 -184.5 -559t-519.5 -201q-251 0 -422 117l-82 -98q-43 -52 -92 -12l-39 32q-47 41 -4 92l90 107q-156 201 -156 522zM395 735q0 -162 62 -280 l587 716q-97 84 -243 84q-103 0 -183 -42.5t-127.5 -116t-71.5 -165t-24 -196.5zM555 301q99 -86 246 -86q84 0 152.5 28t115 76.5t78 115t45.5 141.5t14 159q0 166 -61 285z" />
<glyph unicode="&#xd9;" horiz-adv-x="1499" d="M158 588v817q0 68 63 68h166q62 0 62 -68v-774q0 -395 299 -395q303 0 303 395v774q0 68 61 68h166q63 0 63 -68v-817q0 -301 -158 -457t-435 -156q-284 0 -437 159t-153 454zM555 1925q0 37 43 37h150q41 0 64.5 -15t45.5 -49l137 -217q11 -18 11 -34q0 -33 -50 -33h-77 q-38 0 -59 9.5t-48 41.5l-192 211q-25 25 -25 49z" />
<glyph unicode="&#xda;" horiz-adv-x="1499" d="M158 588v817q0 68 63 68h166q62 0 62 -68v-774q0 -395 299 -395q303 0 303 395v774q0 68 61 68h166q63 0 63 -68v-817q0 -301 -158 -457t-435 -156q-284 0 -437 159t-153 454zM489 1647q0 16 11 34l137 217q22 34 45.5 49t65.5 15h149q43 0 43 -37q0 -24 -25 -49 l-192 -211q-27 -32 -48 -41.5t-59 -9.5h-77q-50 0 -50 33z" />
<glyph unicode="&#xdb;" horiz-adv-x="1499" d="M158 588v817q0 68 63 68h166q62 0 62 -68v-774q0 -395 299 -395q303 0 303 395v774q0 68 61 68h166q63 0 63 -68v-817q0 -301 -158 -457t-435 -156q-284 0 -437 159t-153 454zM422 1642q0 15 12 33l144 223q21 33 46.5 48.5t65.5 15.5h125q40 0 65 -15t46 -49l141 -221 q12 -18 12 -32q0 -31 -43 -31h-82q-34 0 -57 11.5t-47 41.5l-98 123l-101 -123q-24 -30 -47 -41.5t-57 -11.5h-82q-43 0 -43 28z" />
<glyph unicode="&#xdc;" horiz-adv-x="1499" d="M158 588v817q0 68 63 68h166q62 0 62 -68v-774q0 -395 299 -395q303 0 303 395v774q0 68 61 68h166q63 0 63 -68v-817q0 -301 -158 -457t-435 -156q-284 0 -437 159t-153 454zM403 1786q0 60 41.5 101.5t100.5 41.5t101 -41.5t42 -101.5q0 -58 -42 -99.5t-101 -41.5 t-100.5 41.5t-41.5 99.5zM811 1786q0 60 41 101.5t100 41.5q60 0 102 -41.5t42 -101.5q0 -59 -42 -100t-102 -41q-58 0 -99.5 41.5t-41.5 99.5z" />
<glyph unicode="&#xdd;" horiz-adv-x="1431" d="M41 1436q0 37 45 37h201q39 0 55.5 -11.5t36.5 -46.5l334 -555l336 555q20 35 36.5 46.5t55.5 11.5h205q20 0 32.5 -9.5t12.5 -27.5q0 -14 -15 -37l-518 -815v-516q0 -68 -65 -68h-156q-70 0 -70 68v526l-514 805q-12 24 -12 37zM496 1597q0 18 10 35l137 217 q22 34 45.5 49t65.5 15h149q43 0 43 -37q0 -25 -24 -49l-193 -211q-27 -32 -48 -41.5t-58 -9.5h-78q-49 0 -49 32z" />
<glyph unicode="&#xde;" horiz-adv-x="1245" d="M168 68v1335q0 70 68 70h157q66 0 66 -70v-156h104q304 0 453 -110t149 -349q0 -224 -150 -344t-401 -120h-155v-256q0 -68 -66 -68h-157q-68 0 -68 68zM459 559h133q274 0 274 227q0 226 -286 226h-121v-453z" />
<glyph unicode="&#xdf;" horiz-adv-x="1292" d="M143 66v938q0 142 27.5 249t88.5 188t165 123t250 42q99 0 184.5 -27t151 -79t102.5 -133.5t37 -184.5q0 -260 -246 -351q150 -34 227.5 -134t77.5 -255q0 -214 -130 -334t-353 -120h-135q-28 0 -47 15t-19 44l2 105q0 27 17.5 42t46.5 15h98q113 0 177.5 62.5 t64.5 187.5t-76 192.5t-209 67.5q-55 0 -55 61v86q0 68 57 68q97 3 160 65t63 170q0 107 -57 167.5t-154 60.5q-122 0 -179.5 -90t-57.5 -244v-997q0 -66 -62 -66h-155q-62 0 -62 66z" />
<glyph unicode="&#xe0;" d="M80 543q0 140 54 261t161.5 198t247.5 77q210 0 331 -133h9v43q0 66 63 66h156q59 0 59 -66v-923q0 -66 -59 -66h-146q-63 0 -63 66v67h-8q-122 -158 -334 -158q-115 0 -206.5 46t-148.5 125t-86.5 180t-29.5 217zM371 532q0 -89 27 -163.5t86.5 -123t140.5 -48.5 q124 0 192 93t68 234q0 151 -70.5 242.5t-187.5 91.5q-120 0 -188 -95t-68 -231zM459 1509q0 37 43 37h149q42 0 65.5 -15t45.5 -48l137 -217q10 -17 10 -35q0 -33 -49 -33h-78q-37 0 -58 9.5t-48 41.5l-193 211q-24 24 -24 49z" />
<glyph unicode="&#xe1;" d="M80 543q0 140 54 261t161.5 198t247.5 77q210 0 331 -133h9v43q0 66 63 66h156q59 0 59 -66v-923q0 -66 -59 -66h-146q-63 0 -63 66v67h-8q-122 -158 -334 -158q-115 0 -206.5 46t-148.5 125t-86.5 180t-29.5 217zM371 532q0 -89 27 -163.5t86.5 -123t140.5 -48.5 q124 0 192 93t68 234q0 151 -70.5 242.5t-187.5 91.5q-120 0 -188 -95t-68 -231zM393 1231q0 18 10 35l138 217q22 34 45 48.5t65 14.5h150q43 0 43 -37q0 -24 -25 -49l-192 -211q-27 -32 -48 -41.5t-59 -9.5h-78q-49 0 -49 33z" />
<glyph unicode="&#xe2;" d="M80 543q0 140 54 261t161.5 198t247.5 77q210 0 331 -133h9v43q0 66 63 66h156q59 0 59 -66v-923q0 -66 -59 -66h-146q-63 0 -63 66v67h-8q-122 -158 -334 -158q-115 0 -206.5 46t-148.5 125t-86.5 180t-29.5 217zM324 1227q0 15 12 33l143 223q21 33 47 48t66 15h125 q40 0 64.5 -14.5t45.5 -48.5l142 -221q12 -18 12 -33q0 -31 -43 -31h-82q-34 0 -57 11.5t-47 41.5l-99 123l-100 -123q-24 -30 -47 -41.5t-57 -11.5h-82q-43 0 -43 29zM371 532q0 -89 27 -163.5t86.5 -123t140.5 -48.5q124 0 192 93t68 234q0 151 -70.5 242.5t-187.5 91.5 q-120 0 -188 -95t-68 -231z" />
<glyph unicode="&#xe3;" d="M80 543q0 140 54 261t161.5 198t247.5 77q210 0 331 -133h9v43q0 66 63 66h156q59 0 59 -66v-923q0 -66 -59 -66h-146q-63 0 -63 66v67h-8q-122 -158 -334 -158q-115 0 -206.5 46t-148.5 125t-86.5 180t-29.5 217zM295 1268q0 95 55.5 159t159.5 64q50 0 102.5 -20.5 t95.5 -41t70 -20.5q45 0 62 49q11 39 61 39h55q48 0 48 -53q0 -96 -55 -160.5t-158 -64.5q-51 0 -104 20.5t-96.5 40.5t-70.5 20q-47 0 -59 -47q-14 -41 -62 -41h-55q-49 0 -49 56zM371 532q0 -89 27 -163.5t86.5 -123t140.5 -48.5q124 0 192 93t68 234q0 151 -70.5 242.5 t-187.5 91.5q-120 0 -188 -95t-68 -231z" />
<glyph unicode="&#xe4;" d="M80 543q0 140 54 261t161.5 198t247.5 77q210 0 331 -133h9v43q0 66 63 66h156q59 0 59 -66v-923q0 -66 -59 -66h-146q-63 0 -63 66v67h-8q-122 -158 -334 -158q-115 0 -206.5 46t-148.5 125t-86.5 180t-29.5 217zM305 1370q0 60 41 101.5t100 41.5t101.5 -41.5 t42.5 -101.5q0 -58 -42.5 -99.5t-101.5 -41.5q-58 0 -99.5 41.5t-41.5 99.5zM371 532q0 -89 27 -163.5t86.5 -123t140.5 -48.5q124 0 192 93t68 234q0 151 -70.5 242.5t-187.5 91.5q-120 0 -188 -95t-68 -231zM713 1370q0 60 41 101.5t100 41.5q60 0 101.5 -41.5 t41.5 -101.5q0 -59 -41.5 -100t-101.5 -41q-58 0 -99.5 41.5t-41.5 99.5z" />
<glyph unicode="&#xe5;" d="M80 543q0 140 54 261t161.5 198t247.5 77q210 0 331 -133h9v43q0 66 63 66h156q59 0 59 -66v-923q0 -66 -59 -66h-146q-63 0 -63 66v67h-8q-122 -158 -334 -158q-115 0 -206.5 46t-148.5 125t-86.5 180t-29.5 217zM371 532q0 -89 27 -163.5t86.5 -123t140.5 -48.5 q124 0 192 93t68 234q0 151 -70.5 242.5t-187.5 91.5q-120 0 -188 -95t-68 -231zM434 1372q0 93 61.5 157t155.5 64q96 0 158.5 -64t62.5 -157t-62.5 -156t-158.5 -63q-94 0 -155.5 63t-61.5 156zM547 1372q0 -45 29.5 -75.5t74.5 -30.5q47 0 78 30.5t31 75.5q0 46 -31 77.5 t-78 31.5q-45 0 -74.5 -31.5t-29.5 -77.5z" />
<glyph unicode="&#xe6;" horiz-adv-x="1972" d="M78 543q0 140 54 261t161.5 198t247.5 77q210 0 331 -133h9v43q0 66 63 66h156q49 0 57 -41q108 65 244 65q246 0 369.5 -150.5t123.5 -408.5q0 -69 -79 -69h-654q11 -124 99 -198.5t225 -74.5q73 0 133 16t97 32t54 16q34 0 37 -41l9 -103q1 -27 -11 -42t-45 -27 q-137 -54 -309 -54q-174 0 -293 72q-6 -47 -57 -47h-146q-63 0 -63 66v67h-8q-122 -158 -334 -158q-115 0 -206.5 46t-148.5 125t-86.5 180t-29.5 217zM369 535q0 -94 28.5 -169t90 -122t147.5 -47q83 0 148.5 47.5t97.5 132.5v321q-36 77 -100 118.5t-144 41.5 q-87 0 -149.5 -47.5t-90.5 -119t-28 -156.5zM1161 629h469q-3 115 -61.5 181.5t-161.5 66.5t-169 -67.5t-77 -180.5z" />
<glyph unicode="&#xe7;" horiz-adv-x="980" d="M84 524q0 247 157 401t414 154q127 0 224 -39q28 -12 37 -28t6 -43l-9 -101q-3 -41 -43 -41q-12 0 -70.5 17.5t-117.5 17.5q-138 0 -222.5 -97.5t-84.5 -240.5q0 -146 88 -240t237 -94q58 0 116.5 18.5t70.5 18.5q19 0 28.5 -9t10.5 -32l6 -104q3 -44 -49 -68 q-88 -39 -238 -39q-254 0 -407.5 154t-153.5 395zM406 -406q0 9 4 21l8 25q5 18 11.5 25t19.5 7q8 0 47.5 -15t78.5 -15q109 0 109 79q0 68 -90 68l-68 -4q-23 0 -33 12.5t-10 26.5q0 17 23 53l86 127h129l-92 -121q24 8 55 8q82 0 127 -44t45 -117q0 -69 -41 -115 t-98.5 -64t-126.5 -18q-82 0 -154 29q-30 15 -30 32z" />
<glyph unicode="&#xe8;" horiz-adv-x="1181" d="M84 535q0 243 146 393.5t380 150.5q246 0 370 -150.5t124 -408.5q0 -69 -80 -69h-653q11 -124 98.5 -198.5t224.5 -74.5q73 0 133.5 16t97.5 32t54 16q34 0 37 -41l8 -103q1 -27 -10.5 -42t-44.5 -27q-137 -54 -310 -54q-272 0 -423.5 149.5t-151.5 410.5zM371 629h469 q-3 115 -62 181.5t-162 66.5t-168.5 -67.5t-76.5 -180.5zM399 1509q0 37 43 37h150q42 0 65 -14.5t45 -48.5l138 -217q10 -17 10 -35q0 -33 -49 -33h-78q-38 0 -59 9.5t-48 41.5l-192 211q-25 25 -25 49z" />
<glyph unicode="&#xe9;" horiz-adv-x="1181" d="M84 535q0 243 146 393.5t380 150.5q246 0 370 -150.5t124 -408.5q0 -69 -80 -69h-653q11 -124 98.5 -198.5t224.5 -74.5q73 0 133.5 16t97.5 32t54 16q34 0 37 -41l8 -103q1 -27 -10.5 -42t-44.5 -27q-137 -54 -310 -54q-272 0 -423.5 149.5t-151.5 410.5zM334 1231 q0 18 10 35l137 217q22 33 45.5 48t65.5 15h149q43 0 43 -37q0 -25 -24 -49l-193 -211q-27 -32 -48 -41.5t-58 -9.5h-78q-49 0 -49 33zM371 629h469q-3 115 -62 181.5t-162 66.5t-168.5 -67.5t-76.5 -180.5z" />
<glyph unicode="&#xea;" horiz-adv-x="1181" d="M84 535q0 243 146 393.5t380 150.5q246 0 370 -150.5t124 -408.5q0 -69 -80 -69h-653q11 -124 98.5 -198.5t224.5 -74.5q73 0 133.5 16t97.5 32t54 16q34 0 37 -41l8 -103q1 -27 -10.5 -42t-44.5 -27q-137 -54 -310 -54q-272 0 -423.5 149.5t-151.5 410.5zM264 1227 q0 15 12 33l144 223q21 33 46.5 48t65.5 15h125q40 0 65 -15t46 -48l141 -221q13 -20 13 -33q0 -31 -43 -31h-82q-34 0 -57.5 11.5t-47.5 41.5l-98 123l-100 -123q-24 -30 -47.5 -41.5t-57.5 -11.5h-82q-43 0 -43 29zM371 629h469q-3 115 -62 181.5t-162 66.5t-168.5 -67.5 t-76.5 -180.5z" />
<glyph unicode="&#xeb;" horiz-adv-x="1181" d="M84 535q0 243 146 393.5t380 150.5q246 0 370 -150.5t124 -408.5q0 -69 -80 -69h-653q11 -124 98.5 -198.5t224.5 -74.5q73 0 133.5 16t97.5 32t54 16q34 0 37 -41l8 -103q1 -27 -10.5 -42t-44.5 -27q-137 -54 -310 -54q-272 0 -423.5 149.5t-151.5 410.5zM246 1370 q0 60 41 101.5t100 41.5t101 -41.5t42 -101.5q0 -58 -42 -99.5t-101 -41.5t-100 41.5t-41 99.5zM371 629h469q-3 115 -62 181.5t-162 66.5t-168.5 -67.5t-76.5 -180.5zM653 1370q0 60 41.5 101.5t100.5 41.5q60 0 101.5 -41.5t41.5 -101.5q0 -59 -41.5 -100t-101.5 -41 q-59 0 -100.5 41.5t-41.5 99.5z" />
<glyph unicode="&#xec;" horiz-adv-x="573" d="M94 1509q0 37 43 37h150q40 0 63 -14.5t47 -48.5l135 -217q13 -16 13 -35q0 -33 -49 -33h-80q-37 0 -57.5 9.5t-49.5 41.5l-192 211q-23 26 -23 49zM147 66v923q0 66 62 66h156q61 0 61 -66v-923q0 -66 -61 -66h-156q-62 0 -62 66z" />
<glyph unicode="&#xed;" horiz-adv-x="573" d="M29 1231q0 18 10 35l137 217q22 33 45.5 48t65.5 15h149q43 0 43 -37q0 -25 -24 -49l-193 -211q-27 -32 -48 -41.5t-58 -9.5h-78q-49 0 -49 33zM147 66v923q0 66 62 66h156q61 0 61 -66v-923q0 -66 -61 -66h-156q-62 0 -62 66z" />
<glyph unicode="&#xee;" horiz-adv-x="573" d="M-41 1227q0 15 12 33l144 223q21 33 46.5 48t65.5 15h125q40 0 65 -15t46 -48l141 -221q12 -18 12 -33q0 -31 -43 -31h-81q-34 0 -57.5 11.5t-47.5 41.5l-98 123l-101 -123q-24 -30 -47 -41.5t-57 -11.5h-82q-43 0 -43 29zM147 66v923q0 66 62 66h156q61 0 61 -66v-923 q0 -66 -61 -66h-156q-62 0 -62 66z" />
<glyph unicode="&#xef;" horiz-adv-x="573" d="M-59 1370q0 60 41 101.5t100 41.5t101 -41.5t42 -101.5q0 -58 -42 -99.5t-101 -41.5q-58 0 -99.5 41.5t-41.5 99.5zM147 66v923q0 66 62 66h156q61 0 61 -66v-923q0 -66 -61 -66h-156q-62 0 -62 66zM348 1370q0 60 41 101.5t100 41.5q60 0 102 -41.5t42 -101.5 q0 -59 -42 -100t-102 -41q-59 0 -100 41.5t-41 99.5z" />
<glyph unicode="&#xf0;" horiz-adv-x="1308" d="M84 526q0 130 45.5 236t123.5 174.5t181.5 105.5t220.5 37q64 0 121 -14q-79 111 -231 209l-185 -119q-20 -14 -36 -14q-29 0 -50 37l-20 30q-16 22 -16 43q0 24 30 45l107 68q-99 41 -127 51q-33 10 -33 41q0 13 16 41l62 96q20 29 61 29q24 0 52 -8q108 -36 217 -90 l165 106q17 10 33 10q30 0 49 -34l19 -29q16 -21 16 -45q0 -29 -26 -43l-97 -62q206 -147 324.5 -360t118.5 -481q0 -158 -47 -279t-128 -191.5t-180.5 -105.5t-214.5 -35q-117 0 -220.5 37t-181.5 105.5t-123.5 174t-45.5 234.5zM375 526q0 -136 75 -234.5t205 -98.5 q86 0 151 48.5t96.5 123t31.5 161.5q0 88 -31.5 163.5t-96.5 124t-151 48.5q-87 0 -152.5 -48.5t-96.5 -124t-31 -163.5z" />
<glyph unicode="&#xf1;" d="M143 66v923q0 66 60 66h147q64 0 64 -66v-78h12q118 168 340 168q107 0 185.5 -35t123 -97t65.5 -137.5t21 -166.5v-577q0 -66 -61 -66h-156q-61 0 -61 66v477q0 154 -45.5 228.5t-151.5 74.5q-127 0 -195.5 -97t-68.5 -266v-417q0 -66 -64 -66h-155q-60 0 -60 66z M295 1268q0 95 55.5 159t159.5 64q50 0 102.5 -20.5t95.5 -41t70 -20.5q45 0 62 49q11 39 61 39h55q48 0 48 -53q0 -96 -55 -160.5t-158 -64.5q-51 0 -104 20.5t-96.5 40.5t-70.5 20q-47 0 -59 -47q-14 -41 -62 -41h-55q-49 0 -49 56z" />
<glyph unicode="&#xf2;" horiz-adv-x="1308" d="M84 526q0 130 45.5 236t123.5 174.5t181.5 105.5t220.5 37t219.5 -37t181 -105.5t124 -174.5t45.5 -236q0 -129 -45.5 -235t-124 -174t-181 -105t-219.5 -37t-220.5 37t-181.5 105.5t-123.5 174t-45.5 234.5zM375 526q0 -136 75 -234.5t205 -98.5q86 0 151 48.5t96.5 123 t31.5 161.5q0 88 -31.5 163.5t-96.5 124t-151 48.5q-87 0 -152.5 -48.5t-96.5 -124t-31 -163.5zM461 1509q0 37 43 37h149q42 0 65.5 -15t45.5 -48l137 -217q10 -17 10 -35q0 -33 -49 -33h-78q-37 0 -58 9.5t-48 41.5l-193 211q-24 24 -24 49z" />
<glyph unicode="&#xf3;" horiz-adv-x="1308" d="M84 526q0 130 45.5 236t123.5 174.5t181.5 105.5t220.5 37t219.5 -37t181 -105.5t124 -174.5t45.5 -236q0 -129 -45.5 -235t-124 -174t-181 -105t-219.5 -37t-220.5 37t-181.5 105.5t-123.5 174t-45.5 234.5zM375 526q0 -136 75 -234.5t205 -98.5q86 0 151 48.5t96.5 123 t31.5 161.5q0 88 -31.5 163.5t-96.5 124t-151 48.5q-87 0 -152.5 -48.5t-96.5 -124t-31 -163.5zM395 1231q0 17 11 35l137 217q22 34 45 48.5t65 14.5h150q43 0 43 -37q0 -24 -25 -49l-192 -211q-27 -32 -48 -41.5t-59 -9.5h-78q-49 0 -49 33z" />
<glyph unicode="&#xf4;" horiz-adv-x="1308" d="M84 526q0 130 45.5 236t123.5 174.5t181.5 105.5t220.5 37t219.5 -37t181 -105.5t124 -174.5t45.5 -236q0 -129 -45.5 -235t-124 -174t-181 -105t-219.5 -37t-220.5 37t-181.5 105.5t-123.5 174t-45.5 234.5zM326 1227q0 15 12 33l143 223q21 33 47 48t66 15h125 q40 0 64.5 -14.5t45.5 -48.5l142 -221q12 -18 12 -33q0 -31 -43 -31h-82q-34 0 -57 11.5t-47 41.5l-99 123l-100 -123q-24 -30 -47 -41.5t-57 -11.5h-82q-43 0 -43 29zM375 526q0 -136 75 -234.5t205 -98.5q86 0 151 48.5t96.5 123t31.5 161.5q0 88 -31.5 163.5t-96.5 124 t-151 48.5q-87 0 -152.5 -48.5t-96.5 -124t-31 -163.5z" />
<glyph unicode="&#xf5;" horiz-adv-x="1308" d="M84 526q0 130 45.5 236t123.5 174.5t181.5 105.5t220.5 37t219.5 -37t181 -105.5t124 -174.5t45.5 -236q0 -129 -45.5 -235t-124 -174t-181 -105t-219.5 -37t-220.5 37t-181.5 105.5t-123.5 174t-45.5 234.5zM297 1268q0 95 55.5 159t159.5 64q50 0 102.5 -20.5t95.5 -41 t70 -20.5q45 0 62 49q11 39 61 39h55q48 0 48 -53q0 -96 -55 -160.5t-158 -64.5q-51 0 -104 20.5t-96.5 40.5t-70.5 20q-47 0 -59 -47q-14 -41 -62 -41h-55q-49 0 -49 56zM375 526q0 -136 75 -234.5t205 -98.5q86 0 151 48.5t96.5 123t31.5 161.5q0 88 -31.5 163.5 t-96.5 124t-151 48.5q-87 0 -152.5 -48.5t-96.5 -124t-31 -163.5z" />
<glyph unicode="&#xf6;" horiz-adv-x="1308" d="M84 526q0 130 45.5 236t123.5 174.5t181.5 105.5t220.5 37t219.5 -37t181 -105.5t124 -174.5t45.5 -236q0 -129 -45.5 -235t-124 -174t-181 -105t-219.5 -37t-220.5 37t-181.5 105.5t-123.5 174t-45.5 234.5zM307 1370q0 60 41.5 101.5t100.5 41.5t101 -41.5t42 -101.5 q0 -58 -42 -99.5t-101 -41.5t-100.5 41.5t-41.5 99.5zM375 526q0 -136 75 -234.5t205 -98.5q86 0 151 48.5t96.5 123t31.5 161.5q0 88 -31.5 163.5t-96.5 124t-151 48.5q-87 0 -152.5 -48.5t-96.5 -124t-31 -163.5zM715 1370q0 60 41 101.5t100 41.5q60 0 101.5 -41.5 t41.5 -101.5q0 -59 -41.5 -100t-101.5 -41q-58 0 -99.5 41.5t-41.5 99.5z" />
<glyph unicode="&#xf7;" horiz-adv-x="1228" d="M96 473v88q0 29 18.5 47.5t49.5 18.5h901q31 0 49.5 -18.5t18.5 -47.5v-88q0 -29 -18.5 -47t-49.5 -18h-901q-31 0 -49.5 18t-18.5 47zM438 92q0 72 51 123t123 51t123 -51t51 -123q0 -71 -51 -122.5t-123 -51.5q-70 0 -122 52t-52 122zM438 942q0 72 51.5 123t122.5 51 q72 0 123 -51t51 -123q0 -71 -51 -121.5t-123 -50.5q-71 0 -122.5 51t-51.5 121z" />
<glyph unicode="&#xf8;" horiz-adv-x="1308" d="M84 526q0 130 45.5 236t123.5 174.5t181.5 105.5t220.5 37q178 0 314 -80l73 88q31 42 64 9l29 -23q36 -29 4 -67l-70 -82q156 -153 156 -398q0 -129 -45.5 -235t-124 -174t-181 -105t-219.5 -37q-175 0 -313 78l-74 -86q-30 -38 -65 -8l-29 23q-35 31 -2 67l68 82 q-156 149 -156 395zM375 526q0 -105 47 -182l387 469q-65 49 -154 49q-87 0 -152.5 -48.5t-96.5 -124t-31 -163.5zM502 240q62 -47 153 -47q86 0 151 48.5t96.5 123t31.5 161.5q0 105 -47 185z" />
<glyph unicode="&#xf9;" d="M143 430v559q0 66 60 66h155q64 0 64 -66v-481q0 -150 44 -224.5t152 -74.5q127 0 196 99.5t69 269.5v411q0 66 61 66h156q61 0 61 -66v-923q0 -66 -61 -66h-148q-61 0 -61 66v88h-12q-62 -94 -145.5 -136.5t-196.5 -42.5q-89 0 -158.5 25t-113 66.5t-72 101t-39.5 123.5 t-11 139zM457 1509q0 37 43 37h149q42 0 65.5 -15t45.5 -48l137 -217q10 -17 10 -35q0 -33 -49 -33h-78q-37 0 -58 9.5t-48 41.5l-193 211q-24 24 -24 49z" />
<glyph unicode="&#xfa;" d="M143 430v559q0 66 60 66h155q64 0 64 -66v-481q0 -150 44 -224.5t152 -74.5q127 0 196 99.5t69 269.5v411q0 66 61 66h156q61 0 61 -66v-923q0 -66 -61 -66h-148q-61 0 -61 66v88h-12q-62 -94 -145.5 -136.5t-196.5 -42.5q-89 0 -158.5 25t-113 66.5t-72 101t-39.5 123.5 t-11 139zM391 1231q0 18 10 35l138 217q22 34 45 48.5t65 14.5h150q43 0 43 -37q0 -24 -25 -49l-192 -211q-27 -32 -48 -41.5t-59 -9.5h-78q-49 0 -49 33z" />
<glyph unicode="&#xfb;" d="M143 430v559q0 66 60 66h155q64 0 64 -66v-481q0 -150 44 -224.5t152 -74.5q127 0 196 99.5t69 269.5v411q0 66 61 66h156q61 0 61 -66v-923q0 -66 -61 -66h-148q-61 0 -61 66v88h-12q-62 -94 -145.5 -136.5t-196.5 -42.5q-89 0 -158.5 25t-113 66.5t-72 101t-39.5 123.5 t-11 139zM324 1227q0 15 12 33l143 223q21 33 47 48t66 15h125q40 0 64.5 -14.5t45.5 -48.5l142 -221q12 -18 12 -33q0 -31 -43 -31h-82q-34 0 -57 11.5t-47 41.5l-99 123l-100 -123q-24 -30 -47 -41.5t-57 -11.5h-82q-43 0 -43 29z" />
<glyph unicode="&#xfc;" d="M143 430v559q0 66 60 66h155q64 0 64 -66v-481q0 -150 44 -224.5t152 -74.5q127 0 196 99.5t69 269.5v411q0 66 61 66h156q61 0 61 -66v-923q0 -66 -61 -66h-148q-61 0 -61 66v88h-12q-62 -94 -145.5 -136.5t-196.5 -42.5q-89 0 -158.5 25t-113 66.5t-72 101t-39.5 123.5 t-11 139zM305 1370q0 60 41 101.5t100 41.5t101.5 -41.5t42.5 -101.5q0 -58 -42.5 -99.5t-101.5 -41.5q-58 0 -99.5 41.5t-41.5 99.5zM713 1370q0 60 41 101.5t100 41.5q60 0 101.5 -41.5t41.5 -101.5q0 -59 -41.5 -100t-101.5 -41q-58 0 -99.5 41.5t-41.5 99.5z" />
<glyph unicode="&#xfd;" horiz-adv-x="1134" d="M41 1018q0 37 49 37h168q35 0 55 -15t31 -49l227 -696h13l225 696q11 34 31 49t55 15h152q49 0 49 -37q0 -4 -2 -10t-5 -14t-4 -13l-550 -1473q-12 -33 -32 -48t-54 -15h-152q-49 0 -49 37q0 14 10 37l184 442l-391 1020q-10 20 -10 37zM307 1231q0 18 10 35l138 217 q22 34 45 48.5t65 14.5h150q43 0 43 -37q0 -24 -25 -49l-192 -211q-27 -32 -48 -41.5t-59 -9.5h-78q-49 0 -49 33z" />
<glyph unicode="&#xfe;" horiz-adv-x="1310" d="M143 -465v1983q0 67 62 67h155q62 0 62 -67v-600h4q121 161 342 161q115 0 204 -44.5t144 -123t83 -179t28 -218.5q0 -105 -30 -200.5t-85.5 -171.5t-145.5 -121.5t-200 -45.5q-222 0 -338 152h-6v-592q0 -65 -64 -65h-155q-60 0 -60 65zM422 537q0 -157 71 -248.5 t189 -91.5q121 0 187.5 93.5t66.5 231.5q0 90 -26 164.5t-84.5 123t-139.5 48.5q-121 0 -192.5 -94t-71.5 -227z" />
<glyph unicode="&#xff;" horiz-adv-x="1134" d="M41 1018q0 37 49 37h168q35 0 55 -15t31 -49l227 -696h13l225 696q11 34 31 49t55 15h152q49 0 49 -37q0 -4 -2 -10t-5 -14t-4 -13l-550 -1473q-12 -33 -32 -48t-54 -15h-152q-49 0 -49 37q0 14 10 37l184 442l-391 1020q-10 20 -10 37zM223 1370q0 60 41.5 101.5 t100.5 41.5t101 -41.5t42 -101.5q0 -58 -42 -99.5t-101 -41.5t-100.5 41.5t-41.5 99.5zM631 1370q0 60 41 101.5t100 41.5q60 0 101.5 -41.5t41.5 -101.5q0 -59 -41.5 -100t-101.5 -41q-58 0 -99.5 41.5t-41.5 99.5z" />
<glyph unicode="&#x152;" horiz-adv-x="2023" d="M96 735q0 356 186 559t519 203q64 0 185 -12.5t177 -11.5h682q66 0 66 -70v-105q0 -69 -66 -69h-532v-346h477q34 0 49.5 -16.5t15.5 -53.5v-102q0 -70 -65 -70h-477v-399h532q66 0 66 -70v-104q0 -68 -66 -68h-682l-362 -25q-334 0 -519.5 201.5t-185.5 558.5zM395 735 q0 -84 14.5 -159.5t46.5 -142t78.5 -114.5t115 -76t151.5 -28q127 0 221 43v954q-94 43 -221 43q-103 0 -183 -42.5t-127.5 -116t-71.5 -165t-24 -196.5z" />
<glyph unicode="&#x153;" horiz-adv-x="2033" d="M84 526q0 130 45.5 236t123.5 174.5t181.5 105.5t220.5 37q124 0 233.5 -42.5t186.5 -123.5q69 79 168 122.5t219 43.5q246 0 370 -150.5t124 -408.5q0 -69 -80 -69h-653q11 -124 98.5 -198.5t224.5 -74.5q73 0 133.5 16t97.5 32t54 16q34 0 37 -41l8 -103 q1 -27 -10.5 -42t-44.5 -27q-137 -54 -310 -54q-289 0 -434 168q-77 -82 -186.5 -125t-235.5 -43q-117 0 -220.5 37t-181.5 105.5t-123.5 174t-45.5 234.5zM375 526q0 -136 75 -234.5t205 -98.5q86 0 151 48.5t96.5 123t31.5 161.5q0 88 -31.5 163.5t-96.5 124t-151 48.5 q-87 0 -152.5 -48.5t-96.5 -124t-31 -163.5zM1223 629h469q-3 115 -62 181.5t-162 66.5t-168.5 -67.5t-76.5 -180.5z" />
<glyph unicode="&#x178;" horiz-adv-x="1431" d="M41 1436q0 37 45 37h201q39 0 55.5 -11.5t36.5 -46.5l334 -555l336 555q20 35 36.5 46.5t55.5 11.5h205q20 0 32.5 -9.5t12.5 -27.5q0 -14 -15 -37l-518 -815v-516q0 -68 -65 -68h-156q-70 0 -70 68v526l-514 805q-12 24 -12 37zM369 1786q0 60 41 101.5t100 41.5 t101 -41.5t42 -101.5q0 -58 -42 -99.5t-101 -41.5q-58 0 -99.5 41.5t-41.5 99.5zM776 1786q0 60 41.5 101.5t100.5 41.5q60 0 101.5 -41.5t41.5 -101.5q0 -59 -41.5 -100t-101.5 -41q-59 0 -100.5 41.5t-41.5 99.5z" />
<glyph unicode="&#x2c6;" horiz-adv-x="589" d="M-35 1227q0 15 12 33l144 223q21 33 46.5 48t65.5 15h125q40 0 65 -15t46 -48l141 -221q13 -20 13 -33q0 -31 -43 -31h-82q-34 0 -57.5 11.5t-47.5 41.5l-98 123l-100 -123q-24 -30 -47.5 -41.5t-57.5 -11.5h-82q-43 0 -43 29z" />
<glyph unicode="&#x2dc;" horiz-adv-x="610" d="M-49 1268q0 95 55.5 159t159.5 64q50 0 102.5 -20.5t95.5 -41t70 -20.5q45 0 62 49q11 39 61 39h55q47 0 47 -53q0 -96 -55 -160.5t-158 -64.5q-51 0 -104 20.5t-96 40.5t-70 20q-47 0 -59 -47q-14 -41 -62 -41h-55q-49 0 -49 56z" />
<glyph unicode="&#x2000;" horiz-adv-x="1004" />
<glyph unicode="&#x2001;" horiz-adv-x="2009" />
<glyph unicode="&#x2002;" horiz-adv-x="1004" />
<glyph unicode="&#x2003;" horiz-adv-x="2009" />
<glyph unicode="&#x2004;" horiz-adv-x="669" />
<glyph unicode="&#x2005;" horiz-adv-x="502" />
<glyph unicode="&#x2006;" horiz-adv-x="334" />
<glyph unicode="&#x2007;" horiz-adv-x="334" />
<glyph unicode="&#x2008;" horiz-adv-x="251" />
<glyph unicode="&#x2009;" horiz-adv-x="401" />
<glyph unicode="&#x200a;" horiz-adv-x="111" />
<glyph unicode="&#x2010;" horiz-adv-x="759" d="M94 498v106q0 66 64 66h444q60 0 60 -66v-106q0 -68 -60 -68h-444q-64 0 -64 68z" />
<glyph unicode="&#x2011;" horiz-adv-x="759" d="M94 498v106q0 66 64 66h444q60 0 60 -66v-106q0 -68 -60 -68h-444q-64 0 -64 68z" />
<glyph unicode="&#x2012;" horiz-adv-x="759" d="M94 498v106q0 66 64 66h444q60 0 60 -66v-106q0 -68 -60 -68h-444q-64 0 -64 68z" />
<glyph unicode="&#x2013;" horiz-adv-x="1271" d="M113 465v106q0 68 61 68h924q61 0 61 -68v-106q0 -66 -61 -66h-924q-61 0 -61 66z" />
<glyph unicode="&#x2014;" horiz-adv-x="2320" d="M113 465v106q0 68 61 68h1972q62 0 62 -68v-106q0 -66 -62 -66h-1972q-61 0 -61 66z" />
<glyph unicode="&#x2018;" horiz-adv-x="604" d="M139 1112q0 102 65.5 199t157.5 145q25 14 44 14q24 0 24 -20q0 -16 -16 -35q-81 -105 -92 -170q63 -6 105 -51t42 -109q0 -68 -47.5 -114.5t-116.5 -46.5q-65 0 -115.5 46.5t-50.5 141.5z" />
<glyph unicode="&#x2019;" horiz-adv-x="604" d="M150 1311q0 68 47 115t116 47q65 0 115.5 -47t50.5 -142q0 -103 -65.5 -200.5t-157.5 -145.5q-33 -14 -43 -14t-17.5 6t-7.5 16q0 16 17 33q81 105 92 172q-63 5 -105 50.5t-42 109.5z" />
<glyph unicode="&#x201a;" horiz-adv-x="604" d="M139 141q0 68 46.5 115t115.5 47q30 0 58.5 -10t53.5 -31t40.5 -59t15.5 -88q0 -102 -65.5 -199t-157.5 -145q-26 -15 -43 -15q-10 0 -17.5 5.5t-7.5 15.5q0 14 15 35q80 99 94 170q-64 6 -106 50.5t-42 108.5z" />
<glyph unicode="&#x201c;" horiz-adv-x="1044" d="M139 1112q0 102 65.5 199t157.5 145q25 14 44 14q24 0 24 -20q0 -16 -16 -35q-81 -105 -92 -170q63 -6 105 -51t42 -109q0 -68 -47.5 -114.5t-116.5 -46.5q-65 0 -115.5 46.5t-50.5 141.5zM565 1112q0 102 65.5 199t157.5 145q24 14 43 14q25 0 25 -20q0 -16 -16 -35 q-81 -105 -92 -170q63 -6 105 -51t42 -109q0 -68 -47.5 -114.5t-116.5 -46.5q-65 0 -115.5 46.5t-50.5 141.5z" />
<glyph unicode="&#x201d;" horiz-adv-x="1046" d="M150 1311q0 68 47 115t116 47q65 0 115.5 -47t50.5 -142q0 -103 -65.5 -200.5t-157.5 -145.5q-33 -14 -43 -14t-17.5 6t-7.5 16q0 16 17 33q81 105 92 172q-63 5 -105 50.5t-42 109.5zM575 1311q0 68 47.5 115t116.5 47q65 0 115.5 -47t50.5 -142q0 -103 -65.5 -200.5 t-157.5 -145.5q-33 -14 -43 -14t-17.5 6t-7.5 16q0 16 17 33q81 105 92 172q-63 5 -105.5 50.5t-42.5 109.5z" />
<glyph unicode="&#x201e;" horiz-adv-x="1030" d="M139 141q0 68 46.5 115t115.5 47q30 0 58.5 -10t53.5 -31t40.5 -59t15.5 -88q0 -102 -65.5 -199t-157.5 -145q-26 -15 -43 -15q-10 0 -17.5 5.5t-7.5 15.5q0 14 15 35q80 99 94 170q-64 6 -106 50.5t-42 108.5zM565 141q0 68 46.5 115t115.5 47q30 0 58.5 -10t53.5 -31 t40.5 -59t15.5 -88q0 -102 -65.5 -199t-157.5 -145q-26 -15 -43 -15q-10 0 -17.5 5.5t-7.5 15.5q0 15 14 35q81 101 95 170q-64 6 -106 50.5t-42 108.5z" />
<glyph unicode="&#x2022;" horiz-adv-x="1054" d="M164 711q0 151 105 255.5t257 104.5t258.5 -104.5t106.5 -255.5q0 -149 -106.5 -253t-258.5 -104t-257 104t-105 253z" />
<glyph unicode="&#x2026;" horiz-adv-x="1953" d="M139 139q0 68 47.5 116t114.5 48q69 0 117.5 -48t48.5 -116q0 -69 -48.5 -116.5t-117.5 -47.5q-68 0 -115 47.5t-47 116.5zM815 139q0 68 47.5 116t114.5 48q69 0 117.5 -48t48.5 -116q0 -69 -48.5 -116.5t-117.5 -47.5q-68 0 -115 47.5t-47 116.5zM1491 139 q0 68 47.5 116t114.5 48q69 0 117.5 -48t48.5 -116q0 -69 -48.5 -116.5t-117.5 -47.5q-68 0 -115 47.5t-47 116.5z" />
<glyph unicode="&#x202f;" horiz-adv-x="401" />
<glyph unicode="&#x2039;" horiz-adv-x="815" d="M147 551q0 23 21 55l231 301q25 32 49 45t58 13h121q18 0 28.5 -10t10.5 -25q0 -17 -27 -56l-240 -323l240 -324q27 -39 27 -55q0 -15 -10.5 -25t-28.5 -10h-121q-34 0 -58 13t-49 45l-231 301q-21 32 -21 55z" />
<glyph unicode="&#x203a;" horiz-adv-x="815" d="M147 172q0 16 27 55l240 324l-240 323q-27 39 -27 56q0 15 10.5 25t28.5 10h123q34 0 58 -13t49 -45l229 -301q21 -32 21 -55t-21 -55l-229 -301q-25 -32 -49 -45t-58 -13h-123q-18 0 -28.5 10t-10.5 25z" />
<glyph unicode="&#x205f;" horiz-adv-x="502" />
<glyph unicode="&#x20ac;" horiz-adv-x="1449" d="M84 510v57q0 70 68 70h118q-4 31 -4 98q0 52 2 64h-116q-68 0 -68 69v56q0 36 16 52.5t52 16.5h149q52 177 186 305q211 199 560 199q147 0 282 -41q47 -12 47 -51q0 -17 -4 -29l-29 -125q-5 -22 -13.5 -31.5t-26.5 -9.5q-15 0 -45.5 11t-82 22.5t-116.5 11.5 q-226 0 -361 -147q-50 -53 -77 -115h501q60 0 60 -47q0 -4 -4 -28l-11 -56q-8 -37 -22 -50t-47 -13h-529q-4 -23 -4 -68q0 -47 6 -94h478q59 0 59 -49q0 -7 -4 -27l-10 -55q-7 -38 -21.5 -51t-48.5 -13h-383q32 -53 72 -90q140 -137 356 -137q72 0 126.5 10.5t86.5 21.5 t47 11q42 0 45 -45l6 -127q2 -35 -6.5 -50.5t-42.5 -25.5q-128 -35 -284 -35q-335 0 -545 189q-132 117 -189 278h-161q-68 0 -68 68z" />
<glyph unicode="&#x2122;" horiz-adv-x="2056" d="M92 1362v49q0 62 55 62h582q55 0 55 -62v-49q0 -59 -55 -59h-194v-650q0 -59 -54 -59h-84q-55 0 -55 59v650h-195q-55 0 -55 59zM938 655v754q0 64 61 64h181q57 0 77 -64l170 -528l170 528q20 64 78 64h176q62 0 62 -64v-754q0 -32 -15 -46.5t-47 -14.5h-67 q-58 0 -58 61v584l-194 -584q-20 -61 -80 -61h-53q-60 0 -80 61l-193 584v-584q0 -61 -57 -61h-70q-61 0 -61 61z" />
<glyph unicode="&#x25fc;" horiz-adv-x="1054" d="M0 0v1055h1055v-1055h-1055z" />
</font>
</defs>
</svg>
